<svg width="29" height="28" viewBox="0 0 29 28" fill="none" xmlns="http://www.w3.org/2000/svg">
<g id="Group">
<path id="Vector" d="M26.056 3.67C25.5362 3.56 25.0165 3.49 24.4968 3.4V2.86C24.4965 2.47034 24.4151 2.08518 24.2579 1.73004C24.1007 1.3749 23.8712 1.05788 23.5848 0.799999C23.2925 0.538385 22.9489 0.34331 22.5769 0.227778C22.2049 0.112246 21.813 0.0789119 21.4273 0.129999C18.8611 0.440183 16.4799 1.64895 14.6903 3.55C12.9007 1.64895 10.5195 0.440183 7.95327 0.129999C7.56763 0.0789119 7.17574 0.112246 6.80372 0.227778C6.4317 0.34331 6.08811 0.538385 5.79586 0.799999C5.5094 1.05788 5.27995 1.3749 5.12272 1.73004C4.9655 2.08518 4.88407 2.47034 4.88386 2.86V3.4C4.36411 3.49 3.84437 3.56 3.32463 3.67C2.65832 3.80629 2.05883 4.17361 1.628 4.70955C1.19718 5.24549 0.961594 5.917 0.961275 6.61V23.55C0.957953 23.9761 1.04369 24.3981 1.21278 24.7878C1.38187 25.1774 1.63044 25.5259 1.94192 25.81C2.25753 26.0901 2.62809 26.2983 3.02887 26.4207C3.42965 26.5431 3.85142 26.577 4.26605 26.52C7.66626 26.0526 11.1271 26.5365 14.2784 27.92C14.3994 27.9723 14.5295 27.9992 14.6609 27.9992C14.7923 27.9992 14.9223 27.9723 15.0433 27.92C18.1947 26.5365 21.6555 26.0526 25.0557 26.52C25.4737 26.5774 25.8988 26.5424 26.3023 26.4176C26.7059 26.2927 27.0783 26.0808 27.3946 25.7963C27.7108 25.5118 27.9633 25.1613 28.135 24.7686C28.3068 24.3758 28.3937 23.95 28.3899 23.52V6.61C28.391 5.9212 28.1596 5.253 27.7346 4.71764C27.3096 4.18227 26.7169 3.81235 26.056 3.67ZM21.6823 2.11C21.7911 2.09535 21.9017 2.10473 22.0066 2.13752C22.1115 2.1703 22.2083 2.22571 22.2903 2.3C22.3676 2.37046 22.4293 2.45677 22.4716 2.55328C22.5138 2.64979 22.5356 2.75431 22.5355 2.86V20.17C22.541 20.4012 22.4678 20.6271 22.3284 20.8095C22.1889 20.9918 21.9918 21.1192 21.7706 21.17C19.4785 21.5688 17.3549 22.655 15.671 24.29V5.4C17.2015 3.57623 19.3459 2.40259 21.6823 2.11ZM6.84515 2.86C6.84769 2.65924 6.92702 2.46743 7.06625 2.32546C7.20547 2.18349 7.39356 2.10259 7.59044 2.1H7.69831C10.0361 2.39519 12.1808 3.57252 13.7097 5.4V24.29C12.0282 22.6477 9.90437 21.5544 7.61005 21.15C7.38883 21.0992 7.19172 20.9718 7.05226 20.7895C6.9128 20.6071 6.83961 20.3812 6.84515 20.15V2.86ZM4.03069 24.54C3.89163 24.5586 3.75028 24.5466 3.61617 24.5047C3.48206 24.4628 3.35831 24.3921 3.25328 24.2974C3.14825 24.2026 3.06438 24.0859 3.00733 23.9553C2.95028 23.8246 2.92137 23.683 2.92257 23.54V6.61C2.91794 6.37605 2.99391 6.14786 3.13726 5.96514C3.2806 5.78242 3.48224 5.65675 3.70708 5.61C4.09934 5.53 4.4916 5.47 4.88386 5.41V20.17C4.88366 20.8704 5.12378 21.5488 5.56259 22.0875C6.0014 22.6263 6.61125 22.9916 7.28644 23.12C8.72893 23.3783 10.0942 23.9701 11.2777 24.85C8.89902 24.3103 6.44531 24.2053 4.03069 24.54ZM26.458 23.54C26.4592 23.683 26.4303 23.8246 26.3733 23.9553C26.3162 24.0859 26.2324 24.2026 26.1273 24.2974C26.0223 24.3921 25.8986 24.4628 25.7644 24.5047C25.6303 24.5466 25.489 24.5586 25.3499 24.54C22.9353 24.2053 20.4816 24.3103 18.103 24.85C19.2864 23.9701 20.6517 23.3783 22.0942 23.12C22.7694 22.9916 23.3792 22.6263 23.818 22.0875C24.2568 21.5488 24.497 20.8704 24.4968 20.17V5.43C24.889 5.49 25.2813 5.55 25.6833 5.63C25.9064 5.67879 26.1057 5.80533 26.2471 5.98785C26.3885 6.17037 26.4631 6.39745 26.458 6.63V23.54Z" fill="white"/>
</g>
</svg>
