<svg width="32" height="32" viewBox="0 0 32 32" fill="none" xmlns="http://www.w3.org/2000/svg">
<g id="Activity 5">
<mask id="mask0_2_30751" style="mask-type:luminance" maskUnits="userSpaceOnUse" x="0" y="0" width="32" height="32">
<rect id="Activity 3 (Background/Mask)" width="32" height="32" fill="white"/>
</mask>
<g mask="url(#mask0_2_30751)">
<path id="Vector (Stroke)" fill-rule="evenodd" clip-rule="evenodd" d="M22.8992 13.6701L18.9938 18.7105C18.8307 18.9211 18.5903 19.0579 18.3259 19.0905C18.0615 19.1232 17.7951 19.049 17.5856 18.8844L13.8277 15.9325L10.4528 20.3189C10.116 20.7566 9.48812 20.8385 9.05041 20.5017C8.61269 20.1649 8.53087 19.537 8.86765 19.0993L12.8585 13.9124C13.0213 13.7008 13.2619 13.5631 13.5268 13.5299C13.7917 13.4968 14.0589 13.5709 14.2688 13.7358L18.0294 16.6898L21.3182 12.4452C21.6564 12.0086 22.2846 11.9289 22.7211 12.2672C23.1577 12.6054 23.2374 13.2336 22.8992 13.6701Z" fill="white"/>
<path id="Vector (Stroke)_2" fill-rule="evenodd" clip-rule="evenodd" d="M25.0977 5.60071C25.0977 6.4639 25.7974 7.16365 26.6606 7.16365C27.5238 7.16365 28.2235 6.4639 28.2235 5.60071C28.2235 4.73753 27.5238 4.03778 26.6606 4.03778C25.7974 4.03778 25.0977 4.73753 25.0977 5.60071ZM26.6606 2.03778C28.6283 2.03778 30.2235 3.63296 30.2235 5.60071C30.2235 7.56847 28.6283 9.16365 26.6606 9.16365C24.6928 9.16365 23.0977 7.56847 23.0977 5.60071C23.0977 3.63296 24.6928 2.03778 26.6606 2.03778Z" fill="white"/>
<path id="Vector (Stroke)_3" fill-rule="evenodd" clip-rule="evenodd" d="M10.2091 3.16003H19.8994C20.4517 3.16003 20.8994 3.60775 20.8994 4.16003C20.8994 4.71232 20.4517 5.16003 19.8994 5.16003H10.2091C8.44966 5.16003 7.09975 5.77602 6.18421 6.7636C5.26075 7.75974 4.7041 9.21646 4.7041 11.0189V21.7954C4.7041 23.6029 5.25145 25.0553 6.16689 26.0457C7.07353 27.0265 8.42123 27.6421 10.2091 27.6421H21.6813C23.442 27.6421 24.7919 27.0282 25.7069 26.0437C26.6297 25.0509 27.1862 23.5977 27.1862 21.7954V12.4102C27.1862 11.8579 27.6339 11.4102 28.1862 11.4102C28.7385 11.4102 29.1862 11.8579 29.1862 12.4102V21.7954C29.1862 24.0083 28.4979 25.9785 27.1719 27.4052C25.8383 28.8402 23.9358 29.6421 21.6813 29.6421H10.2091C7.93282 29.6421 6.02803 28.8419 4.69821 27.4032C3.37719 25.9741 2.7041 24.0032 2.7041 21.7954V11.0189C2.7041 8.80612 3.39231 6.83339 4.71751 5.4039C6.05064 3.96586 7.95321 3.16003 10.2091 3.16003Z" fill="white"/>
</g>
</g>
</svg>
