<svg width="313" height="128" viewBox="0 0 313 128" fill="none" xmlns="http://www.w3.org/2000/svg">
<g clip-path="url(#clip0_2_30729)">
<rect width="255.379" height="255.379" transform="translate(0 58.8027) rotate(-31.5968)" fill="#753CBD"/>
<path d="M131.497 169.596L105.907 185.337C98.8694 189.666 96.6534 198.966 100.982 206.003L139.024 267.847C140.467 270.193 143.567 270.931 145.912 269.488L188.563 243.253C190.909 241.81 191.648 238.71 190.205 236.364L152.163 174.521C147.835 167.483 138.535 165.267 131.497 169.596ZM179.052 237.346L144.931 258.335L109.513 200.756C108.07 198.411 108.808 195.311 111.154 193.868L136.745 178.126C139.091 176.683 142.19 177.422 143.633 179.768L179.052 237.346ZM183.016 90.8739L157.425 106.616C150.388 110.944 148.172 120.244 152.501 127.281L211.531 223.246C212.974 225.592 216.074 226.331 218.42 224.888L261.071 198.652C263.416 197.209 264.155 194.109 262.712 191.764L203.681 95.7987C199.353 88.7612 190.053 86.5451 183.016 90.8739ZM251.558 192.745L217.437 213.734L161.03 122.034C159.588 119.689 160.326 116.589 162.672 115.146L188.263 99.4044C190.608 97.9615 193.708 98.7002 195.151 101.046L251.558 192.745L251.558 192.745ZM245.028 29.2126L219.437 44.9542C212.4 49.283 210.184 58.5828 214.513 65.6201L284.038 178.646C285.481 180.991 288.581 181.73 290.926 180.287L333.577 154.051C335.923 152.608 336.662 149.509 335.219 147.163L265.694 34.1374C261.365 27.0999 252.065 24.8838 245.028 29.2126ZM324.065 148.144L289.944 169.133L223.043 60.3731C221.6 58.0274 222.338 54.9276 224.684 53.4847L250.275 37.7431C252.621 36.3002 255.72 37.0388 257.163 39.3846L324.065 148.145L324.065 148.144ZM226.311 -46.5175C224.855 -47.7379 222.824 -48.0764 221.072 -47.2926L201.558 -38.8754L183.544 -50.1928C181.927 -51.1969 179.857 -51.217 178.236 -50.2202C176.616 -49.2233 175.7 -47.3665 175.867 -45.4704L177.844 -24.2881L161.531 -10.6674C160.042 -9.45728 159.428 -7.4925 159.86 -5.64197C160.293 -3.79143 161.769 -2.34794 163.629 -1.90505L183.216 2.50758L154.747 43.7708C149.236 41.6931 142.842 42.0987 137.426 45.4306C128 51.2288 125.061 63.5595 130.86 72.9855C131.437 73.924 132.099 74.8096 132.778 75.6267L101.933 120.291C96.4059 118.282 90.0123 118.688 84.5956 122.02C75.1696 127.818 72.2313 140.149 78.0295 149.575C83.8277 159.001 96.1583 161.939 105.584 156.141C115.01 150.343 117.949 138.012 112.151 128.586C111.573 127.648 110.911 126.762 110.232 125.945L141.077 81.2806C146.604 83.2894 152.998 82.8838 158.414 79.5519C167.84 73.7537 170.779 61.423 164.98 51.997C164.403 51.0585 163.741 50.1729 163.062 49.3559L188.377 12.6195L192.299 22.4354C193.04 24.2134 194.651 25.3981 196.576 25.5657C198.476 25.6907 200.303 24.7431 201.264 23.1522L212.106 4.84265L233.338 3.42295C234.188 3.37061 234.949 3.07876 235.631 2.65917C236.527 2.10813 237.222 1.32764 237.649 0.300778C238.394 -1.4511 238.036 -3.46504 236.784 -4.92819L222.72 -20.9098L227.92 -41.51C228.39 -43.3284 227.767 -45.2965 226.311 -46.5175ZM100.337 147.611C95.6457 150.496 89.4456 149.019 86.5597 144.328C83.6739 139.636 85.1513 133.436 89.8428 130.55C94.5343 127.664 100.734 129.142 103.62 133.833C106.506 138.525 105.029 144.725 100.337 147.611ZM153.167 71.0216C148.475 73.9075 142.275 72.4301 139.39 67.7386C136.504 63.0471 137.981 56.847 142.673 53.9611C147.364 51.0752 153.564 52.5527 156.45 57.2442C159.336 61.9357 157.859 68.1358 153.167 71.0216ZM212.347 -20.7614C211.927 -19.1505 212.367 -17.481 213.445 -16.2043L222.517 -5.85258L208.795 -4.93665C207.945 -4.88432 207.184 -4.59245 206.502 -4.17286C205.819 -3.75302 205.242 -3.16281 204.786 -2.47062L197.78 9.36398L194.176 0.351965L192.675 -3.42756C192.091 -4.94964 190.73 -6.11135 189.102 -6.46271L175.663 -9.48324L186.241 -18.2827C187.517 -19.3616 188.187 -20.9495 187.997 -22.5962L186.746 -36.289L198.404 -28.9977C199.091 -28.5676 199.871 -28.3088 200.679 -28.243C201.486 -28.1773 202.298 -28.3064 203.045 -28.6196L215.67 -34.0926L212.347 -20.7614Z" fill="#7E50BE"/>
</g>
<defs>
<clipPath id="clip0_2_30729">
<rect width="255.379" height="255.379" fill="white" transform="translate(0 58.8027) rotate(-31.5968)"/>
</clipPath>
</defs>
</svg>
