<svg width="20" height="20" viewBox="0 0 20 20" fill="none" xmlns="http://www.w3.org/2000/svg">
<path fill-rule="evenodd" clip-rule="evenodd" d="M2.5 4.79167H7.7946C8.06665 5.75354 8.95102 6.45833 10 6.45833C11.049 6.45833 11.9333 5.75354 12.2054 4.79167H17.5C17.8452 4.79167 18.125 4.51185 18.125 4.16667C18.125 3.82149 17.8452 3.54167 17.5 3.54167H12.2054C11.9333 2.57979 11.049 1.875 10 1.875C8.95102 1.875 8.06665 2.57979 7.7946 3.54167H2.5C2.15482 3.54167 1.875 3.82149 1.875 4.16667C1.875 4.51185 2.15482 4.79167 2.5 4.79167ZM14.1667 7.70833C12.901 7.70833 11.875 8.73435 11.875 10C11.875 11.2657 12.901 12.2917 14.1667 12.2917C15.2156 12.2917 16.1 11.5869 16.3721 10.625H17.5C17.8452 10.625 18.125 10.3452 18.125 10C18.125 9.65482 17.8452 9.375 17.5 9.375H16.3721C16.1 8.41312 15.2156 7.70833 14.1667 7.70833ZM1.875 10C1.875 9.65482 2.15482 9.375 2.5 9.375H10C10.3452 9.375 10.625 9.65482 10.625 10C10.625 10.3452 10.3452 10.625 10 10.625H2.5C2.15482 10.625 1.875 10.3452 1.875 10ZM3.62793 16.4583H2.5C2.15482 16.4583 1.875 16.1785 1.875 15.8333C1.875 15.4882 2.15482 15.2083 2.5 15.2083H3.62793C3.89998 14.2465 4.78435 13.5417 5.83333 13.5417C7.09899 13.5417 8.125 14.5677 8.125 15.8333C8.125 17.099 7.09899 18.125 5.83333 18.125C4.78435 18.125 3.89998 17.4202 3.62793 16.4583ZM9.375 15.8333C9.375 15.4882 9.65482 15.2083 10 15.2083H17.5C17.8452 15.2083 18.125 15.4882 18.125 15.8333C18.125 16.1785 17.8452 16.4583 17.5 16.4583H10C9.65482 16.4583 9.375 16.1785 9.375 15.8333Z" fill="#753CBD"/>
</svg>
