<svg width="24" height="24" viewBox="0 0 24 24" fill="none" xmlns="http://www.w3.org/2000/svg">
<g id="Group">
<g id="Vector">
<mask id="path-1-inside-1_2013_137" fill="white">
<path d="M4.99055 15.2941H2.167C1.39055 15.2941 0.755249 15.9294 0.755249 16.7059V23.5294C0.755249 23.7882 0.967001 24 1.22582 24H5.93169C6.19051 24 6.40226 23.7882 6.40226 23.5294V16.7059C6.4023 15.9294 5.76704 15.2941 4.99055 15.2941ZM5.46116 23.0588H1.69643V16.7059C1.69643 16.4471 1.90818 16.2353 2.167 16.2353H4.99055C5.24937 16.2353 5.46112 16.4471 5.46112 16.7059L5.46116 23.0588ZM12.9906 11.5294H10.167C9.39058 11.5294 8.75528 12.1647 8.75528 12.9412V23.5294C8.75528 23.7882 8.96703 24 9.22585 24H13.9317C14.1905 24 14.4023 23.7882 14.4023 23.5294V12.9412C14.4023 12.1647 13.767 11.5294 12.9906 11.5294ZM13.4611 23.0588H9.69642V12.9412C9.69642 12.6824 9.90817 12.4706 10.167 12.4706H12.9905C13.2494 12.4706 13.4611 12.6824 13.4611 12.9412V23.0588H13.4611ZM20.9906 9.64707H18.167C17.3906 9.64707 16.7553 10.2824 16.7553 11.0588V23.5294C16.7553 23.7882 16.967 24 17.2258 24H21.9317C22.1905 24 22.4023 23.7882 22.4023 23.5294V11.0588C22.4023 10.2824 21.767 9.64707 20.9906 9.64707ZM21.4611 23.0588H17.6964V11.0588C17.6964 10.8 17.9082 10.5882 18.167 10.5882H20.9905C21.2493 10.5882 21.4611 10.8 21.4611 11.0588V23.0588H21.4611ZM23.2212 2.66352C23.1647 2.49413 23.0188 2.36705 22.84 2.34352L20.8635 2.05646L19.9788 0.263524C19.8988 0.103544 19.7341 0 19.5553 0C19.3765 0 19.2117 0.103544 19.1317 0.263524L18.247 2.05646L16.2706 2.34352C16.0918 2.36705 15.9459 2.49409 15.8894 2.66352C15.8329 2.83296 15.88 3.02118 16.007 3.14821L17.3577 4.46588L13.0471 6.36707C12.7082 5.9294 12.1765 5.64705 11.5788 5.64705C10.5388 5.64705 9.69646 6.4894 9.69646 7.52942C9.69646 7.63296 9.70587 7.73646 9.71999 7.8353L5.05173 9.89176C4.7082 9.4588 4.17644 9.17645 3.5788 9.17645C2.53878 9.17645 1.69643 10.0188 1.69643 11.0588C1.69643 12.0988 2.53878 12.9412 3.5788 12.9412C4.61882 12.9412 5.46116 12.0988 5.46116 11.0588C5.46116 10.9553 5.45175 10.8518 5.43763 10.7529L10.1058 8.69647C10.4494 9.12943 10.9811 9.41178 11.5788 9.41178C12.6188 9.41178 13.4611 8.56944 13.4611 7.52942C13.4611 7.42587 13.4517 7.32237 13.4376 7.22353L17.2729 5.52943L17.1035 6.50827C17.0753 6.68707 17.1459 6.86121 17.2917 6.96942C17.4376 7.07297 17.6306 7.08709 17.7858 7.00707L19.5552 6.0753L21.3246 7.00707C21.3952 7.04473 21.4705 7.05885 21.5458 7.05885C21.6446 7.05885 21.7387 7.03061 21.8235 6.96942C21.9694 6.86588 22.0399 6.68707 22.0117 6.50827L21.6728 4.53652L23.1034 3.14359C23.2306 3.02118 23.2776 2.83296 23.2212 2.66352ZM3.5788 12C3.06116 12 2.63761 11.5765 2.63761 11.0588C2.63761 10.5412 3.06116 10.1176 3.5788 10.1176C4.09643 10.1176 4.51998 10.5412 4.51998 11.0588C4.51998 11.5765 4.09643 12 3.5788 12ZM11.5788 8.4706C11.0611 8.4706 10.6376 8.04705 10.6376 7.52942C10.6376 7.01178 11.0611 6.58823 11.5788 6.58823C12.0964 6.58823 12.52 7.01178 12.52 7.52942C12.52 8.04705 12.0964 8.4706 11.5788 8.4706ZM20.8352 4.03767C20.7223 4.14592 20.6753 4.30119 20.6988 4.45651L20.9152 5.73181L19.7717 5.12946C19.7011 5.09181 19.6258 5.07769 19.5505 5.07769C19.4752 5.07769 19.4 5.09651 19.3294 5.12946L18.1858 5.73181L18.3411 4.83299L18.407 4.45651C18.4352 4.30594 18.3835 4.14592 18.2705 4.03767L17.3435 3.13414L18.6235 2.95062C18.7787 2.92709 18.9105 2.83296 18.9764 2.69181L19.5505 1.53417L20.1246 2.69181C20.1585 2.76005 20.2082 2.81918 20.2696 2.86422C20.331 2.90926 20.4023 2.93889 20.4776 2.95062L21.7576 3.13414L20.8352 4.03767Z"/>
</mask>
<path d="M4.99055 15.2941H2.167C1.39055 15.2941 0.755249 15.9294 0.755249 16.7059V23.5294C0.755249 23.7882 0.967001 24 1.22582 24H5.93169C6.19051 24 6.40226 23.7882 6.40226 23.5294V16.7059C6.4023 15.9294 5.76704 15.2941 4.99055 15.2941ZM5.46116 23.0588H1.69643V16.7059C1.69643 16.4471 1.90818 16.2353 2.167 16.2353H4.99055C5.24937 16.2353 5.46112 16.4471 5.46112 16.7059L5.46116 23.0588ZM12.9906 11.5294H10.167C9.39058 11.5294 8.75528 12.1647 8.75528 12.9412V23.5294C8.75528 23.7882 8.96703 24 9.22585 24H13.9317C14.1905 24 14.4023 23.7882 14.4023 23.5294V12.9412C14.4023 12.1647 13.767 11.5294 12.9906 11.5294ZM13.4611 23.0588H9.69642V12.9412C9.69642 12.6824 9.90817 12.4706 10.167 12.4706H12.9905C13.2494 12.4706 13.4611 12.6824 13.4611 12.9412V23.0588H13.4611ZM20.9906 9.64707H18.167C17.3906 9.64707 16.7553 10.2824 16.7553 11.0588V23.5294C16.7553 23.7882 16.967 24 17.2258 24H21.9317C22.1905 24 22.4023 23.7882 22.4023 23.5294V11.0588C22.4023 10.2824 21.767 9.64707 20.9906 9.64707ZM21.4611 23.0588H17.6964V11.0588C17.6964 10.8 17.9082 10.5882 18.167 10.5882H20.9905C21.2493 10.5882 21.4611 10.8 21.4611 11.0588V23.0588H21.4611ZM23.2212 2.66352C23.1647 2.49413 23.0188 2.36705 22.84 2.34352L20.8635 2.05646L19.9788 0.263524C19.8988 0.103544 19.7341 0 19.5553 0C19.3765 0 19.2117 0.103544 19.1317 0.263524L18.247 2.05646L16.2706 2.34352C16.0918 2.36705 15.9459 2.49409 15.8894 2.66352C15.8329 2.83296 15.88 3.02118 16.007 3.14821L17.3577 4.46588L13.0471 6.36707C12.7082 5.9294 12.1765 5.64705 11.5788 5.64705C10.5388 5.64705 9.69646 6.4894 9.69646 7.52942C9.69646 7.63296 9.70587 7.73646 9.71999 7.8353L5.05173 9.89176C4.7082 9.4588 4.17644 9.17645 3.5788 9.17645C2.53878 9.17645 1.69643 10.0188 1.69643 11.0588C1.69643 12.0988 2.53878 12.9412 3.5788 12.9412C4.61882 12.9412 5.46116 12.0988 5.46116 11.0588C5.46116 10.9553 5.45175 10.8518 5.43763 10.7529L10.1058 8.69647C10.4494 9.12943 10.9811 9.41178 11.5788 9.41178C12.6188 9.41178 13.4611 8.56944 13.4611 7.52942C13.4611 7.42587 13.4517 7.32237 13.4376 7.22353L17.2729 5.52943L17.1035 6.50827C17.0753 6.68707 17.1459 6.86121 17.2917 6.96942C17.4376 7.07297 17.6306 7.08709 17.7858 7.00707L19.5552 6.0753L21.3246 7.00707C21.3952 7.04473 21.4705 7.05885 21.5458 7.05885C21.6446 7.05885 21.7387 7.03061 21.8235 6.96942C21.9694 6.86588 22.0399 6.68707 22.0117 6.50827L21.6728 4.53652L23.1034 3.14359C23.2306 3.02118 23.2776 2.83296 23.2212 2.66352ZM3.5788 12C3.06116 12 2.63761 11.5765 2.63761 11.0588C2.63761 10.5412 3.06116 10.1176 3.5788 10.1176C4.09643 10.1176 4.51998 10.5412 4.51998 11.0588C4.51998 11.5765 4.09643 12 3.5788 12ZM11.5788 8.4706C11.0611 8.4706 10.6376 8.04705 10.6376 7.52942C10.6376 7.01178 11.0611 6.58823 11.5788 6.58823C12.0964 6.58823 12.52 7.01178 12.52 7.52942C12.52 8.04705 12.0964 8.4706 11.5788 8.4706ZM20.8352 4.03767C20.7223 4.14592 20.6753 4.30119 20.6988 4.45651L20.9152 5.73181L19.7717 5.12946C19.7011 5.09181 19.6258 5.07769 19.5505 5.07769C19.4752 5.07769 19.4 5.09651 19.3294 5.12946L18.1858 5.73181L18.3411 4.83299L18.407 4.45651C18.4352 4.30594 18.3835 4.14592 18.2705 4.03767L17.3435 3.13414L18.6235 2.95062C18.7787 2.92709 18.9105 2.83296 18.9764 2.69181L19.5505 1.53417L20.1246 2.69181C20.1585 2.76005 20.2082 2.81918 20.2696 2.86422C20.331 2.90926 20.4023 2.93889 20.4776 2.95062L21.7576 3.13414L20.8352 4.03767Z" fill="black" stroke="#753CBD" strokeWidth="12" mask="url(#path-1-inside-1_2013_137)"/>
</g>
</g>
</svg>
