<svg width="17" height="12" viewBox="0 0 17 12" fill="none" xmlns="http://www.w3.org/2000/svg">
<path d="M16.423 5.42697L11.4646 0.237343C11.3944 0.162423 11.3095 0.102708 11.2153 0.0618856C11.121 0.0210628 11.0194 0 10.9167 0C10.814 0 10.7123 0.0210628 10.6181 0.0618856C10.5238 0.102708 10.4389 0.162423 10.3687 0.237343C10.2232 0.392671 10.1422 0.597534 10.1422 0.810368C10.1422 1.0232 10.2232 1.22807 10.3687 1.38339L14.0042 5.18834H0.762784C0.556354 5.20079 0.362464 5.29157 0.220702 5.44214C0.0789402 5.59272 0 5.79172 0 5.99852C0 6.20533 0.0789402 6.40434 0.220702 6.55491C0.362464 6.70548 0.556354 6.79626 0.762784 6.80871H14.0042L10.3687 10.6166C10.2232 10.7719 10.1422 10.9768 10.1422 11.1896C10.1422 11.4025 10.2232 11.6073 10.3687 11.7627C10.4389 11.8376 10.5238 11.8973 10.6181 11.9381C10.7123 11.9789 10.814 12 10.9167 12C11.0194 12 11.121 11.9789 11.2153 11.9381C11.3095 11.8973 11.3944 11.8376 11.4646 11.7627L16.423 6.57302C16.5685 6.41769 16.6495 6.21283 16.6495 6C16.6495 5.78716 16.5685 5.5823 16.423 5.42697Z" fill="white"/>
</svg>
