<svg width="81" height="83" viewBox="0 0 81 83" fill="none" xmlns="http://www.w3.org/2000/svg">
<path opacity="0.8" d="M77.252 41.3241C77.252 61.9278 60.0404 78.6469 38.7881 78.6469C17.5359 78.6469 0.324245 61.9278 0.324245 41.3241C0.324245 20.7203 17.5359 4.00125 38.7881 4.00125C60.0404 4.00125 77.252 20.7203 77.252 41.3241Z" fill="#22CC9B" stroke="#22CC9B" stroke-width="0.648489"/>
<path d="M32.9363 35.381C33.1299 35.298 33.3305 35.2565 33.538 35.2565H34.5964C34.8869 35.2565 35.1359 35.3603 35.3434 35.5678C35.551 35.7753 35.6547 36.0243 35.6547 36.3149V46.4417C35.6547 46.7322 35.551 46.9812 35.3434 47.1887C35.1359 47.3962 34.8869 47.5 34.5964 47.5C34.3059 47.5 34.0568 47.3962 33.8493 47.1887C33.6418 46.9812 33.538 46.7322 33.538 46.4417V37.4562L31.6289 38.4938C31.5044 38.563 31.3384 38.5975 31.1309 38.5975C30.8265 38.5975 30.5706 38.5007 30.363 38.307C30.1694 38.0995 30.0725 37.8436 30.0725 37.5392C30.0725 37.1103 30.2385 36.7991 30.5706 36.6054L32.9363 35.381ZM39.2723 35.5678C39.5628 35.4571 39.9433 35.3603 40.4137 35.2773C40.884 35.1804 41.472 35.132 42.1775 35.132C42.8001 35.132 43.3811 35.1874 43.9207 35.298C44.4741 35.4087 44.9514 35.6024 45.3526 35.8791C45.7676 36.1419 46.0927 36.5085 46.3279 36.9789C46.5631 37.4354 46.6807 38.0165 46.6807 38.722C46.6807 39.3584 46.5354 39.898 46.2449 40.3407C45.9682 40.7695 45.6085 41.15 45.1658 41.482C44.7369 41.8002 44.2596 42.0977 43.7339 42.3743C43.222 42.6372 42.7309 42.9139 42.2606 43.2044C41.804 43.4949 41.4028 43.82 41.057 44.1797C40.7111 44.5394 40.4897 44.9821 40.3929 45.5078H45.6223C45.899 45.5078 46.1342 45.6047 46.3279 45.7984C46.5216 45.992 46.6184 46.2272 46.6184 46.5039C46.6184 46.7806 46.5216 47.0158 46.3279 47.2095C46.1342 47.4032 45.899 47.5 45.6223 47.5H39.1893C38.8988 47.5 38.6498 47.4032 38.4422 47.2095C38.2486 47.002 38.1517 46.7529 38.1517 46.4624V45.4248C38.1517 44.7469 38.3108 44.159 38.629 43.6609C38.9472 43.1491 39.3415 42.7064 39.8119 42.3328C40.2822 41.9455 40.7941 41.6065 41.3475 41.316C41.9147 41.0116 42.4335 40.728 42.9039 40.4652C43.3742 40.2023 43.7685 39.9395 44.0867 39.6766C44.4049 39.4138 44.564 39.1232 44.564 38.8051C44.564 38.5007 44.4879 38.2448 44.3357 38.0372C44.1835 37.8159 43.9829 37.643 43.7339 37.5185C43.4849 37.3801 43.2082 37.2833 42.9039 37.2279C42.5995 37.1588 42.2951 37.1242 41.9908 37.1242C41.6726 37.1242 41.3267 37.1518 40.9532 37.2072C40.5935 37.2487 40.2546 37.304 39.9364 37.3732C39.8257 37.4009 39.7358 37.4147 39.6666 37.4147C39.3899 37.4147 39.1616 37.3248 38.9818 37.1449C38.8019 36.9651 38.712 36.7368 38.712 36.4601C38.712 36.2664 38.7604 36.0866 38.8573 35.9206C38.968 35.7546 39.1063 35.637 39.2723 35.5678Z" fill="white"/>
<path d="M38.7877 0.5C38.2354 0.5 37.7877 0.947715 37.7877 1.5C37.7877 2.05228 38.2354 2.5 38.7877 2.5V0.5ZM79.0001 41.5C79.0001 63.0112 61.0247 80.5 38.7877 80.5V82.5C62.0726 82.5 81.0001 64.1716 81.0001 41.5H79.0001ZM38.7877 2.5C61.0247 2.5 79.0001 19.9888 79.0001 41.5H81.0001C81.0001 18.8284 62.0726 0.5 38.7877 0.5V2.5ZM38.7877 80.5C23.5988 80.5 10.3881 72.3351 3.54723 60.3L1.80848 61.2883C9.00073 73.9416 22.8712 82.5 38.7877 82.5V80.5Z" fill="#22CC9B"/>
</svg>
