<svg width="16" height="19" viewBox="0 0 16 19" fill="none" xmlns="http://www.w3.org/2000/svg">
<path d="M14.6666 14.5555L15 15C15.138 15.184 15.1007 15.4452 14.9166 15.5833C14.8445 15.6374 14.7568 15.6666 14.6666 15.6666H1.33329C1.10318 15.6666 0.916626 15.48 0.916626 15.25C0.916626 15.1598 0.945868 15.072 0.999959 15L1.33329 14.5555V7.33329C1.33329 3.65139 4.31806 0.666626 7.99996 0.666626C11.6819 0.666626 14.6666 3.65139 14.6666 7.33329V14.5555ZM5.91663 16.5H10.0833C10.0833 17.6505 9.15054 18.5833 7.99996 18.5833C6.84938 18.5833 5.91663 17.6505 5.91663 16.5Z" fill="white"/>
</svg>
