<svg width="56" height="56" viewBox="0 0 56 56" fill="none" xmlns="http://www.w3.org/2000/svg">
<path d="M25.2145 18.4464C25.1779 18.5589 25.1779 18.6801 25.2145 18.7926C25.251 18.9051 25.3222 19.0031 25.4179 19.0726C25.5136 19.1421 25.6289 19.1795 25.7472 19.1795C25.8654 19.1795 25.9807 19.142 26.0763 19.0725L28.5403 17.2839L31.0043 19.0725C31.1001 19.1411 31.215 19.1778 31.3327 19.1774C31.4505 19.177 31.5652 19.1394 31.6604 19.0701C31.7556 19.0007 31.8265 18.9031 31.863 18.7912C31.8996 18.6792 31.8999 18.5586 31.8639 18.4464L30.9231 15.5518L33.3871 13.7631C33.4828 13.6936 33.554 13.5956 33.5906 13.4831C33.6271 13.3706 33.6271 13.2495 33.5905 13.137C33.554 13.0245 33.4827 12.9265 33.3871 12.857C33.2914 12.7875 33.1761 12.7501 33.0579 12.7501H30.0115L29.0712 9.85602C29.0344 9.74398 28.9631 9.64643 28.8676 9.57727C28.7721 9.50811 28.6572 9.47088 28.5392 9.47088C28.4213 9.47088 28.3064 9.50811 28.2108 9.57727C28.1153 9.64643 28.044 9.74398 28.0072 9.85602L27.067 12.7507H24.0239C23.9057 12.7506 23.7904 12.7881 23.6947 12.8576C23.599 12.9271 23.5278 13.0251 23.4913 13.1376C23.4547 13.25 23.4547 13.3712 23.4912 13.4837C23.5278 13.5962 23.599 13.6942 23.6947 13.7637L26.1587 15.5523L25.2145 18.4464ZM25.7454 13.8701H27.4724C27.5907 13.8701 27.7059 13.8326 27.8016 13.7631C27.8972 13.6936 27.9684 13.5956 28.005 13.4831L28.5387 11.8412L29.0723 13.4831C29.1089 13.5956 29.1801 13.6936 29.2758 13.7631C29.3714 13.8326 29.4866 13.8701 29.6049 13.8701H31.3319L29.9319 14.8848C29.8361 14.9543 29.7647 15.0524 29.7281 15.165C29.6915 15.2776 29.6915 15.3989 29.7281 15.5115L30.2618 17.1534L28.8679 16.1387C28.7722 16.0691 28.657 16.0316 28.5387 16.0316C28.4203 16.0316 28.3051 16.0691 28.2094 16.1387L26.8094 17.1534L27.3436 15.5115C27.3802 15.3989 27.3802 15.2776 27.3436 15.165C27.307 15.0524 27.2356 14.9543 27.1398 14.8848L25.7454 13.8701ZM17.5162 40.5205H39.5611C39.7097 40.5205 39.8521 40.5795 39.9571 40.6845C40.0621 40.7895 40.1211 40.932 40.1211 41.0805C40.1211 41.229 40.0621 41.3715 39.9571 41.4765C39.8521 41.5815 39.7097 41.6405 39.5611 41.6405H17.5162C17.3677 41.6405 17.2252 41.5815 17.1202 41.4765C17.0152 41.3715 16.9562 41.229 16.9562 41.0805C16.9562 40.932 17.0152 40.7895 17.1202 40.6845C17.2252 40.5795 17.3677 40.5205 17.5162 40.5205ZM33.0551 44.9249H24.0239C23.8754 44.9249 23.733 44.8659 23.628 44.7609C23.5229 44.6559 23.4639 44.5134 23.4639 44.3649C23.4639 44.2164 23.5229 44.0739 23.628 43.9689C23.733 43.8639 23.8754 43.8049 24.0239 43.8049H33.0567C33.2053 43.8049 33.3477 43.8639 33.4527 43.9689C33.5577 44.0739 33.6167 44.2164 33.6167 44.3649C33.6167 44.5134 33.5577 44.6559 33.4527 44.7609C33.3477 44.8659 33.2053 44.9249 33.0567 44.9249H33.0551ZM40.1211 48.071C40.1211 48.2195 40.0621 48.3619 39.9571 48.467C39.8521 48.572 39.7097 48.631 39.5611 48.631H33.6341C33.4856 48.631 33.3431 48.572 33.2381 48.467C33.1331 48.3619 33.0741 48.2195 33.0741 48.071C33.0741 47.9225 33.1331 47.78 33.2381 47.675C33.3431 47.57 33.4856 47.511 33.6341 47.511H39.5611C39.7097 47.511 39.8521 47.57 39.9571 47.675C40.0621 47.78 40.1211 47.9225 40.1211 48.071ZM51.4891 20.407H38.1617C38.0966 19.9741 37.9908 19.5483 37.8459 19.1352C37.6523 18.6884 37.5637 18.2031 37.5871 17.7167C37.6745 17.4474 38.1835 17.0733 38.5951 16.7726C39.3114 16.2456 40.1239 15.6487 40.1239 14.7762C40.1239 13.9037 39.3119 13.3067 38.5957 12.7798C38.1863 12.4791 37.6773 12.105 37.5877 11.8356C37.5637 11.3491 37.6521 10.8635 37.8459 10.4166C38.1203 9.54634 38.4059 8.64642 37.9091 7.96658C37.4124 7.28674 36.4599 7.27386 35.542 7.26658C35.0632 7.31255 34.5802 7.24877 34.1297 7.0801C33.8362 6.70691 33.6304 6.27244 33.5277 5.8089C33.2477 4.9717 32.9352 4.0225 32.1187 3.75762C31.3314 3.50058 30.5703 4.0449 29.8345 4.56962C29.4622 4.89839 29.0186 5.13611 28.5387 5.26402C28.0587 5.13622 27.615 4.89849 27.2428 4.56962C26.5075 4.0449 25.7459 3.50114 24.9586 3.75762C24.1421 4.02306 23.8274 4.9717 23.5496 5.8089C23.4473 6.27247 23.2417 6.70698 22.9482 7.0801C22.4976 7.24851 22.0146 7.31209 21.5359 7.26602C20.6169 7.2733 19.6677 7.28058 19.1682 7.96658C18.6687 8.65258 18.9576 9.54634 19.2315 10.4166C19.4251 10.8636 19.5136 11.349 19.4902 11.8356C19.4028 12.105 18.8938 12.4791 18.4822 12.7798C17.7659 13.3067 16.9539 13.9031 16.9539 14.7762C16.9539 15.6492 17.7659 16.2456 18.4827 16.7726C18.8915 17.0733 19.4006 17.4446 19.4874 17.7167C19.5113 18.2031 19.423 18.6885 19.2292 19.1352C19.0843 19.5483 18.9785 19.9741 18.9134 20.407H5.58986C4.99383 20.4077 4.42246 20.645 4.00122 21.0666C3.57997 21.4883 3.34329 22.0599 3.34314 22.6559V51.2159C3.34492 51.8106 3.58241 52.3804 4.00356 52.8003C4.42471 53.2202 4.99516 53.4559 5.58986 53.4559H51.4869C52.0817 53.4561 52.6523 53.2204 53.0736 52.8005C53.4948 52.3806 53.7324 51.8107 53.7342 51.2159V22.6559C53.7336 22.0601 53.4966 21.4888 53.0753 21.0675C52.654 20.6462 52.0827 20.4093 51.4869 20.4087L51.4891 20.407ZM28.5409 6.85498C30.1071 6.85542 31.6381 7.32023 32.9402 8.19065C34.2423 9.06106 35.257 10.298 35.8562 11.7451C36.4554 13.1922 36.6121 14.7844 36.3065 16.3205C36.0009 17.8567 35.2467 19.2677 34.1392 20.3752C33.0317 21.4827 31.6208 22.237 30.0847 22.5428C28.5486 22.8485 26.9563 22.6919 25.5092 22.0928C24.0621 21.4938 22.8251 20.4791 21.9546 19.177C21.0841 17.875 20.6191 16.3441 20.6186 14.7779C20.621 12.6781 21.4561 10.6649 22.9409 9.18014C24.4257 7.69535 26.4389 6.86015 28.5387 6.85778L28.5409 6.85498ZM23.25 38.2083C23.3575 38.2479 23.4746 38.2537 23.5854 38.2248C23.6963 38.1958 23.7956 38.1336 23.8699 38.0464L28.5387 32.5691L33.2079 38.0464C33.2606 38.1081 33.326 38.1577 33.3997 38.1916C33.4734 38.2255 33.5535 38.2431 33.6347 38.243C33.7006 38.243 33.766 38.2312 33.8279 38.2083C33.9354 38.1687 34.0282 38.0972 34.0938 38.0033C34.1594 37.9093 34.1946 37.7975 34.1947 37.683V23.7855H43.6071C43.7433 25.5305 44.4982 27.1695 45.7358 28.4072C46.9734 29.6449 48.6124 30.4 50.3574 30.5363V43.3278C48.6125 43.4641 46.9736 44.219 45.736 45.4566C44.4984 46.6942 43.7434 48.3331 43.6071 50.078H13.4702C13.3339 48.3331 12.579 46.6942 11.3414 45.4566C10.1038 44.219 8.46486 43.4641 6.71994 43.3278V30.5363C8.46495 30.4 10.1039 29.6449 11.3415 28.4072C12.5791 27.1695 13.334 25.5305 13.4702 23.7855H22.8832V37.683C22.8833 37.7975 22.9185 37.9093 22.9841 38.0033C23.0497 38.0972 23.1425 38.1687 23.25 38.2083Z" fill="#F1ECF8"/>
<path d="M50.4101 19.26H37.0821C37.0169 18.8271 36.9111 18.4013 36.7662 17.9882C36.5726 17.5414 36.4841 17.0562 36.5075 16.5698C36.5949 16.3004 37.1039 15.9263 37.5155 15.6256C38.2317 15.0986 39.0443 14.5017 39.0443 13.6292C39.0443 12.7567 38.2323 12.1598 37.5161 11.6328C37.1067 11.3321 36.5977 10.9608 36.5081 10.6886C36.4841 10.2021 36.5724 9.71654 36.7662 9.26961C37.0406 8.39937 37.3262 7.49945 36.8295 6.82017C36.3328 6.14089 35.3808 6.12689 34.4624 6.11961C33.9836 6.16557 33.5006 6.1018 33.0501 5.93313C32.7567 5.56008 32.5509 5.12582 32.4481 4.66249C32.1681 3.82249 31.8556 2.87609 31.0391 2.61065C30.2517 2.35361 29.4907 2.89793 28.7549 3.42265C28.3828 3.75179 27.9391 3.98956 27.459 4.11705C26.979 3.98939 26.5353 3.75163 26.1632 3.42265C25.4279 2.89793 24.6663 2.35417 23.8789 2.61065C23.0625 2.87609 22.7477 3.82473 22.47 4.66193C22.3676 5.12549 22.1621 5.56001 21.8685 5.93313C21.418 6.10147 20.935 6.16524 20.4562 6.11961C19.5378 6.12633 18.5881 6.13361 18.0885 6.81961C17.589 7.50561 17.878 8.39937 18.1518 9.27017C18.3455 9.71695 18.434 10.2022 18.4105 10.6886C18.3232 10.958 17.8141 11.3321 17.4025 11.6328C16.6863 12.1598 15.8743 12.7567 15.8743 13.6292C15.8743 14.5017 16.6863 15.0986 17.4031 15.6256C17.8119 15.9263 18.3209 16.3004 18.4077 16.5698C18.4317 17.0561 18.3434 17.5415 18.1496 17.9882C18.0047 18.4013 17.8989 18.8271 17.8337 19.26H4.51303C3.91724 19.2607 3.34606 19.4978 2.92478 19.919C2.50349 20.3403 2.26649 20.9115 2.26575 21.5073V50.0673C2.26753 50.6621 2.5051 51.2319 2.92637 51.6518C3.34764 52.0717 3.91823 52.3074 4.51303 52.3073H50.4101C51.0048 52.3073 51.5752 52.0715 51.9964 51.6516C52.4175 51.2317 52.655 50.662 52.6568 50.0673V21.5073C52.656 20.9116 52.4191 20.3405 51.998 19.9192C51.5768 19.498 51.0058 19.2609 50.4101 19.26ZM18.0706 14.724C17.5929 14.3723 16.9988 13.9355 16.9988 13.6298C16.9988 13.324 17.5929 12.8872 18.0706 12.5355C18.6787 12.1866 19.1687 11.664 19.4779 11.0347C19.6036 10.3245 19.5147 9.593 19.2225 8.93361C19.0585 8.41393 18.8345 7.70161 18.9985 7.47761C19.1626 7.25361 19.9186 7.24241 20.4691 7.23849C21.1812 7.31336 21.8994 7.17373 22.5316 6.83753C23.0415 6.34335 23.3925 5.70831 23.5396 5.01361C23.7143 4.48665 23.9534 3.76537 24.2312 3.67521C24.2541 3.66826 24.2778 3.66486 24.3017 3.66513C24.75 3.79955 25.1648 4.02743 25.5186 4.33377C26.0629 4.82203 26.7408 5.13623 27.4652 5.23593C28.1882 5.13583 28.8647 4.82185 29.4078 4.33433C29.8457 4.02185 30.4449 3.59457 30.6958 3.67633C30.9758 3.76649 31.2133 4.48833 31.388 5.01473C31.5349 5.7095 31.8859 6.3446 32.396 6.83865C33.0282 7.17485 33.7464 7.31448 34.4585 7.23961C35.0089 7.24353 35.7621 7.24969 35.929 7.47873C36.0959 7.70777 35.8669 8.41337 35.705 8.93473C35.4131 9.59439 35.3242 10.326 35.4497 11.0364C35.759 11.6654 36.249 12.1877 36.8569 12.5366C37.3346 12.8883 37.9288 13.3251 37.9288 13.6309C37.9288 13.9366 37.3346 14.374 36.8564 14.7251C36.2487 15.0742 35.759 15.5965 35.4497 16.2254C35.3239 16.9355 35.4128 17.6671 35.705 18.3265C35.8691 18.8467 36.0931 19.5585 35.929 19.7825C35.7649 20.0065 35.0089 20.0177 34.459 20.0216C33.7468 19.9467 33.0283 20.0863 32.396 20.4226C31.8859 20.9166 31.5349 21.5517 31.388 22.2465C31.2133 22.7734 30.9741 23.4947 30.6964 23.5849C30.4416 23.6661 29.8463 23.2388 29.4084 22.9263C28.8641 22.4379 28.1862 22.1235 27.4618 22.0236C26.7373 22.1236 26.0592 22.438 25.5147 22.9263C25.0773 23.2388 24.4787 23.6683 24.2267 23.5849C23.9467 23.4947 23.7093 22.7729 23.5345 22.2465C23.3876 21.5517 23.0367 20.9166 22.5265 20.4226C21.8943 20.086 21.1758 19.9464 20.4635 20.0216C19.9136 20.0177 19.1604 20.0115 18.9935 19.7825C18.8266 19.5534 19.0557 18.8478 19.2175 18.3265C19.5094 17.667 19.5983 16.9356 19.4729 16.2254C19.1651 15.5965 18.6769 15.0742 18.0706 14.724ZM31.9967 23.7439V35.0167L27.888 30.1934C27.8338 30.1345 27.7679 30.0874 27.6945 30.0552C27.6212 30.023 27.5419 30.0064 27.4618 30.0064C27.3817 30.0064 27.3025 30.023 27.2291 30.0552C27.1558 30.0874 27.0899 30.1345 27.0357 30.1934L22.9264 35.0139V23.7439C23.0183 23.9504 23.1499 24.1367 23.3139 24.2923C23.4778 24.4479 23.6708 24.5696 23.8817 24.6506C24.0152 24.6938 24.1547 24.7157 24.295 24.7155C24.9916 24.6141 25.6426 24.3087 26.166 23.838C26.5382 23.5091 26.9819 23.2714 27.4618 23.1436C27.9418 23.2714 28.3854 23.5091 28.7577 23.838C29.4935 24.3627 30.2562 24.902 31.0419 24.6506C31.2528 24.5695 31.4457 24.4478 31.6095 24.2922C31.7733 24.1366 31.9049 23.9503 31.9967 23.7439ZM22.1726 37.0602C22.2802 37.0998 22.3973 37.1054 22.5081 37.0764C22.619 37.0474 22.7182 36.985 22.7925 36.8978L27.4613 31.4204L32.13 36.8978C32.2043 36.9852 32.3036 37.0476 32.4145 37.0768C32.5254 37.1059 32.6426 37.1003 32.7503 37.0606C32.8579 37.021 32.9507 36.9492 33.0163 36.8551C33.0818 36.761 33.1169 36.649 33.1167 36.5343V22.6374H42.5297C42.666 24.3823 43.421 26.0212 44.6586 27.2588C45.8962 28.4964 47.5351 29.2513 49.28 29.3876V42.1791C47.5351 42.3154 45.8962 43.0704 44.6586 44.308C43.421 45.5456 42.666 47.1844 42.5297 48.9294H12.3928C12.2565 47.1844 11.5016 45.5456 10.264 44.308C9.02636 43.0704 7.38747 42.3154 5.64255 42.1791V29.3876C7.38747 29.2513 9.02636 28.4964 10.264 27.2588C11.5016 26.0212 12.2565 24.3823 12.3928 22.6374H21.8058V36.5343C21.8058 36.649 21.8409 36.7609 21.9065 36.8549C21.9721 36.949 22.065 37.0206 22.1726 37.0602ZM51.5368 50.0639C51.5353 50.3617 51.4159 50.6467 51.2047 50.8566C50.9936 51.0665 50.7078 51.1842 50.4101 51.1839H4.51303C4.21518 51.1844 3.92929 51.0667 3.718 50.8568C3.5067 50.6469 3.38723 50.3618 3.38575 50.0639V21.5039C3.38604 21.205 3.50491 20.9185 3.71625 20.7071C3.92759 20.4958 4.21414 20.3769 4.51303 20.3766H18.0577C18.0701 20.3957 18.0773 20.4164 18.0908 20.4326C18.5897 21.1192 19.5395 21.1259 20.4579 21.1332C20.9135 21.1011 21.3711 21.1527 21.8081 21.2855V21.5118H11.8535C11.705 21.5118 11.5625 21.5708 11.4575 21.6758C11.3525 21.7808 11.2935 21.9232 11.2935 22.0718C11.2937 23.7196 10.6395 25.3 9.47486 26.4657C8.31021 27.6314 6.73036 28.287 5.08255 28.2883C4.93403 28.2883 4.79159 28.3473 4.68657 28.4523C4.58155 28.5574 4.52255 28.6998 4.52255 28.8483V42.7184C4.52255 42.8669 4.58155 43.0094 4.68657 43.1144C4.79159 43.2194 4.93403 43.2784 5.08255 43.2784C6.72939 43.2797 8.30839 43.9345 9.47289 45.099C10.6374 46.2635 11.2922 47.8425 11.2935 49.4894C11.2935 49.6379 11.3525 49.7803 11.4575 49.8853C11.5625 49.9904 11.705 50.0494 11.8535 50.0494H43.069C43.2175 50.0494 43.36 49.9904 43.465 49.8853C43.57 49.7803 43.629 49.6379 43.629 49.4894C43.6304 47.8425 44.2852 46.2635 45.4496 45.099C46.6141 43.9345 48.1931 43.2797 49.84 43.2784C49.9885 43.2784 50.1309 43.2194 50.236 43.1144C50.341 43.0094 50.4 42.8669 50.4 42.7184V28.8483C50.4 28.6998 50.341 28.5574 50.236 28.4523C50.1309 28.3473 49.9885 28.2883 49.84 28.2883C48.1931 28.287 46.6141 27.6322 45.4496 26.4677C44.2852 25.3032 43.6304 23.7242 43.629 22.0774C43.629 21.9288 43.57 21.7864 43.465 21.6814C43.36 21.5764 43.2175 21.5174 43.069 21.5174H33.1167V21.29C33.5531 21.1583 34.0099 21.107 34.4646 21.1388C35.383 21.1321 36.3322 21.1248 36.8317 20.4388C36.8452 20.4198 36.8525 20.3996 36.8648 20.3828H50.4101C50.7089 20.3832 50.9953 20.5022 51.2065 20.7135C51.4177 20.9248 51.5365 21.2113 51.5368 21.5101V50.0639ZM24.136 17.2983C24.0993 17.4109 24.0992 17.5322 24.1357 17.6448C24.1723 17.7574 24.2436 17.8556 24.3394 17.9251C24.4352 17.9947 24.5506 18.0321 24.669 18.032C24.7874 18.0318 24.9027 17.9942 24.9984 17.9244L27.4624 16.1324L29.9264 17.9244C30.0221 17.9939 30.1373 18.0314 30.2556 18.0314C30.3738 18.0315 30.4891 17.994 30.5848 17.9245C30.6805 17.855 30.7517 17.757 30.7882 17.6445C30.8248 17.532 30.8248 17.4108 30.7882 17.2983L29.8474 14.4037L32.3114 12.6145C32.4071 12.545 32.4783 12.4469 32.5149 12.3345C32.5514 12.222 32.5514 12.1008 32.5148 11.9883C32.4783 11.8759 32.407 11.7778 32.3113 11.7083C32.2157 11.6388 32.1004 11.6014 31.9821 11.6014H28.9341L27.9938 8.70737C27.957 8.59533 27.8857 8.49778 27.7902 8.42862C27.6947 8.35946 27.5798 8.32223 27.4618 8.32223C27.3439 8.32223 27.229 8.35946 27.1334 8.42862C27.0379 8.49778 26.9667 8.59533 26.9298 8.70737L25.9896 11.6014H22.9449C22.8266 11.6014 22.7114 11.6388 22.6157 11.7083C22.52 11.7778 22.4487 11.8759 22.4122 11.9883C22.3756 12.1008 22.3756 12.222 22.4122 12.3345C22.4487 12.4469 22.5199 12.545 22.6156 12.6145L25.0796 14.4065L24.136 17.2983ZM24.6669 12.7214H26.3939C26.5122 12.7214 26.6274 12.684 26.7231 12.6145C26.8187 12.545 26.8899 12.447 26.9265 12.3345L27.4601 10.6926L27.9938 12.3345C28.0304 12.447 28.1016 12.545 28.1972 12.6145C28.2929 12.684 28.4081 12.7214 28.5264 12.7214H30.2534L28.8534 13.7367C28.7577 13.8062 28.6864 13.9042 28.6498 14.0166C28.6132 14.1291 28.6131 14.2503 28.6496 14.3628L29.1838 16.0047L27.7838 14.99C27.6881 14.9204 27.5729 14.883 27.4545 14.883C27.3362 14.883 27.221 14.9204 27.1253 14.99L25.7353 16.0047L26.269 14.3628C26.3055 14.2503 26.3055 14.1291 26.2688 14.0166C26.2322 13.9042 26.1609 13.8062 26.0652 13.7367L24.6669 12.7214ZM27.4601 21.5493C29.0268 21.5501 30.5584 21.0862 31.8614 20.2164C33.1643 19.3466 34.1801 18.1099 34.7801 16.6628C35.3802 15.2157 35.5376 13.6231 35.2324 12.0865C34.9273 10.5499 34.1733 9.13829 33.0658 8.03025C31.9583 6.92222 30.5471 6.16751 29.0106 5.8616C27.4742 5.55568 25.8815 5.7123 24.4341 6.31163C22.9867 6.91097 21.7495 7.9261 20.879 9.22864C20.0086 10.5312 19.544 12.0626 19.544 13.6292C19.5465 15.7285 20.3814 17.7411 21.8655 19.2258C23.3497 20.7105 25.362 21.546 27.4613 21.5493H27.4601ZM27.4601 6.82913C28.8052 6.82835 30.1204 7.22651 31.2391 7.97324C32.3579 8.71997 33.2301 9.78173 33.7454 11.0242C34.2607 12.2667 34.3959 13.6341 34.134 14.9534C33.872 16.2728 33.2247 17.4848 32.2738 18.4362C31.323 19.3876 30.1113 20.0356 28.7921 20.2983C27.4729 20.561 26.1055 20.4266 24.8627 19.912C23.6199 19.3975 22.5577 18.5259 21.8103 17.4075C21.0629 16.2892 20.664 14.9743 20.664 13.6292C20.6667 11.8273 21.3836 10.0999 22.6578 8.82575C23.932 7.55159 25.6593 6.83459 27.4613 6.83193L27.4601 6.82913ZM16.4388 39.3718H38.4837C38.6323 39.3718 38.7747 39.4308 38.8797 39.5359C38.9847 39.6409 39.0438 39.7833 39.0438 39.9318C39.0438 40.0804 38.9847 40.2228 38.8797 40.3278C38.7747 40.4328 38.6323 40.4918 38.4837 40.4918H16.4388C16.2903 40.4918 16.1478 40.4328 16.0428 40.3278C15.9378 40.2228 15.8788 40.0804 15.8788 39.9318C15.8788 39.7833 15.9378 39.6409 16.0428 39.5359C16.1478 39.4308 16.2903 39.3718 16.4388 39.3718ZM31.976 43.7768H22.9449C22.7963 43.7768 22.6539 43.7178 22.5489 43.6128C22.4439 43.5078 22.3849 43.3653 22.3849 43.2168C22.3849 43.0683 22.4439 42.9258 22.5489 42.8208C22.6539 42.7158 22.7963 42.6568 22.9449 42.6568H31.976C32.1245 42.6568 32.2669 42.7158 32.372 42.8208C32.477 42.9258 32.536 43.0683 32.536 43.2168C32.536 43.3653 32.477 43.5078 32.372 43.6128C32.2669 43.7178 32.1245 43.7768 31.976 43.7768ZM39.0438 46.9223C39.0438 47.0709 38.9847 47.2133 38.8797 47.3183C38.7747 47.4233 38.6323 47.4823 38.4837 47.4823H32.5567C32.4082 47.4823 32.2657 47.4233 32.1607 47.3183C32.0557 47.2133 31.9967 47.0709 31.9967 46.9223C31.9967 46.7738 32.0557 46.6314 32.1607 46.5263C32.2657 46.4213 32.4082 46.3623 32.5567 46.3623H38.4837C38.6323 46.3623 38.7747 46.4213 38.8797 46.5263C38.9847 46.6314 39.0438 46.7738 39.0438 46.9223Z" fill="#753CBD"/>
</svg>
