<svg width="17" height="16" viewBox="0 0 17 16" fill="none" xmlns="http://www.w3.org/2000/svg">
<path d="M8.9541 16C6.83243 16 4.79742 15.1571 3.29726 13.6568C1.797 12.1565 0.954102 10.1217 0.954102 8C0.954102 5.87833 1.797 3.84332 3.29726 2.34315C4.79763 0.842902 6.83243 0 8.9541 0C11.0758 0 13.1108 0.842902 14.6109 2.34315C16.1112 3.84353 16.9541 5.87833 16.9541 8C16.9515 10.121 16.1079 12.1545 14.6081 13.654C13.1084 15.1538 11.0748 15.9974 8.9541 16ZM12.0392 5.94242V5.9423C12.1795 5.80678 12.2595 5.62063 12.2612 5.42558C12.2629 5.23053 12.1862 5.04292 12.0482 4.90496C11.9103 4.76701 11.7227 4.69031 11.5276 4.69202C11.3325 4.69372 11.1464 4.77371 11.0109 4.91397L8.9541 6.97149L6.89733 4.91397C6.71263 4.7356 6.44756 4.66779 6.1998 4.73572C5.95215 4.80366 5.7587 4.99713 5.69075 5.24477C5.62281 5.49254 5.69063 5.7576 5.869 5.9423L7.92577 7.99983L5.869 10.0573C5.72874 10.1929 5.64875 10.379 5.64704 10.5741C5.64534 10.7691 5.72204 10.9567 5.85999 11.0947C5.99794 11.2326 6.18555 11.3093 6.3806 11.3076C6.57565 11.3059 6.7618 11.2259 6.89732 11.0857L8.95409 9.02815L11.0109 11.0857C11.1464 11.2259 11.3325 11.3059 11.5276 11.3076C11.7226 11.3093 11.9102 11.2326 12.0482 11.0947C12.1862 10.9567 12.2629 10.7691 12.2611 10.5741C12.2594 10.379 12.1795 10.1929 12.0392 10.0573L9.98242 7.99983L12.0392 5.94242Z" fill="#E6E6E6"/>
</svg>
