<svg width="31" height="34" viewBox="0 0 31 34" fill="none" xmlns="http://www.w3.org/2000/svg">
<path d="M26.1363 12.2L20.8454 15.2545C20.8454 15.2 20.7909 15.0909 20.7909 15.0363L20.4636 14.2182L25.6454 11.2182C25.7 11.6 25.9181 11.9272 26.1363 12.2ZM10.5909 14.2182C10.4272 14.5454 10.2636 14.8727 10.1545 15.2545L4.80905 12.2C5.02724 11.9272 5.24542 11.6 5.35451 11.2182L10.5909 14.2182ZM5.35451 8.92724C5.24542 8.59997 5.02724 8.2727 4.80905 7.99997L12.3363 3.63633C12.4454 4.01815 12.6091 4.34542 12.7727 4.61815L5.35451 8.92724ZM2.29996 13.4545C2.4636 13.4545 2.68178 13.4545 2.84542 13.4V21.9636C2.68178 21.9091 2.4636 21.9091 2.29996 21.9091C2.13633 21.9091 1.91814 21.9091 1.75451 21.9636V13.4C1.91814 13.4 2.08178 13.4545 2.29996 13.4545ZM6.00905 26.8182C5.89996 27.1454 5.79087 27.5272 5.68178 27.9091L4.75451 27.3636C4.97269 27.0909 5.19087 26.7636 5.29996 26.4363L6.00905 26.8182ZM11.1363 20.8181L5.40905 24.1454C5.29996 23.7636 5.13633 23.4909 4.8636 23.1636L10.6454 19.8363L11.1363 20.8181ZM16.0454 6.03633V11.3272H14.9545V6.03633C15.1181 6.09088 15.3363 6.09088 15.5 6.09088C15.6636 6.09088 15.8818 6.09088 16.0454 6.03633ZM26.1909 7.99997C25.9727 8.2727 25.7545 8.59997 25.6454 8.92724L18.2272 4.6727C18.4454 4.39997 18.6091 4.01815 18.6636 3.69088L26.1909 7.99997ZM26.0818 23.1636C25.8636 23.4363 25.6454 23.7636 25.5363 24.1454L19.8636 20.8181L20.3545 19.8363L26.0818 23.1636ZM26.1909 27.3636L25.3181 27.9091C25.2636 27.5272 25.1545 27.2 24.9909 26.8182L25.6454 26.4363C25.7545 26.7636 25.9727 27.0909 26.1909 27.3636ZM29.2454 13.4V21.9636C29.0818 21.9091 28.8636 21.9091 28.7 21.9091C28.5363 21.9091 28.3181 21.9091 28.1545 21.9636V13.4C28.3181 13.4545 28.5363 13.4545 28.7 13.4545C28.8636 13.4545 29.0818 13.4 29.2454 13.4ZM4.53633 25.2363C4.53633 26.4909 3.55451 27.4727 2.29996 27.4727C1.09996 27.4727 0.0635986 26.4909 0.0635986 25.2363C0.0635986 24.0363 1.04542 23 2.29996 23C3.55451 23 4.53633 24.0363 4.53633 25.2363ZM4.53633 10.1272C4.53633 11.3272 3.55451 12.3636 2.29996 12.3636C1.09996 12.3636 0.0635986 11.3818 0.0635986 10.1272C0.0635986 8.92724 1.04542 7.89088 2.29996 7.89088C3.49996 7.94542 4.53633 8.92724 4.53633 10.1272ZM17.7363 2.81815C17.7363 4.01815 16.7545 5.05451 15.5 5.05451C14.2454 5.05451 13.2636 4.0727 13.2636 2.81815C13.2636 1.61815 14.2454 0.581787 15.5 0.581787C16.7 0.581787 17.7363 1.56361 17.7363 2.81815ZM30.9363 10.1272C30.9363 11.3272 29.9545 12.3636 28.7 12.3636C27.4454 12.3636 26.4636 11.3818 26.4636 10.1272C26.4636 8.92724 27.4454 7.89088 28.7 7.89088C29.9 7.94542 30.9363 8.92724 30.9363 10.1272ZM30.9363 25.2363C30.9363 26.4363 29.9545 27.4727 28.7 27.4727C27.5 27.4727 26.4636 26.4909 26.4636 25.2363C26.4636 24.0363 27.4454 23 28.7 23C29.9 23 30.9363 23.9818 30.9363 25.2363ZM11.0818 16.7818C11.0818 14.3272 13.0454 12.3636 15.5 12.3636C17.4091 12.3636 19.1 13.5636 19.7 15.3636C20.2454 16.8909 19.7545 19.1272 18.5545 20.7636C17.6818 22.0182 16.5909 22.7272 15.5 22.7272C12.9909 22.7272 11.0818 19.1272 11.0818 16.7818ZM24.3363 29.3818V32.9272C24.3363 33.2545 24.0636 33.4727 23.7909 33.4727H7.20905C6.88178 33.4727 6.6636 33.2545 6.6636 32.9272V29.3818C6.6636 26.1091 9.22724 23.3818 12.4454 23.1636H18.5545C21.8272 23.3818 24.3363 26.1091 24.3363 29.3818Z" fill="white"/>
</svg>
