<svg width="24" height="28" viewBox="0 0 24 28" fill="none" xmlns="http://www.w3.org/2000/svg">
<path d="M1.33133 0.666748C0.596653 0.666748 0 1.25881 0 1.98915V26.011C0 26.7263 0.593013 27.3334 1.32453 27.3334H22.6755C23.4068 27.3334 24 26.7319 24 25.9901L23.9996 7.33341L17.3333 0.666748H1.33133ZM10 8.00008H12.6667C12.6667 11.32 15.5248 14.8806 19.0883 16.0685L18.4781 18.6534C14.2979 18.0562 9.97613 19.8406 6.07293 22.4429L4.5004 20.2922C5.94865 19.1337 7.33724 17.1677 8.36665 14.8713C9.3924 12.5831 10 10.1034 10 8.00008ZM10.8 15.9622C11.1564 15.167 11.4724 14.3418 11.7383 13.5047C12.3672 14.4709 13.1404 15.3577 14.0136 16.1271C12.7045 16.3615 11.4221 16.7462 10.1804 17.2369C10.4 16.8191 10.6068 16.3931 10.8 15.9622Z" fill="#753CBD"/>
</svg>
