<svg width="32" height="33" viewBox="0 0 32 33" fill="none" xmlns="http://www.w3.org/2000/svg">
<circle cx="16" cy="16.5" r="16" fill="#753CBD"/>
<g clip-path="url(#clip0_13_2440)">
<path d="M27.8682 16.0908C27.6539 15.7912 22.5469 8.7655 16.0471 8.7655C9.54689 8.7655 4.34606 15.7912 4.13184 16.0908C4.04612 16.21 4 16.3531 4 16.5C4 16.6468 4.04612 16.79 4.13184 16.9092C4.34606 17.2087 9.54689 24.2344 16.0471 24.2344C22.5469 24.2344 27.6539 17.2087 27.8682 16.9091C27.9539 16.7899 28 16.6468 28 16.4999C28 16.3531 27.9539 16.21 27.8682 16.0908ZM16.0471 21.4218C13.3335 21.4218 11.0315 19.2136 11.0315 16.4999C11.0315 13.7863 13.3335 11.578 16.0471 11.578C18.7608 11.578 20.9691 13.7863 20.9691 16.4999C20.9691 19.2136 18.7608 21.4218 16.0471 21.4218Z" fill="white"/>
<path d="M16.0471 14.3905C14.8837 14.3905 13.844 15.3369 13.844 16.4999C13.844 17.6633 14.8837 18.6093 16.0471 18.6093C17.2101 18.6093 18.1565 17.6633 18.1565 16.4999C18.1565 15.3369 17.2101 14.3905 16.0471 14.3905Z" fill="white"/>
</g>
<defs>
<clipPath id="clip0_13_2440">
<rect width="24" height="24" fill="white" transform="translate(4 4.5)"/>
</clipPath>
</defs>
</svg>
