<svg width="40" height="41" viewBox="0 0 40 41" fill="none" xmlns="http://www.w3.org/2000/svg">
<path d="M6.66417 3.8335C5.74582 3.8335 5 4.57358 5 5.4865V35.5138C5 36.408 5.74127 37.1668 6.65567 37.1668H33.3443C34.2585 37.1668 35 36.415 35 35.4877L34.9995 12.1668L26.6667 3.8335H6.66417ZM17.5 13.0002H20.8333C20.8333 17.1501 24.406 21.6008 28.8603 23.0857L28.0977 26.3168C22.8723 25.5703 17.4702 27.8008 12.5912 31.0537L10.6255 28.3653C12.4358 26.9172 14.1715 24.4597 15.4583 21.5892C16.7405 18.729 17.5 15.6293 17.5 13.0002ZM18.5 22.9528C18.9455 21.9588 19.3405 20.9273 19.6728 19.881C20.459 21.0887 21.4255 22.1972 22.517 23.159C20.8807 23.452 19.2777 23.9328 17.7255 24.5462C18 24.024 18.2585 23.4915 18.5 22.9528Z" fill="#A37CD3"/>
</svg>
