<svg width="48" height="49" viewBox="0 0 48 49" fill="none" xmlns="http://www.w3.org/2000/svg">
<rect x="0.25" y="0.75" width="47.5" height="47.5" rx="23.75" fill="#753CBD" stroke="#9163CA" stroke-width="0.5"/>
<path d="M29 16.7847C32.3137 16.7847 35 19.471 35 22.7847V26.7847C35 30.0984 32.3137 32.7847 29 32.7847H19C15.6863 32.7847 13 30.0984 13 26.7847V22.7847C13 19.471 15.6863 16.7847 19 16.7847H29ZM22 21.7847H20V23.7847H18V25.7847H19.999L20 27.7847H22L21.999 25.7847H24V23.7847H22V21.7847ZM30 25.7847H28V27.7847H30V25.7847ZM28 21.7847H26V23.7847H28V21.7847Z" fill="white"/>
</svg>
