<svg width="101" height="95" viewBox="0 0 101 95" fill="none" xmlns="http://www.w3.org/2000/svg">
<path d="M48.3135 2.7264C49.832 1.90446 51.6629 1.90446 53.1814 2.7264L90.5235 22.9384C92.1743 23.8319 93.2028 25.5581 93.2028 27.4352V67.2215C93.2028 69.0986 92.1743 70.8248 90.5235 71.7183L53.1814 91.9303C51.6629 92.7523 49.832 92.7523 48.3135 91.9303L10.9714 71.7183C9.32063 70.8248 8.29213 69.0986 8.29213 67.2215V27.4352C8.29213 25.5581 9.32063 23.8319 10.9714 22.9384L48.3135 2.7264Z" fill="#928F95" stroke="#928F95" stroke-width="1.46094"/>
<g clip-path="url(#clip0_2034_6232)">
<path d="M59.548 31.5784H47.5476L42.7491 48.8554H47.5574L43.4691 63.5784H44.9093L58.827 46.3007H51.7764L59.548 31.5784Z" fill="white"/>
</g>
<defs>
<clipPath id="clip0_2034_6232">
<rect width="32" height="32" fill="white" transform="translate(35.1484 31.5784)"/>
</clipPath>
</defs>
</svg>
