<svg width="100" height="95" viewBox="0 0 100 95" fill="none" xmlns="http://www.w3.org/2000/svg">
<path d="M47.5802 2.7264C49.0987 1.90446 50.9295 1.90446 52.4481 2.7264L89.7901 22.9384C91.4409 23.8319 92.4695 25.5581 92.4695 27.4352V67.2215C92.4695 69.0986 91.4409 70.8248 89.7901 71.7183L52.4481 91.9303C50.9295 92.7523 49.0987 92.7523 47.5801 91.9303L10.2381 71.7183C8.5873 70.8248 7.5588 69.0986 7.5588 67.2215V27.4352C7.5588 25.5581 8.5873 23.8319 10.2381 22.9384L47.5802 2.7264Z" fill="#753CBD" stroke="#753CBD" stroke-width="1.46094"/>
<path d="M42.2141 42.3117C40.4685 44.0577 39.4856 46.424 39.4806 48.8929C39.4756 51.3618 40.4489 53.7321 42.1875 55.4851C44.1475 50.9517 47.6408 47.1651 52.0008 44.9117C48.2376 48.096 45.6972 52.4885 44.8141 57.3384C48.2808 58.9784 52.5475 58.3784 55.4141 55.5117C60.0541 50.8717 60.8141 36.9117 60.8141 36.9117C60.8141 36.9117 46.8541 37.6717 42.2141 42.3117Z" fill="white"/>
</svg>
