<svg width="24" height="25" viewBox="0 0 24 25" fill="none" xmlns="http://www.w3.org/2000/svg">
<path d="M18.3362 19.2704H15.6707V15.0936C15.6707 14.0976 15.6505 12.8159 14.2817 12.8159C12.892 12.8159 12.6797 13.8997 12.6797 15.0201V19.2704H10.0142V10.6814H12.5747V11.8521H12.6092C12.967 11.1771 13.837 10.4646 15.1367 10.4646C17.8375 10.4646 18.337 12.2422 18.337 14.5559L18.3362 19.2704ZM7.00373 9.50615C6.14573 9.50615 5.45648 8.81165 5.45648 7.9574C5.45648 7.1039 6.14648 6.41015 7.00373 6.41015C7.85873 6.41015 8.55173 7.1039 8.55173 7.9574C8.55173 8.81165 7.85798 9.50615 7.00373 9.50615ZM8.34023 19.2704H5.66723V10.6814H8.34023V19.2704ZM19.6697 3.9314H4.32923C3.59498 3.9314 3.00098 4.5119 3.00098 5.22815V20.6347C3.00098 21.3516 3.59498 21.9314 4.32923 21.9314H19.6675C20.401 21.9314 21.001 21.3516 21.001 20.6347V5.22815C21.001 4.5119 20.401 3.9314 19.6675 3.9314H19.6697Z" fill="#FAF9FA"/>
</svg>
