<svg width="48" height="49" viewBox="0 0 48 49" fill="none" xmlns="http://www.w3.org/2000/svg">
<rect x="0.25" y="0.75" width="47.5" height="47.5" rx="23.75" fill="#753CBD" stroke="#9163CA" stroke-width="0.5"/>
<g clip-path="url(#clip0_2061_1919)">
<path d="M34.4082 30.7615L24.3442 36.4099C24.2391 36.4689 24.1206 36.4999 24.0001 36.4999C23.8796 36.4999 23.7611 36.4689 23.6561 36.4099L13.592 30.7615C13.1134 30.4933 13.1143 29.8029 13.592 29.5352L16.0951 28.1304L22.9679 31.9877C23.2832 32.1647 23.6386 32.2576 24.0001 32.2576C24.3616 32.2576 24.7171 32.1647 25.0323 31.9877L31.9051 28.1304L34.4082 29.5352C34.8868 29.8033 34.8859 30.4938 34.4082 30.7615Z" fill="#F8F8F8"/>
<path d="M34.4082 23.8868L31.9051 22.4819L25.0323 26.3393C24.717 26.5162 24.3616 26.6091 24.0001 26.6091C23.6386 26.6091 23.2832 26.5162 22.9679 26.3393L16.0951 22.4819L13.592 23.8868C13.1143 24.1544 13.1134 24.8449 13.592 25.113L23.6561 30.7615C23.7611 30.8205 23.8796 30.8515 24.0001 30.8515C24.1206 30.8515 24.2391 30.8205 24.3442 30.7615L34.4082 25.113C34.8859 24.8454 34.8868 24.1549 34.4082 23.8868ZM17.7845 26.0383C17.3959 26.0383 17.0814 25.7233 17.0814 25.3352C17.0814 24.9466 17.3959 24.6321 17.7845 24.6321C18.1726 24.6321 18.4876 24.9466 18.4876 25.3352C18.4876 25.7233 18.1726 26.0383 17.7845 26.0383ZM20.7784 27.7797C20.3898 27.7797 20.0753 27.4647 20.0753 27.0766C20.0753 26.688 20.3898 26.3735 20.7784 26.3735C21.1665 26.3735 21.4815 26.688 21.4815 27.0766C21.4815 27.4647 21.1665 27.7797 20.7784 27.7797ZM24.0001 29.411C23.612 29.411 23.297 29.0965 23.297 28.7079C23.297 28.3197 23.612 28.0047 24.0001 28.0047C24.3882 28.0047 24.7032 28.3197 24.7032 28.7079C24.7032 29.0965 24.3882 29.411 24.0001 29.411ZM27.2218 27.7797C26.8337 27.7797 26.5187 27.4647 26.5187 27.0766C26.5187 26.688 26.8337 26.3735 27.2218 26.3735C27.6104 26.3735 27.925 26.688 27.925 27.0766C27.925 27.4647 27.6104 27.7797 27.2218 27.7797ZM30.2157 26.0383C29.8276 26.0383 29.5126 25.7233 29.5126 25.3352C29.5126 24.9466 29.8276 24.6321 30.2157 24.6321C30.6043 24.6321 30.9189 24.9466 30.9189 25.3352C30.9189 25.7233 30.6043 26.0383 30.2157 26.0383Z" fill="#F8F8F8"/>
<path d="M34.4082 19.4647L24.3442 25.1131C24.2391 25.1721 24.1206 25.2031 24.0001 25.2031C23.8796 25.2031 23.7611 25.1721 23.6561 25.1131L13.592 19.4647C13.1134 19.1966 13.1143 18.5061 13.592 18.2384L23.6561 12.59C23.7611 12.531 23.8796 12.5 24.0001 12.5C24.1206 12.5 24.2391 12.531 24.3442 12.59L34.4082 18.2384C34.8868 18.5066 34.8859 19.197 34.4082 19.4647Z" fill="#F8F8F8"/>
</g>
<defs>
<clipPath id="clip0_2061_1919">
<rect width="24" height="24" fill="white" transform="translate(12 12.5)"/>
</clipPath>
</defs>
</svg>
