<svg width="15" height="4" viewBox="0 0 15 4" fill="none" xmlns="http://www.w3.org/2000/svg">
<path fill-rule="evenodd" clip-rule="evenodd" d="M13.5019 1.57159C13.5019 1.33486 13.31 1.14295 13.0732 1.14295H12.216C11.9792 1.14295 11.7873 1.33486 11.7873 1.57159V2.42886C11.7873 2.66559 11.9792 2.8575 12.216 2.8575H13.0732C13.31 2.8575 13.5019 2.66559 13.5019 2.42886V1.57159ZM14.3588 1.57156V2.42883C14.3588 3.13903 13.7831 3.71475 13.0729 3.71475H12.2156C11.5054 3.71475 10.9297 3.13903 10.9297 2.42883V1.57156C10.9297 0.861368 11.5054 0.285645 12.2156 0.285645H13.0729C13.7831 0.285645 14.3588 0.861368 14.3588 1.57156ZM8.35908 1.57158C8.35908 1.33485 8.16718 1.14294 7.93045 1.14294H7.07317C6.83644 1.14294 6.64453 1.33485 6.64453 1.57158V2.42886C6.64453 2.66559 6.83644 2.8575 7.07317 2.8575H7.93045C8.16718 2.8575 8.35908 2.66559 8.35908 2.42886V1.57158ZM9.21426 1.57156V2.42883C9.21426 3.13903 8.63854 3.71475 7.92835 3.71475H7.07107C6.36088 3.71475 5.78516 3.13903 5.78516 2.42883V1.57156C5.78516 0.861368 6.36088 0.285645 7.07107 0.285645H7.92835C8.63854 0.285645 9.21426 0.861368 9.21426 1.57156ZM3.21455 1.57158C3.21455 1.33485 3.02264 1.14294 2.78591 1.14294H1.92864C1.69191 1.14294 1.5 1.33485 1.5 1.57158V2.42886C1.5 2.66559 1.69191 2.8575 1.92864 2.8575H2.78591C3.02264 2.8575 3.21455 2.66559 3.21455 2.42886V1.57158ZM4.07168 1.57156V2.42883C4.07168 3.13903 3.49596 3.71475 2.78577 3.71475H1.92849C1.2183 3.71475 0.642578 3.13903 0.642578 2.42883V1.57156C0.642578 0.861368 1.2183 0.285645 1.92849 0.285645H2.78577C3.49596 0.285645 4.07168 0.861368 4.07168 1.57156Z" fill="#753CBD"/>
</svg>
