<svg width="13" height="13" viewBox="0 0 13 13" fill="none" xmlns="http://www.w3.org/2000/svg">
<path fill-rule="evenodd" clip-rule="evenodd" d="M6.49415 12.9968C2.90891 12.9968 -0.00848389 10.0794 -0.00848389 6.49415C-0.00848389 2.90891 2.90891 -0.00848389 6.49415 -0.00848389C10.0794 -0.00848389 12.9968 2.90891 12.9968 6.49415C12.9968 10.0794 10.0794 12.9968 6.49415 12.9968Z" fill="#FFC107"/>
<path fill-rule="evenodd" clip-rule="evenodd" d="M8.69685 10.1848C8.6617 10.1848 8.62655 10.1848 8.5914 10.1614L6.49416 9.35297L4.40863 10.1614C4.3149 10.2083 4.19773 10.1848 4.11572 10.1263C4.0337 10.0677 3.98684 9.97394 3.99855 9.86849L4.12743 7.63065L2.69802 5.89661C2.63944 5.8146 2.61601 5.70915 2.65116 5.6037C2.68631 5.50997 2.75661 5.42796 2.86205 5.40452L5.0296 4.84213L6.24811 2.94407C6.29498 2.86205 6.40043 2.81519 6.49416 2.81519C6.59961 2.81519 6.69334 2.86205 6.75192 2.94407L7.97043 4.84213L10.138 5.40452C10.2317 5.42796 10.3137 5.50997 10.3489 5.6037C10.384 5.70915 10.3606 5.8146 10.2903 5.89661L8.8726 7.63065L9.00148 9.86849C9.00148 9.97394 8.95461 10.0677 8.8726 10.1263C8.82573 10.1731 8.75543 10.1848 8.69685 10.1848Z" fill="white"/>
</svg>
