<svg width="242" height="36" viewBox="0 0 242 36" fill="none" xmlns="http://www.w3.org/2000/svg">
<path d="M18.5 2.3999L23.5 12.3999L34.5 14.3999L26.5 22.3999L28.5 33.3999L18.5 28.3999L8.5 33.3999L10.5 22.3999L2.5 14.3999L13.5 12.3999L18.5 2.3999Z" fill="#E7B66B"/>
<path d="M18.5 2.3999L23.5 12.3999L34.5 14.3999L26.5 22.3999L28.5 33.3999L18.5 28.3999L8.5 33.3999L10.5 22.3999L2.5 14.3999L13.5 12.3999L18.5 2.3999Z" stroke="#E7B66B" stroke-width="3.2" stroke-linecap="round" stroke-linejoin="round"/>
<path d="M69.5 2.19995L74.5 12.2L85.5 14.2L77.5 22.2L79.5 33.2L69.5 28.2L59.5 33.2L61.5 22.2L53.5 14.2L64.5 12.2L69.5 2.19995Z" fill="#E7B66B"/>
<path d="M69.5 2.19995L74.5 12.2L85.5 14.2L77.5 22.2L79.5 33.2L69.5 28.2L59.5 33.2L61.5 22.2L53.5 14.2L64.5 12.2L69.5 2.19995Z" stroke="#E7B66B" stroke-width="3.2" stroke-linecap="round" stroke-linejoin="round"/>
<path d="M120.5 3L125.5 13L136.5 15L128.5 23L130.5 34L120.5 29L110.5 34L112.5 23L104.5 15L115.5 13L120.5 3Z" fill="#E7B66B"/>
<path d="M120.5 3L125.5 13L136.5 15L128.5 23L130.5 34L120.5 29L110.5 34L112.5 23L104.5 15L115.5 13L120.5 3Z" stroke="#E7B66B" stroke-width="3.2" stroke-linecap="round" stroke-linejoin="round"/>
<path d="M172.5 3L177.5 13L188.5 15L180.5 23L182.5 34L172.5 29L162.5 34L164.5 23L156.5 15L167.5 13L172.5 3Z" fill="#E7B66B"/>
<path d="M172.5 3L177.5 13L188.5 15L180.5 23L182.5 34L172.5 29L162.5 34L164.5 23L156.5 15L167.5 13L172.5 3Z" stroke="#E7B66B" stroke-width="3.2" stroke-linecap="round" stroke-linejoin="round"/>
<path d="M223.5 3L228.5 13L239.5 15L231.5 23L233.5 34L223.5 29L213.5 34L215.5 23L207.5 15L218.5 13L223.5 3Z" fill="#E7B66B"/>
<path d="M223.5 3L228.5 13L239.5 15L231.5 23L233.5 34L223.5 29L213.5 34L215.5 23L207.5 15L218.5 13L223.5 3Z" stroke="#E7B66B" stroke-width="3.2" stroke-linecap="round" stroke-linejoin="round"/>
<path d="M226.5 13L239.5 15L231.5 23L233.5 34L229.5 32L226.5 30V28V23V18V13Z" fill="white"/>
</svg>
