<svg width="140" height="29" viewBox="0 0 140 29" fill="none" xmlns="http://www.w3.org/2000/svg">
<path d="M13.0489 3.42705C13.3483 2.50574 14.6517 2.50574 14.9511 3.42705L16.9187 9.48278C17.0526 9.8948 17.4365 10.1738 17.8697 10.1738H24.2371C25.2058 10.1738 25.6086 11.4134 24.8249 11.9828L19.6736 15.7254C19.3231 15.9801 19.1764 16.4314 19.3103 16.8435L21.2779 22.8992C21.5773 23.8205 20.5228 24.5866 19.7391 24.0172L14.5878 20.2746C14.2373 20.0199 13.7627 20.0199 13.4122 20.2746L8.2609 24.0172C7.47719 24.5866 6.42271 23.8205 6.72206 22.8992L8.68969 16.8435C8.82356 16.4314 8.6769 15.9801 8.32642 15.7254L3.17511 11.9828C2.39139 11.4134 2.79417 10.1738 3.76289 10.1738H10.1303C10.5635 10.1738 10.9474 9.8948 11.0813 9.48278L13.0489 3.42705Z" fill="#F7871B"/>
<path d="M41.0489 3.42705C41.3483 2.50574 42.6517 2.50574 42.9511 3.42705L44.9187 9.48278C45.0526 9.8948 45.4365 10.1738 45.8697 10.1738H52.2371C53.2058 10.1738 53.6086 11.4134 52.8249 11.9828L47.6736 15.7254C47.3231 15.9801 47.1764 16.4314 47.3103 16.8435L49.2779 22.8992C49.5773 23.8205 48.5228 24.5866 47.7391 24.0172L42.5878 20.2746C42.2373 20.0199 41.7627 20.0199 41.4122 20.2746L36.2609 24.0172C35.4772 24.5866 34.4227 23.8205 34.7221 22.8992L36.6897 16.8435C36.8236 16.4314 36.6769 15.9801 36.3264 15.7254L31.1751 11.9828C30.3914 11.4134 30.7942 10.1738 31.7629 10.1738H38.1303C38.5635 10.1738 38.9474 9.8948 39.0813 9.48278L41.0489 3.42705Z" fill="#F7871B"/>
<path d="M69.0489 3.42705C69.3483 2.50574 70.6517 2.50574 70.9511 3.42705L72.9187 9.48278C73.0526 9.8948 73.4365 10.1738 73.8697 10.1738H80.2371C81.2058 10.1738 81.6086 11.4134 80.8249 11.9828L75.6736 15.7254C75.3231 15.9801 75.1764 16.4314 75.3103 16.8435L77.2779 22.8992C77.5773 23.8205 76.5228 24.5866 75.7391 24.0172L70.5878 20.2746C70.2373 20.0199 69.7627 20.0199 69.4122 20.2746L64.2609 24.0172C63.4772 24.5866 62.4227 23.8205 62.7221 22.8992L64.6897 16.8435C64.8236 16.4314 64.6769 15.9801 64.3264 15.7254L59.1751 11.9828C58.3914 11.4134 58.7942 10.1738 59.7629 10.1738H66.1303C66.5635 10.1738 66.9474 9.8948 67.0813 9.48278L69.0489 3.42705Z" fill="#F7871B"/>
<path d="M97.0489 3.42705C97.3483 2.50574 98.6517 2.50574 98.9511 3.42705L100.919 9.48278C101.053 9.8948 101.437 10.1738 101.87 10.1738H108.237C109.206 10.1738 109.609 11.4134 108.825 11.9828L103.674 15.7254C103.323 15.9801 103.176 16.4314 103.31 16.8435L105.278 22.8992C105.577 23.8205 104.523 24.5866 103.739 24.0172L98.5878 20.2746C98.2373 20.0199 97.7627 20.0199 97.4122 20.2746L92.2609 24.0172C91.4772 24.5866 90.4227 23.8205 90.7221 22.8992L92.6897 16.8435C92.8236 16.4314 92.6769 15.9801 92.3264 15.7254L87.1751 11.9828C86.3914 11.4134 86.7942 10.1738 87.7629 10.1738H94.1303C94.5635 10.1738 94.9474 9.8948 95.0813 9.48278L97.0489 3.42705Z" fill="#F7871B"/>
<path d="M125.049 3.42705C125.348 2.50574 126.652 2.50574 126.951 3.42705L128.919 9.48278C129.053 9.8948 129.437 10.1738 129.87 10.1738H136.237C137.206 10.1738 137.609 11.4134 136.825 11.9828L131.674 15.7254C131.323 15.9801 131.176 16.4314 131.31 16.8435L133.278 22.8992C133.577 23.8205 132.523 24.5866 131.739 24.0172L126.588 20.2746C126.237 20.0199 125.763 20.0199 125.412 20.2746L120.261 24.0172C119.477 24.5866 118.423 23.8205 118.722 22.8992L120.69 16.8435C120.824 16.4314 120.677 15.9801 120.326 15.7254L115.175 11.9828C114.391 11.4134 114.794 10.1738 115.763 10.1738H122.13C122.563 10.1738 122.947 9.8948 123.081 9.48278L125.049 3.42705Z" fill="#F7871B"/>
</svg>
