<svg width="70" height="70" viewBox="0 0 70 70" fill="none" xmlns="http://www.w3.org/2000/svg">
<path fill-rule="evenodd" clip-rule="evenodd" d="M35.1098 6.41357L64.5007 28.6244L53.2735 64.5703H16.9553L5.72803 28.6244L35.1098 6.41357Z" fill="url(#paint0_radial_13_2542)"/>
<path fill-rule="evenodd" clip-rule="evenodd" d="M35.1095 1.21094L52.1731 14.1136L69.2367 27.0163L62.7185 47.8934L56.2004 68.7704H14.0185L7.50036 47.8934L0.982178 27.0163L18.0458 14.1136L35.1095 1.21094ZM35.1095 8.4285L62.6549 29.2488L52.1367 62.9434H18.0913L7.57309 29.2488L35.1185 8.4285H35.1095Z" fill="#808080"/>
<path fill-rule="evenodd" clip-rule="evenodd" d="M4.27309 28.1326C9.40945 24.2448 14.5549 20.3569 19.6913 16.4786C24.8276 12.5907 29.9731 8.70289 35.1095 4.82451V1.22046L18.0458 14.1232L0.982178 27.0259L4.28218 28.1421L4.27309 28.1326Z" fill="url(#paint1_radial_13_2542)"/>
<path fill-rule="evenodd" clip-rule="evenodd" d="M19.692 16.4785C14.5556 20.3664 9.41017 24.2542 4.2738 28.1326L7.5738 29.2488L35.1193 8.42852V4.82446C29.9829 8.7123 24.8374 12.6001 19.7011 16.4785H19.692Z" fill="url(#paint2_radial_13_2542)"/>
<path fill-rule="evenodd" clip-rule="evenodd" d="M35.1101 8.42852L62.6556 29.2488L65.9556 28.1326C60.8192 24.2447 55.6737 20.3569 50.5374 16.4785C45.401 12.5907 40.2556 8.70284 35.1192 4.82446V8.42852H35.1101Z" fill="url(#paint3_radial_13_2542)"/>
<path fill-rule="evenodd" clip-rule="evenodd" d="M35.1101 4.82445C40.2465 8.71229 45.3919 12.6001 50.5283 16.4785C55.6647 20.3663 60.8101 24.2542 65.9465 28.1326L69.2465 27.0163L52.1828 14.1136L35.1192 1.21094V4.81499L35.1101 4.82445Z" fill="url(#paint4_radial_13_2542)"/>
<path fill-rule="evenodd" clip-rule="evenodd" d="M62.6542 29.2488L52.136 62.9434L54.1723 65.8569C56.136 59.5664 58.0996 53.2853 60.0633 46.9947C62.0269 40.7042 63.9905 34.4231 65.9542 28.1326L62.6542 29.2488Z" fill="url(#paint5_radial_13_2542)"/>
<path fill-rule="evenodd" clip-rule="evenodd" d="M65.9458 28.1326C63.9821 34.4231 62.0185 40.7042 60.0548 46.9947C58.0912 53.2853 56.1276 59.5664 54.1639 65.8569L56.2003 68.7704L62.7185 47.8934L69.2367 27.0164L65.9367 28.1326H65.9458Z" fill="url(#paint6_radial_13_2542)"/>
<path fill-rule="evenodd" clip-rule="evenodd" d="M52.1366 62.9434H18.0912L16.0548 65.8569H54.173L52.1366 62.9434Z" fill="url(#paint7_radial_13_2542)"/>
<path fill-rule="evenodd" clip-rule="evenodd" d="M54.1726 65.8569H16.0544L14.0181 68.7704H56.209L54.1726 65.8569Z" fill="url(#paint8_radial_13_2542)"/>
<path fill-rule="evenodd" clip-rule="evenodd" d="M18.092 62.9434L7.5738 29.2488L4.2738 28.1326C6.23744 34.4231 8.20108 40.7042 10.1647 46.9947C12.1283 53.2853 14.092 59.5664 16.0556 65.8569L18.092 62.9434Z" fill="url(#paint9_radial_13_2542)"/>
<path fill-rule="evenodd" clip-rule="evenodd" d="M16.0548 65.8569C14.0912 59.5664 12.1276 53.2853 10.1639 46.9947C8.2003 40.7042 6.23666 34.4231 4.27302 28.1326L0.973022 27.0164L7.4912 47.8934L14.0094 68.7704L16.0457 65.8569H16.0548Z" fill="url(#paint10_radial_13_2542)"/>
<path style="mix-blend-mode:screen" fill-rule="evenodd" clip-rule="evenodd" d="M25.7372 25.134C20.7099 28.9367 15.3736 30.8759 11.6554 30.5921C10.1917 30.4786 8.47355 29.4191 10.8463 27.6313L32.6281 11.1624C35.0008 9.37453 35.4372 11.3989 35.0826 12.884C34.1917 16.6583 30.7645 21.3313 25.7372 25.134Z" fill="url(#paint11_radial_13_2542)"/>
<path style="mix-blend-mode:screen" fill-rule="evenodd" clip-rule="evenodd" d="M43.7372 11.3421L35.3918 4.52178L35.1099 2.14746L34.7463 4.55016L16.4827 18.9002L35.1099 5.46773L43.7372 11.3421Z" fill="url(#paint12_radial_13_2542)"/>
<path style="mix-blend-mode:screen" fill-rule="evenodd" clip-rule="evenodd" d="M15.5821 19.5813L4.10027 27.7164L1.72754 27.2718L3.93663 28.3691L11.9912 52.8408L5.00027 28.3786L15.5821 19.5813Z" fill="url(#paint13_radial_13_2542)"/>
<path style="mix-blend-mode:screen" fill-rule="evenodd" clip-rule="evenodd" d="M22.2 65.857L53.5909 65.0245L59.7363 48.0259L54.6363 65.9894L55.7636 68.1462L54.0636 66.3394L22.2 65.857Z" fill="url(#paint14_radial_13_2542)"/>
<path style="mix-blend-mode:multiply" fill-rule="evenodd" clip-rule="evenodd" d="M32.5094 12.1081C34.4912 10.8973 35.7276 10.8973 37.7185 12.1081C43.8003 15.8257 53.264 23.4027 58.2549 28.2933C60.264 30.2608 61.064 31.9162 61.2912 33.6095L62.6549 29.2392L35.1094 8.41895L7.56396 29.2392L8.9276 33.6095C9.15487 31.9162 9.95487 30.2608 11.964 28.2933C16.9549 23.4027 26.4185 15.8162 32.5003 12.1081H32.5094Z" fill="url(#paint15_radial_13_2542)"/>
<path fill-rule="evenodd" clip-rule="evenodd" d="M35.1085 17.4907L41.0813 30.015L54.3722 32.0488L44.7722 41.8299L47.0176 55.6029L35.1085 49.1326L23.2085 55.6029L25.454 41.8299L15.854 32.0488L29.1449 30.015L35.1085 17.4907Z" fill="#B05B00"/>
<path fill-rule="evenodd" clip-rule="evenodd" d="M35.1085 38.5569L15.854 32.0488L25.454 41.8299L35.1085 38.5569Z" fill="url(#paint16_radial_13_2542)"/>
<path fill-rule="evenodd" clip-rule="evenodd" d="M15.854 32.0489L35.1085 38.557L29.1449 30.0151L15.854 32.0489Z" fill="url(#paint17_radial_13_2542)"/>
<path fill-rule="evenodd" clip-rule="evenodd" d="M29.1442 30.015L35.1078 38.5569V17.4907L29.1442 30.015Z" fill="url(#paint18_radial_13_2542)"/>
<path fill-rule="evenodd" clip-rule="evenodd" d="M35.1083 17.4907V38.5569L41.081 30.015L35.1083 17.4907Z" fill="url(#paint19_radial_13_2542)"/>
<path fill-rule="evenodd" clip-rule="evenodd" d="M41.081 30.0151L35.1083 38.557L54.3719 32.0489L41.081 30.0151Z" fill="url(#paint20_radial_13_2542)"/>
<path fill-rule="evenodd" clip-rule="evenodd" d="M54.3719 32.0488L35.1083 38.5569L44.7719 41.8299L54.3719 32.0488Z" fill="url(#paint21_radial_13_2542)"/>
<path fill-rule="evenodd" clip-rule="evenodd" d="M44.7719 41.8299L35.1083 38.5569L47.0174 55.6028L44.7719 41.8299Z" fill="url(#paint22_radial_13_2542)"/>
<path fill-rule="evenodd" clip-rule="evenodd" d="M47.0174 55.6028L35.1083 38.5569V49.1326L47.0174 55.6028Z" fill="url(#paint23_radial_13_2542)"/>
<path fill-rule="evenodd" clip-rule="evenodd" d="M35.1085 49.1326V38.5569L23.2085 55.6028L35.1085 49.1326Z" fill="url(#paint24_radial_13_2542)"/>
<path fill-rule="evenodd" clip-rule="evenodd" d="M23.2085 55.6028L35.1085 38.5569L25.454 41.8299L23.2085 55.6028Z" fill="url(#paint25_radial_13_2542)"/>
<path style="mix-blend-mode:screen" fill-rule="evenodd" clip-rule="evenodd" d="M18.7994 33.0421L34.1631 37.1948C33.7994 36.3056 33.1449 34.6881 33.1994 34.2718L35.1176 18.4651V38.557L18.8085 33.0421H18.7994Z" fill="url(#paint26_radial_13_2542)"/>
<path style="mix-blend-mode:screen" fill-rule="evenodd" clip-rule="evenodd" d="M35.1083 38.5571C35.8628 37.4787 37.181 36.4854 39.0719 36.0125L52.7628 32.5881L35.1083 38.5571Z" fill="url(#paint27_radial_13_2542)"/>
<path style="mix-blend-mode:screen" fill-rule="evenodd" clip-rule="evenodd" d="M35.1085 38.5569C33.2085 39.8055 30.9176 41.9055 30.2449 43.1069L23.2085 55.6028L35.1085 38.5569Z" fill="url(#paint28_radial_13_2542)"/>
<defs>
<radialGradient id="paint0_radial_13_2542" cx="0" cy="0" r="1" gradientUnits="userSpaceOnUse" gradientTransform="translate(21.6462 19.146) scale(51.4091 53.4932)">
<stop stop-color="#FFAE00"/>
<stop offset="0.57" stop-color="#FF4400"/>
<stop offset="1" stop-color="#85009C"/>
</radialGradient>
<radialGradient id="paint1_radial_13_2542" cx="0" cy="0" r="1" gradientUnits="userSpaceOnUse" gradientTransform="translate(29.264 0.927214) scale(70.8273 73.6986)">
<stop stop-color="#FFF8C7"/>
<stop offset="1" stop-color="#FFC521"/>
</radialGradient>
<radialGradient id="paint2_radial_13_2542" cx="0" cy="0" r="1" gradientUnits="userSpaceOnUse" gradientTransform="translate(45.5011 48.1677) scale(65.2545 67.9)">
<stop stop-color="#FF9900"/>
<stop offset="1" stop-color="#C44800"/>
</radialGradient>
<radialGradient id="paint3_radial_13_2542" cx="0" cy="0" r="1" gradientUnits="userSpaceOnUse" gradientTransform="translate(35.7556 28.1231) scale(66.7727 69.4797)">
<stop stop-color="#FF9900"/>
<stop offset="1" stop-color="#C44800"/>
</radialGradient>
<radialGradient id="paint4_radial_13_2542" cx="0" cy="0" r="1" gradientUnits="userSpaceOnUse" gradientTransform="translate(21.1374 41.1393) scale(77.6818 80.8311)">
<stop stop-color="#FFEB68"/>
<stop offset="1" stop-color="#E67D2D"/>
</radialGradient>
<radialGradient id="paint5_radial_13_2542" cx="0" cy="0" r="1" gradientUnits="userSpaceOnUse" gradientTransform="translate(30.9905 33.7609) scale(61.8182 64.3243)">
<stop stop-color="#FFEB68"/>
<stop offset="1" stop-color="#E67D2D"/>
</radialGradient>
<radialGradient id="paint6_radial_13_2542" cx="0" cy="0" r="1" gradientUnits="userSpaceOnUse" gradientTransform="translate(0.927565 23.961) scale(73.0727 76.0351)">
<stop stop-color="#FF9900"/>
<stop offset="1" stop-color="#C44800"/>
</radialGradient>
<radialGradient id="paint7_radial_13_2542" cx="0" cy="0" r="1" gradientUnits="userSpaceOnUse" gradientTransform="translate(50.2639 89.3069) scale(58.0182 60.3703)">
<stop stop-color="#FFEB68"/>
<stop offset="1" stop-color="#E67D2D"/>
</radialGradient>
<radialGradient id="paint8_radial_13_2542" cx="0" cy="0" r="1" gradientUnits="userSpaceOnUse" gradientTransform="translate(36.7908 3.87868) scale(82.7091 86.062)">
<stop stop-color="#FF9900"/>
<stop offset="1" stop-color="#C44800"/>
</radialGradient>
<radialGradient id="paint9_radial_13_2542" cx="0" cy="0" r="1" gradientUnits="userSpaceOnUse" gradientTransform="translate(-5.08983 93.5069) scale(63.8818 66.4716)">
<stop stop-color="#FF9900"/>
<stop offset="1" stop-color="#C44800"/>
</radialGradient>
<radialGradient id="paint10_radial_13_2542" cx="0" cy="0" r="1" gradientUnits="userSpaceOnUse" gradientTransform="translate(50.4094 35.3123) scale(64.4727 67.0865)">
<stop stop-color="#FFEB68"/>
<stop offset="1" stop-color="#E67D2D"/>
</radialGradient>
<radialGradient id="paint11_radial_13_2542" cx="0" cy="0" r="1" gradientUnits="userSpaceOnUse" gradientTransform="translate(8.77355 4.97588) scale(36.2636 37.7338)">
<stop stop-color="#FFD500"/>
<stop offset="1"/>
</radialGradient>
<radialGradient id="paint12_radial_13_2542" cx="0" cy="0" r="1" gradientUnits="userSpaceOnUse" gradientTransform="translate(33.8554 -2.70524) scale(43.7636 45.5378)">
<stop stop-color="#FFEF8F"/>
<stop offset="1"/>
</radialGradient>
<radialGradient id="paint13_radial_13_2542" cx="0" cy="0" r="1" gradientUnits="userSpaceOnUse" gradientTransform="translate(5.6639 28.6245) scale(37.1727 38.6797)">
<stop stop-color="#FFEF8F"/>
<stop offset="1"/>
</radialGradient>
<radialGradient id="paint14_radial_13_2542" cx="0" cy="0" r="1" gradientUnits="userSpaceOnUse" gradientTransform="translate(57.8 69.7637) scale(51.5727 53.6635)">
<stop stop-color="#FFEF8F"/>
<stop offset="1"/>
</radialGradient>
<radialGradient id="paint15_radial_13_2542" cx="0" cy="0" r="1" gradientUnits="userSpaceOnUse" gradientTransform="translate(33.7367 48.3946) scale(52.0364 54.1459)">
<stop offset="0.26" stop-color="white"/>
<stop offset="0.32" stop-color="#FCF7F3"/>
<stop offset="0.43" stop-color="#F5E4D6"/>
<stop offset="0.58" stop-color="#EAC4A5"/>
<stop offset="0.76" stop-color="#DA9862"/>
<stop offset="0.97" stop-color="#C7600E"/>
<stop offset="1" stop-color="#C45700"/>
</radialGradient>
<radialGradient id="paint16_radial_13_2542" cx="0" cy="0" r="1" gradientUnits="userSpaceOnUse" gradientTransform="translate(21.1176 10.0461) scale(30.7909 32.0392)">
<stop stop-color="#FFC600"/>
<stop offset="1" stop-color="#D64F00"/>
</radialGradient>
<radialGradient id="paint17_radial_13_2542" cx="0" cy="0" r="1" gradientUnits="userSpaceOnUse" gradientTransform="translate(30.7904 23.6205) scale(26.2364 27.3)">
<stop stop-color="#FFEB68"/>
<stop offset="1" stop-color="#E67D2D"/>
</radialGradient>
<radialGradient id="paint18_radial_13_2542" cx="0" cy="0" r="1" gradientUnits="userSpaceOnUse" gradientTransform="translate(31.0623 23.384) scale(33.1091 34.4514)">
<stop stop-color="#FFEB68"/>
<stop offset="1" stop-color="#FFAC6B"/>
</radialGradient>
<radialGradient id="paint19_radial_13_2542" cx="0" cy="0" r="1" gradientUnits="userSpaceOnUse" gradientTransform="translate(17.0992 19.8178) scale(32.5182 33.8365)">
<stop stop-color="#FFC600"/>
<stop offset="1" stop-color="#D64F00"/>
</radialGradient>
<radialGradient id="paint20_radial_13_2542" cx="0" cy="0" r="1" gradientUnits="userSpaceOnUse" gradientTransform="translate(45.8355 16.5732) scale(28.9909 30.1662)">
<stop stop-color="#FFEB68"/>
<stop offset="1" stop-color="#E67D2D"/>
</radialGradient>
<radialGradient id="paint21_radial_13_2542" cx="0" cy="0" r="1" gradientUnits="userSpaceOnUse" gradientTransform="translate(25.3265 5.25017) scale(39.6818 41.2905)">
<stop stop-color="#FFC600"/>
<stop offset="1" stop-color="#D64F00"/>
</radialGradient>
<radialGradient id="paint22_radial_13_2542" cx="0" cy="0" r="1" gradientUnits="userSpaceOnUse" gradientTransform="translate(60.3537 44.942) scale(30.6273 31.8689)">
<stop stop-color="#FFEB68"/>
<stop offset="1" stop-color="#E67D2D"/>
</radialGradient>
<radialGradient id="paint23_radial_13_2542" cx="0" cy="0" r="1" gradientUnits="userSpaceOnUse" gradientTransform="translate(56.2265 35.4636) scale(34.7727 36.1824)">
<stop stop-color="#FFC600"/>
<stop offset="1" stop-color="#D64F00"/>
</radialGradient>
<radialGradient id="paint24_radial_13_2542" cx="0" cy="0" r="1" gradientUnits="userSpaceOnUse" gradientTransform="translate(7.07213 29.6555) scale(35.4273 36.8635)">
<stop stop-color="#FFC600"/>
<stop offset="1" stop-color="#D64F00"/>
</radialGradient>
<radialGradient id="paint25_radial_13_2542" cx="0" cy="0" r="1" gradientUnits="userSpaceOnUse" gradientTransform="translate(29.3721 55.2245) scale(21.8636 22.75)">
<stop stop-color="#FFC600"/>
<stop offset="1" stop-color="#D64F00"/>
</radialGradient>
<radialGradient id="paint26_radial_13_2542" cx="0" cy="0" r="1" gradientUnits="userSpaceOnUse" gradientTransform="translate(37.6358 34.4516) scale(27.5182 28.6338)">
<stop stop-color="#FFEF8F"/>
<stop offset="1"/>
</radialGradient>
<radialGradient id="paint27_radial_13_2542" cx="0" cy="0" r="1" gradientUnits="userSpaceOnUse" gradientTransform="translate(49.1537 27.1206) scale(28.9 30.0716)">
<stop stop-color="#FFEF8F"/>
<stop offset="1"/>
</radialGradient>
<radialGradient id="paint28_radial_13_2542" cx="0" cy="0" r="1" gradientUnits="userSpaceOnUse" gradientTransform="translate(19.3267 51.7528) scale(24.8364 25.8432)">
<stop stop-color="#FFEF8F"/>
<stop offset="1"/>
</radialGradient>
</defs>
</svg>
