<svg width="14" height="14" viewBox="0 0 14 14" fill="none" xmlns="http://www.w3.org/2000/svg">
<path d="M13.9714 12.5287L11.5167 10.074C12.4768 8.87301 12.9405 7.34995 12.8126 5.8177C12.6847 4.28544 11.9749 2.86034 10.829 1.83511C9.68308 0.809884 8.1881 0.262377 6.65111 0.305054C5.11412 0.347732 3.65182 0.977353 2.56459 2.06459C1.47735 3.15182 0.847732 4.61412 0.805054 6.15111C0.762377 7.6881 1.30988 9.18308 2.33511 10.329C3.36034 11.4749 4.78544 12.1847 6.3177 12.3126C7.84995 12.4405 9.37301 11.9768 10.574 11.0167L13.0287 13.4714L13.9714 12.5287ZM6.83336 11C5.91038 11 5.00813 10.7263 4.2407 10.2136C3.47327 9.70077 2.87513 8.97194 2.52192 8.11921C2.16871 7.26649 2.0763 6.32818 2.25636 5.42294C2.43642 4.51769 2.88088 3.68617 3.53353 3.03353C4.18617 2.38088 5.01769 1.93642 5.92294 1.75636C6.82818 1.5763 7.76649 1.66871 8.61921 2.02192C9.47194 2.37513 10.2008 2.97327 10.7136 3.7407C11.2263 4.50813 11.5 5.41038 11.5 6.33336C11.4986 7.5706 11.0065 8.75677 10.1316 9.63163C9.25677 10.5065 8.0706 10.9986 6.83336 11Z" fill="white"/>
</svg>
