<svg width="33" height="41" viewBox="0 0 33 41" fill="none" xmlns="http://www.w3.org/2000/svg">
<g clip-path="url(#clip0_2002_5687)">
<path d="M12.9698 40.4983L9.59107 36.6105L4.67725 38.1616L9.63917 20.5664L17.9358 22.9071L12.9698 40.4983Z" fill="url(#paint0_linear_2002_5687)"/>
<path d="M9.59131 36.6101L12.9701 40.4979L17.936 22.9067L13.7877 21.7363L9.59131 36.6101Z" fill="url(#paint1_linear_2002_5687)"/>
<path d="M19.1826 40.4983L22.5614 36.6105L27.4752 38.1616L22.5133 20.5664L14.2207 22.9071L19.1826 40.4983Z" fill="url(#paint2_linear_2002_5687)"/>
<path d="M22.5614 36.6101L19.1826 40.4979L14.2207 22.9067L18.365 21.7363L22.5614 36.6101Z" fill="url(#paint3_linear_2002_5687)"/>
<g style="mix-blend-mode:multiply">
<path d="M22.5131 20.5681L16.0762 22.3838L9.63933 20.5681L6.44495 31.8908C8.84976 33.4058 11.6393 34.3718 14.6333 34.6082L16.0762 29.494L17.5191 34.6082C20.5131 34.3718 23.2987 33.4098 25.7075 31.8908L22.5131 20.5681Z" fill="#C8D4E3"/>
</g>
<path d="M32.1523 16.5762C32.1523 25.4539 24.9539 32.6523 16.0762 32.6523C7.1984 32.6523 0 25.4539 0 16.5762C0 7.6984 7.1984 0.5 16.0762 0.5C24.9539 0.5 32.1523 7.6984 32.1523 16.5762Z" fill="#FCD679"/>
<path d="M28.501 16.5762C28.501 23.4379 22.9379 29.0011 16.0762 29.0011C9.21443 29.0011 3.65131 23.4379 3.65131 16.5762C3.65131 9.71449 9.21443 4.15137 16.0762 4.15137C22.9379 4.15137 28.501 9.71449 28.501 16.5762Z" fill="white"/>
<path d="M26.6574 16.5763C26.6574 22.42 21.92 27.1574 16.0763 27.1574C10.2326 27.1574 5.49512 22.42 5.49512 16.5763C5.49512 10.7326 10.2326 5.99512 16.0763 5.99512C21.92 5.99512 26.6574 10.7326 26.6574 16.5763Z" fill="#FBCC58"/>
<path d="M19.2452 19.816V21.1187H13.0704V20.0039L16.0325 16.8038C16.3415 16.4531 16.5857 16.1483 16.7652 15.8894C16.9448 15.6306 17.0721 15.3968 17.1473 15.188C17.2266 14.9751 17.2663 14.7726 17.2663 14.5806C17.2663 14.3009 17.2162 14.0566 17.116 13.8479C17.0158 13.6349 16.8696 13.47 16.6776 13.3531C16.4897 13.2362 16.258 13.1778 15.9824 13.1778C15.6777 13.1778 15.4167 13.2487 15.1996 13.3907C14.9867 13.5285 14.8239 13.7205 14.7111 13.9668C14.6026 14.2132 14.5483 14.495 14.5483 14.8123H12.8887C12.8887 14.2737 13.014 13.7831 13.2645 13.3406C13.515 12.8939 13.8741 12.5369 14.3417 12.2697C14.8093 12.0025 15.3645 11.8689 16.0075 11.8689C16.6337 11.8689 17.164 11.9733 17.5982 12.182C18.0324 12.3866 18.3622 12.6789 18.5876 13.0588C18.8131 13.4387 18.9258 13.8917 18.9258 14.4178C18.9258 14.71 18.8778 14.9981 18.7818 15.282C18.6858 15.5659 18.5501 15.8477 18.3747 16.1274C18.2035 16.403 17.999 16.6827 17.761 16.9666C17.523 17.2505 17.2579 17.5407 16.9657 17.8371L15.1871 19.816H19.2452Z" fill="white"/>
</g>
<defs>
<linearGradient id="paint0_linear_2002_5687" x1="5.35059" y1="39.8289" x2="11.6231" y2="30.0373" gradientUnits="userSpaceOnUse">
<stop stop-color="#FF5252"/>
<stop offset="1" stop-color="#DF1B36"/>
</linearGradient>
<linearGradient id="paint1_linear_2002_5687" x1="6.15243" y1="37.1872" x2="15.0182" y2="29.7363" gradientUnits="userSpaceOnUse">
<stop stop-color="#FF5252"/>
<stop offset="1" stop-color="#DF1B36"/>
</linearGradient>
<linearGradient id="paint2_linear_2002_5687" x1="26.8019" y1="39.8289" x2="20.5293" y2="30.0373" gradientUnits="userSpaceOnUse">
<stop stop-color="#FF5252"/>
<stop offset="1" stop-color="#DF1B36"/>
</linearGradient>
<linearGradient id="paint3_linear_2002_5687" x1="26.0003" y1="37.1872" x2="17.1345" y2="29.7363" gradientUnits="userSpaceOnUse">
<stop stop-color="#FF5252"/>
<stop offset="1" stop-color="#DF1B36"/>
</linearGradient>
<clipPath id="clip0_2002_5687">
<rect width="32.1523" height="40" fill="white" transform="translate(0 0.5)"/>
</clipPath>
</defs>
</svg>
