<svg width="17" height="16" viewBox="0 0 17 16" fill="none" xmlns="http://www.w3.org/2000/svg">
<path fill-rule="evenodd" clip-rule="evenodd" d="M8.33517 13.1974C5.46698 13.1974 3.13306 10.8635 3.13306 7.99532C3.13306 5.12713 5.46698 2.79321 8.33517 2.79321C11.2034 2.79321 13.5373 5.12713 13.5373 7.99532C13.5373 10.8635 11.2034 13.1974 8.33517 13.1974Z" fill="#FFC107"/>
<path fill-rule="evenodd" clip-rule="evenodd" d="M10.0973 10.948C10.0692 10.948 10.0411 10.948 10.013 10.9292L8.33517 10.2825L6.66675 10.9292C6.59176 10.9667 6.49803 10.948 6.43242 10.9011C6.3668 10.8542 6.32931 10.7793 6.33868 10.6949L6.44179 8.90462L5.29826 7.51739C5.2514 7.45178 5.23265 7.36742 5.26077 7.28306C5.28889 7.20807 5.34513 7.14246 5.42949 7.12372L7.16352 6.6738L8.13833 5.15535C8.17583 5.08974 8.26018 5.05225 8.33517 5.05225C8.41953 5.05225 8.49451 5.08974 8.54138 5.15535L9.51619 6.6738L11.2502 7.12372C11.3252 7.14246 11.3908 7.20807 11.4189 7.28306C11.4471 7.36742 11.4283 7.45178 11.3721 7.51739L10.2379 8.90462L10.341 10.6949C10.341 10.7793 10.3035 10.8542 10.2379 10.9011C10.2004 10.9386 10.1442 10.948 10.0973 10.948Z" fill="white"/>
</svg>
