<svg width="24" height="24" viewBox="0 0 24 24" fill="none" xmlns="http://www.w3.org/2000/svg">
<path d="M4 3H20C20.5523 3 21 3.44772 21 4V20C21 20.5523 20.5523 21 20 21H4C3.44772 21 3 20.5523 3 20V4C3 3.44772 3.44772 3 4 3ZM8.88127 13.8787C10.0528 15.0503 11.9524 15.0503 13.1239 13.8787L17.3666 9.63603C17.7571 9.24551 17.7571 8.61235 17.3666 8.22183C16.9761 7.8313 16.3429 7.8313 15.9524 8.22182L12.4168 11.7574C11.6358 12.5384 10.3694 12.5384 9.58843 11.7574L8.88135 11.0503C8.49081 10.6597 7.85761 10.6597 7.46707 11.0503C7.07656 11.4408 7.07657 12.074 7.46709 12.4645L8.88127 13.8787Z" fill="#753CBD"/>
</svg>
