<svg width="33" height="41" viewBox="0 0 33 41" fill="none" xmlns="http://www.w3.org/2000/svg">
<g clip-path="url(#clip0_2002_5786)">
<path d="M12.9698 40.4983L9.59107 36.6105L4.67725 38.1616L9.63917 20.5664L17.9358 22.9071L12.9698 40.4983Z" fill="url(#paint0_linear_2002_5786)"/>
<path d="M9.59131 36.6101L12.9701 40.4979L17.936 22.9067L13.7877 21.7363L9.59131 36.6101Z" fill="url(#paint1_linear_2002_5786)"/>
<path d="M19.1826 40.4983L22.5614 36.6105L27.4752 38.1616L22.5133 20.5664L14.2207 22.9071L19.1826 40.4983Z" fill="url(#paint2_linear_2002_5786)"/>
<path d="M22.5614 36.6101L19.1826 40.4979L14.2207 22.9067L18.365 21.7363L22.5614 36.6101Z" fill="url(#paint3_linear_2002_5786)"/>
<g style="mix-blend-mode:multiply">
<path d="M22.5131 20.5681L16.0762 22.3838L9.63933 20.5681L6.44495 31.8908C8.84976 33.4058 11.6393 34.3718 14.6333 34.6082L16.0762 29.494L17.5191 34.6082C20.5131 34.3718 23.2987 33.4098 25.7075 31.8908L22.5131 20.5681Z" fill="#C8D4E3"/>
</g>
<path d="M32.1523 16.5762C32.1523 25.4539 24.9539 32.6523 16.0762 32.6523C7.1984 32.6523 0 25.4539 0 16.5762C0 7.6984 7.1984 0.5 16.0762 0.5C24.9539 0.5 32.1523 7.6984 32.1523 16.5762Z" fill="#4D9EFA"/>
<path d="M28.501 16.5762C28.501 23.4379 22.9379 29.0011 16.0762 29.0011C9.21443 29.0011 3.65131 23.4379 3.65131 16.5762C3.65131 9.71449 9.21443 4.15137 16.0762 4.15137C22.9379 4.15137 28.501 9.71449 28.501 16.5762Z" fill="white"/>
<path d="M26.6574 16.5763C26.6574 22.42 21.92 27.1574 16.0763 27.1574C10.2326 27.1574 5.49512 22.42 5.49512 16.5763C5.49512 10.7326 10.2326 5.99512 16.0763 5.99512C21.92 5.99512 26.6574 10.7326 26.6574 16.5763Z" fill="#4D9EFA"/>
<path d="M14.8802 15.8268H15.8133C16.1432 15.8268 16.4145 15.7705 16.6275 15.6577C16.8446 15.5408 17.0053 15.3822 17.1097 15.1818C17.2182 14.9772 17.2725 14.7413 17.2725 14.4741C17.2725 14.2111 17.2245 13.9835 17.1285 13.7915C17.0325 13.5953 16.8863 13.445 16.6901 13.3406C16.498 13.232 16.2517 13.1778 15.9511 13.1778C15.709 13.1778 15.4856 13.2258 15.281 13.3218C15.0806 13.4178 14.9199 13.5556 14.7988 13.7351C14.6819 13.9105 14.6235 14.1213 14.6235 14.3677H12.9639C12.9639 13.875 13.0933 13.4429 13.3522 13.0713C13.6152 12.6956 13.9701 12.4012 14.4168 12.1883C14.8635 11.9754 15.3624 11.8689 15.9135 11.8689C16.5147 11.8689 17.0408 11.9691 17.4917 12.1695C17.9468 12.3657 18.2996 12.6559 18.5501 13.04C18.8047 13.4241 18.9321 13.9 18.9321 14.4679C18.9321 14.7392 18.8674 15.0106 18.7379 15.282C18.6127 15.5492 18.4269 15.7913 18.1806 16.0084C17.9384 16.2214 17.6399 16.3946 17.285 16.5282C16.9343 16.6576 16.5314 16.7224 16.0764 16.7224H14.8802V15.8268ZM14.8802 17.1044V16.2214H16.0764C16.5899 16.2214 17.0345 16.2819 17.4103 16.403C17.7902 16.5199 18.1033 16.6869 18.3497 16.904C18.596 17.1169 18.7776 17.3653 18.8945 17.6492C19.0156 17.9331 19.0761 18.2379 19.0761 18.5635C19.0761 18.9894 18.9968 19.3693 18.8381 19.7033C18.6795 20.0331 18.4561 20.3129 18.1681 20.5425C17.8842 20.7721 17.5502 20.9475 17.1661 21.0686C16.7819 21.1855 16.3665 21.2439 15.9198 21.2439C15.5315 21.2439 15.1537 21.1917 14.7863 21.0873C14.4231 20.9788 14.0953 20.8181 13.8031 20.6051C13.5108 20.388 13.2791 20.1166 13.1079 19.791C12.9368 19.4612 12.8512 19.0792 12.8512 18.645H14.5107C14.5107 18.8955 14.5713 19.1188 14.6924 19.315C14.8176 19.5113 14.9888 19.6657 15.2059 19.7785C15.4272 19.887 15.6756 19.9413 15.9511 19.9413C16.2559 19.9413 16.5168 19.887 16.7339 19.7785C16.9552 19.6657 17.1243 19.5071 17.2412 19.3025C17.3581 19.0938 17.4166 18.8454 17.4166 18.5573C17.4166 18.2149 17.3518 17.9373 17.2224 17.7244C17.093 17.5114 16.9072 17.3549 16.665 17.2547C16.4271 17.1545 16.1432 17.1044 15.8133 17.1044H14.8802Z" fill="white"/>
</g>
<defs>
<linearGradient id="paint0_linear_2002_5786" x1="5.35059" y1="39.8289" x2="11.6231" y2="30.0373" gradientUnits="userSpaceOnUse">
<stop stop-color="#FF5252"/>
<stop offset="1" stop-color="#DF1B36"/>
</linearGradient>
<linearGradient id="paint1_linear_2002_5786" x1="6.15243" y1="37.1872" x2="15.0182" y2="29.7363" gradientUnits="userSpaceOnUse">
<stop stop-color="#FF5252"/>
<stop offset="1" stop-color="#DF1B36"/>
</linearGradient>
<linearGradient id="paint2_linear_2002_5786" x1="26.8019" y1="39.8289" x2="20.5293" y2="30.0373" gradientUnits="userSpaceOnUse">
<stop stop-color="#FF5252"/>
<stop offset="1" stop-color="#DF1B36"/>
</linearGradient>
<linearGradient id="paint3_linear_2002_5786" x1="26.0003" y1="37.1872" x2="17.1345" y2="29.7363" gradientUnits="userSpaceOnUse">
<stop stop-color="#FF5252"/>
<stop offset="1" stop-color="#DF1B36"/>
</linearGradient>
<clipPath id="clip0_2002_5786">
<rect width="32.1523" height="40" fill="white" transform="translate(0 0.5)"/>
</clipPath>
</defs>
</svg>
