<svg width="16" height="4" viewBox="0 0 16 4" fill="none" xmlns="http://www.w3.org/2000/svg">
<path fill-rule="evenodd" clip-rule="evenodd" d="M15 1.50015C15 1.22401 14.7761 1.00015 14.5 1.00015H13.5C13.2239 1.00015 13 1.22401 13 1.50015V2.50015C13 2.7763 13.2239 3.00015 13.5 3.00015H14.5C14.7761 3.00015 15 2.7763 15 2.50015V1.50015ZM16 1.50015V2.50015C16 3.32858 15.3284 4.00015 14.5 4.00015H13.5C12.6716 4.00015 12 3.32858 12 2.50015V1.50015C12 0.671725 12.6716 0.000152588 13.5 0.000152588H14.5C15.3284 0.000152588 16 0.671725 16 1.50015ZM9 1.50015C9 1.22401 8.77614 1.00015 8.5 1.00015H7.5C7.22386 1.00015 7 1.22401 7 1.50015V2.50015C7 2.7763 7.22386 3.00015 7.5 3.00015H8.5C8.77614 3.00015 9 2.7763 9 2.50015V1.50015ZM10 1.50015V2.50015C10 3.32858 9.32843 4.00015 8.5 4.00015H7.5C6.67157 4.00015 6 3.32858 6 2.50015V1.50015C6 0.671725 6.67157 0.000152588 7.5 0.000152588H8.5C9.32843 0.000152588 10 0.671725 10 1.50015ZM3 1.50015C3 1.22401 2.77614 1.00015 2.5 1.00015H1.5C1.22386 1.00015 1 1.22401 1 1.50015V2.50015C1 2.7763 1.22386 3.00015 1.5 3.00015H2.5C2.77614 3.00015 3 2.7763 3 2.50015V1.50015ZM4 1.50015V2.50015C4 3.32858 3.32843 4.00015 2.5 4.00015H1.5C0.671573 4.00015 0 3.32858 0 2.50015V1.50015C0 0.671726 0.671573 0.000152826 1.5 0.000152826H2.5C3.32843 0.000152826 4 0.671726 4 1.50015Z" fill="#7B91B0"/>
</svg>
