<svg width="14" height="17" viewBox="0 0 14 17" fill="none" xmlns="http://www.w3.org/2000/svg">
<path d="M2.577 4.28522C3.75009 3.34683 5.23809 2.78571 6.85714 2.78571C8.47619 2.78571 9.96419 3.34683 11.1373 4.28522L12.2446 3.17788L13.3221 4.25538L12.2148 5.36271C13.1531 6.5358 13.7143 8.02381 13.7143 9.64286C13.7143 13.43 10.6443 16.5 6.85714 16.5C3.07005 16.5 0 13.43 0 9.64286C0 8.02381 0.56112 6.5358 1.4995 5.36271L0.392168 4.25538L1.46966 3.17788L2.577 4.28522ZM7.61905 8.88095V5.44872L3.80952 10.4048H6.09524V13.8333L9.90476 8.88095H7.61905ZM3.80952 0.5H9.90476V2.02381H3.80952V0.5Z" fill="#753CBD"/>
</svg>
