<svg width="16" height="17" viewBox="0 0 16 17" fill="none" xmlns="http://www.w3.org/2000/svg">
<path d="M6.06004 6.50004C6.21678 6.05449 6.52614 5.67878 6.93334 5.43946C7.34055 5.20015 7.8193 5.11267 8.28483 5.19252C8.75035 5.27236 9.17259 5.51439 9.47676 5.87573C9.78093 6.23706 9.94741 6.69439 9.94671 7.16671C9.94671 8.50004 7.94671 9.16671 7.94671 9.16671M8.00004 11.8334H8.00671M14.6667 8.50004C14.6667 12.1819 11.6819 15.1667 8.00004 15.1667C4.31814 15.1667 1.33337 12.1819 1.33337 8.50004C1.33337 4.81814 4.31814 1.83337 8.00004 1.83337C11.6819 1.83337 14.6667 4.81814 14.6667 8.50004Z" stroke="#667085" stroke-width="1.33333" stroke-linecap="round" stroke-linejoin="round"/>
</svg>
