<svg width="17" height="16" viewBox="0 0 17 16" fill="none" xmlns="http://www.w3.org/2000/svg">
<path d="M5.16653 4.00016V2.00016C5.16653 1.63198 5.46501 1.3335 5.8332 1.3335H13.8332C14.2014 1.3335 14.4999 1.63198 14.4999 2.00016V11.3335C14.4999 11.7017 14.2014 12.0002 13.8332 12.0002H11.8332V13.9996C11.8332 14.3681 11.5333 14.6668 11.162 14.6668H3.17111C2.80039 14.6668 2.5 14.3704 2.5 13.9996L2.50173 4.66741C2.5018 4.2989 2.80176 4.00016 3.17295 4.00016H5.16653ZM6.49987 4.00016H11.8332V10.6668H13.1665V2.66683H6.49987V4.00016ZM5.16653 7.3335V8.66683H9.16653V7.3335H5.16653ZM5.16653 10.0002V11.3335H9.16653V10.0002H5.16653Z" fill="#9163CA"/>
</svg>
