<svg width="70" height="60" viewBox="0 0 70 60" fill="none" xmlns="http://www.w3.org/2000/svg">
<path d="M36.6368 14.7458L36.729 14.7733L36.733 14.7688C37.1707 14.8481 37.6049 14.586 37.7335 14.1519C38.9051 10.2152 42.5962 7.46504 46.7086 7.46504C47.1955 7.46504 47.5903 7.07016 47.5903 6.5833C47.5903 6.09643 47.1955 5.70156 46.7086 5.70156C41.6545 5.70156 37.4073 9.06665 36.0435 13.6493C35.9044 14.1162 36.1703 14.6067 36.6368 14.7458Z" fill="#483EA8" stroke="#F9FFF9" stroke-width="0.3"/>
<path d="M56.9523 42.4384H52.5619C52.1579 42.4384 51.8302 42.1107 51.8302 41.7067C51.8302 41.3027 52.1579 40.9749 52.5619 40.9749H56.9523C63.0042 40.9749 67.9282 36.0509 67.9282 29.999C67.9282 23.9471 63.0042 19.023 56.9523 19.023H56.8467C56.6345 19.023 56.4327 18.9311 56.2937 18.7706C56.1547 18.6101 56.092 18.3974 56.1223 18.1873C56.1876 17.7315 56.2206 17.2737 56.2206 16.8279C56.2206 11.5829 51.9529 7.31531 46.708 7.31531C44.6675 7.31531 42.7216 7.95296 41.0804 9.15978C40.7198 9.42478 40.2076 9.30718 39.999 8.91047C35.351 0.0596993 23.2108 -1.12887 16.9167 6.57053C14.2653 9.81417 13.2235 14.0336 14.0583 18.146C14.1503 18.6002 13.8027 19.0236 13.3412 19.0236H13.048C6.99612 19.0236 2.07205 23.9477 2.07205 29.9996C2.07205 36.0514 6.99612 40.9755 13.048 40.9755H17.4383C17.8423 40.9755 18.1701 41.3032 18.1701 41.7072C18.1701 42.1113 17.8424 42.439 17.4383 42.439H13.048C6.18902 42.439 0.608521 36.8585 0.608521 29.9995C0.608521 23.3329 5.88007 17.8742 12.4736 17.5731C11.8542 13.3066 13.0386 9.00295 15.7836 5.64437C22.5223 -2.5996 35.4365 -1.67556 40.8956 7.51707C42.6372 6.42522 44.6301 5.85244 46.7078 5.85244C53.0623 5.85244 58.0977 11.261 57.6571 17.58C64.1899 17.9463 69.3914 23.3763 69.3914 29.999C69.3914 36.8585 63.8109 42.4384 56.9519 42.4384L56.9523 42.4384Z" fill="#483EA8"/>
<path d="M16.4585 41.2935C16.4585 51.4634 24.7322 59.737 34.902 59.737C45.0719 59.737 53.3455 51.4633 53.3455 41.2935C53.3455 31.1235 45.0719 22.85 34.902 22.85C24.7321 22.85 16.4585 31.1237 16.4585 41.2935ZM18.2223 41.2935C18.2223 32.0966 25.705 24.6138 34.902 24.6138C44.0989 24.6138 51.5817 32.0964 51.5817 41.2935C51.5817 50.4904 44.0989 57.9732 34.902 57.9732C25.7051 57.9732 18.2223 50.4905 18.2223 41.2935Z" fill="#483EA8" stroke="#F9FFF9" stroke-width="0.3"/>
<path d="M34.5507 48.6577C34.5507 49.0363 34.8578 49.3434 35.2365 49.3434C35.615 49.3434 35.9222 49.0367 35.9222 48.6577V34.7291C35.9222 34.3504 35.6151 34.0434 35.2365 34.0434C34.8578 34.0434 34.5507 34.3504 34.5507 34.7291V48.6577Z" fill="#483EA8" stroke="#483EA8" stroke-width="0.3"/>
<path d="M35.2364 35.7001L31.4357 39.5008L35.2364 35.7001ZM35.2364 35.7001L39.0372 39.5009C39.1709 39.6346 39.3469 39.7017 39.522 39.7017L35.2364 35.7001ZM30.4658 39.5009C30.7336 39.7687 31.168 39.7689 31.4356 39.5009L39.522 39.7017C39.6969 39.7017 39.873 39.6352 40.0069 39.5009C40.2748 39.233 40.2748 38.799 40.0069 38.5311L35.7212 34.2455C35.4534 33.9777 35.0191 33.9775 34.7515 34.2455C34.7514 34.2455 34.7514 34.2456 34.7514 34.2456L30.4658 38.5311C30.1979 38.799 30.1979 39.233 30.4658 39.5009Z" fill="#483EA8" stroke="#483EA8" stroke-width="0.3"/>
</svg>
