<svg width="28" height="24" viewBox="0 0 28 24" fill="none" xmlns="http://www.w3.org/2000/svg">
<path d="M0.666687 1.32453C0.666687 0.593013 1.27377 0 1.98909 0H26.011C26.7414 0 27.3334 0.593267 27.3334 1.32453V22.6755C27.3334 23.4069 26.7263 24 26.011 24H1.98909C1.25875 24 0.666687 23.4068 0.666687 22.6755V1.32453ZM12.1626 7.21945C12.075 7.16104 11.972 7.12988 11.8667 7.12988C11.5722 7.12988 11.3334 7.36865 11.3334 7.66321V16.3368C11.3334 16.4421 11.3646 16.5451 11.423 16.6327C11.5863 16.8777 11.9175 16.944 12.1626 16.7805L18.6678 12.4437C18.7263 12.4047 18.7766 12.3544 18.8156 12.2959C18.9791 12.0508 18.9128 11.7196 18.6678 11.5563L12.1626 7.21945Z" fill="#753CBD"/>
</svg>
