<svg width="97" height="84" viewBox="0 0 97 84" fill="none" xmlns="http://www.w3.org/2000/svg">
<circle cx="2.67273" cy="3.17273" r="2.67273" fill="#8D9DB5"/>
<circle cx="15.6547" cy="3.17275" r="2.67273" fill="#8D9DB5"/>
<circle cx="28.6364" cy="3.17273" r="2.67273" fill="#8D9DB5"/>
<circle cx="41.6183" cy="3.17273" r="2.67273" fill="#8D9DB5"/>
<circle cx="54.6" cy="3.17273" r="2.67273" fill="#8D9DB5"/>
<circle cx="67.5819" cy="3.17275" r="2.67273" fill="#8D9DB5"/>
<circle cx="80.5636" cy="3.17273" r="2.67273" fill="#8D9DB5"/>
<circle cx="93.5455" cy="3.17273" r="2.67273" fill="#8D9DB5"/>
<circle cx="2.67273" cy="16.1545" r="2.67273" fill="#8D9DB5"/>
<circle cx="15.6547" cy="16.1546" r="2.67273" fill="#8D9DB5"/>
<circle cx="28.6364" cy="16.1545" r="2.67273" fill="#8D9DB5"/>
<circle cx="41.6183" cy="16.1545" r="2.67273" fill="#8D9DB5"/>
<circle cx="54.6" cy="16.1545" r="2.67273" fill="#8D9DB5"/>
<circle cx="67.5819" cy="16.1546" r="2.67273" fill="#8D9DB5"/>
<circle cx="80.5636" cy="16.1545" r="2.67273" fill="#8D9DB5"/>
<circle cx="93.5455" cy="16.1545" r="2.67273" fill="#8D9DB5"/>
<circle cx="2.67273" cy="29.1364" r="2.67273" fill="#8D9DB5"/>
<circle cx="15.6547" cy="29.1364" r="2.67273" fill="#8D9DB5"/>
<circle cx="28.6364" cy="29.1364" r="2.67273" fill="#8D9DB5"/>
<circle cx="41.6183" cy="29.1364" r="2.67273" fill="#8D9DB5"/>
<circle cx="54.6" cy="29.1364" r="2.67273" fill="#8D9DB5"/>
<circle cx="67.5819" cy="29.1364" r="2.67273" fill="#8D9DB5"/>
<circle cx="80.5636" cy="29.1364" r="2.67273" fill="#8D9DB5"/>
<circle cx="93.5455" cy="29.1364" r="2.67273" fill="#8D9DB5"/>
<circle cx="2.67273" cy="42.1182" r="2.67273" fill="#8D9DB5"/>
<circle cx="15.6547" cy="42.1182" r="2.67273" fill="#8D9DB5"/>
<circle cx="28.6364" cy="42.1182" r="2.67273" fill="#8D9DB5"/>
<circle cx="41.6183" cy="42.1182" r="2.67273" fill="#8D9DB5"/>
<circle cx="54.6" cy="42.1182" r="2.67273" fill="#8D9DB5"/>
<circle cx="67.5819" cy="42.1182" r="2.67273" fill="#8D9DB5"/>
<circle cx="80.5636" cy="42.1182" r="2.67273" fill="#8D9DB5"/>
<circle cx="93.5455" cy="42.1182" r="2.67273" fill="#8D9DB5"/>
<circle cx="2.67273" cy="55.1" r="2.67273" fill="#8D9DB5"/>
<circle cx="15.6547" cy="55.1" r="2.67273" fill="#8D9DB5"/>
<circle cx="28.6364" cy="55.1" r="2.67273" fill="#8D9DB5"/>
<circle cx="41.6183" cy="55.1" r="2.67273" fill="#8D9DB5"/>
<circle cx="54.6" cy="55.1" r="2.67273" fill="#8D9DB5"/>
<circle cx="67.5819" cy="55.1" r="2.67273" fill="#8D9DB5"/>
<circle cx="80.5636" cy="55.1" r="2.67273" fill="#8D9DB5"/>
<circle cx="93.5455" cy="55.1" r="2.67273" fill="#8D9DB5"/>
<circle cx="2.67273" cy="68.0818" r="2.67273" fill="#8D9DB5"/>
<circle cx="15.6547" cy="68.0818" r="2.67273" fill="#8D9DB5"/>
<circle cx="28.6364" cy="68.0818" r="2.67273" fill="#8D9DB5"/>
<circle cx="41.6183" cy="68.0818" r="2.67273" fill="#8D9DB5"/>
<circle cx="54.6" cy="68.0818" r="2.67273" fill="#8D9DB5"/>
<circle cx="67.5819" cy="68.0818" r="2.67273" fill="#8D9DB5"/>
<circle cx="80.5636" cy="68.0818" r="2.67273" fill="#8D9DB5"/>
<circle cx="93.5455" cy="68.0818" r="2.67273" fill="#8D9DB5"/>
<circle cx="2.67273" cy="81.0636" r="2.67273" fill="#8D9DB5"/>
<circle cx="15.6547" cy="81.0636" r="2.67273" fill="#8D9DB5"/>
<circle cx="28.6364" cy="81.0636" r="2.67273" fill="#8D9DB5"/>
<circle cx="41.6183" cy="81.0636" r="2.67273" fill="#8D9DB5"/>
<circle cx="54.6" cy="81.0636" r="2.67273" fill="#8D9DB5"/>
<circle cx="67.5819" cy="81.0636" r="2.67273" fill="#8D9DB5"/>
<circle cx="80.5636" cy="81.0636" r="2.67273" fill="#8D9DB5"/>
<circle cx="93.5455" cy="81.0636" r="2.67273" fill="#8D9DB5"/>
</svg>
