<svg width="113" height="117" viewBox="0 0 113 117" fill="none" xmlns="http://www.w3.org/2000/svg">
<path d="M64.2175 2.34557C66.1443 -1.43 71.8696 0.27671 71.4146 4.49102L67.2072 43.4585C66.9888 45.4811 68.3945 47.3197 70.4036 47.6392L109.111 53.7951C113.297 54.4609 113.443 60.4334 109.295 61.3029L70.9342 69.343C68.9431 69.7603 67.6289 71.6654 67.9459 73.6749L74.0525 112.39C74.7129 116.577 69.0779 118.562 66.9689 114.885L47.4683 80.8864C46.4561 79.1218 44.2381 78.4606 42.425 79.383L7.49156 97.1544C3.71354 99.0764 0.0848611 94.3304 2.9301 91.1884L29.2385 62.1361C30.604 60.6282 30.5474 58.3144 29.1099 56.875L1.41324 29.1431C-1.58213 26.1439 1.81027 21.2262 5.6777 22.9612L41.4378 39.0044C43.2939 39.8371 45.4769 39.0683 46.4016 37.2563L64.2175 2.34557Z" fill="#FBCC58"/>
</svg>
