<svg width="1120" height="85" viewBox="0 0 1120 85" fill="none" xmlns="http://www.w3.org/2000/svg">
<path opacity="0.1" fill-rule="evenodd" clip-rule="evenodd" d="M641.827 -297.848C795.242 -277.133 949.951 -268.207 1094.69 -238.276C1261.32 -203.819 1519.04 -160.938 1529.41 -114.309C1541.98 -57.7929 1255.69 -63.5676 1141.02 -29.9524C1090.03 -15.0048 1086.19 9.66336 1046.11 27.3751C999.594 47.9283 973.805 74.8753 886.532 82.4987C793.817 90.5975 668.982 76.8969 554.022 70.3595C399.815 61.5903 247.816 64.5657 94.4139 37.4536C-76.7615 7.20012 -260.983 -37.1907 -334.649 -86.7037C-408.392 -136.268 -336.196 -176.924 -278.502 -213.193C-229.988 -243.691 -105.627 -253.258 -30.8709 -277.674C49.3981 -303.89 38.4886 -357.955 177.499 -362.124C315.54 -366.264 484.184 -319.135 641.827 -297.848Z" fill="#C0A5E1"/>
</svg>
