<svg width="1120" height="146" viewBox="0 0 1120 146" fill="none" xmlns="http://www.w3.org/2000/svg">
<path opacity="0.1" fill-rule="evenodd" clip-rule="evenodd" d="M689.78 76.6719C864.26 101.019 1040.21 111.51 1204.83 146.689C1394.34 187.187 1687.44 237.586 1699.24 292.391C1713.53 358.815 1387.93 352.028 1257.52 391.537C1199.53 409.105 1195.16 438.098 1149.57 458.915C1096.67 483.072 1067.34 514.744 968.084 523.704C862.639 533.222 720.663 517.12 589.918 509.436C414.537 499.129 241.667 502.626 67.2023 470.761C-127.477 435.203 -336.993 383.029 -420.774 324.836C-504.643 266.581 -422.533 218.798 -356.918 176.169C-301.743 140.324 -160.306 129.08 -75.285 100.384C16.0056 69.5715 3.59808 6.02745 161.696 1.12748C318.691 -3.7383 510.491 51.6535 689.78 76.6719Z" fill="#C0A5E1"/>
</svg>
