<svg width="24" height="24" viewBox="0 0 24 24" fill="none" xmlns="http://www.w3.org/2000/svg">
<g clip-path="url(#clip0_140_1720)">
<path d="M21.854 6.86265C18.6841 1.65458 13.9088 5.2779 13.9088 5.2779C13.5991 5.51196 13.028 5.70441 12.64 5.7053L11.3609 5.7062C10.9729 5.70664 10.4018 5.5142 10.0926 5.28013C10.0926 5.28013 5.31684 1.65592 2.14643 6.86399C-1.02307 12.0703 0.254217 17.7402 0.254217 17.7402C0.477989 19.1285 1.21554 20.0549 2.6074 19.9385C3.99524 19.8226 7.00766 16.1998 7.00766 16.1998C7.25649 15.9012 7.77788 15.6573 8.16501 15.6573L15.8332 15.656C16.2208 15.656 16.7417 15.8999 16.9901 16.1984C16.9901 16.1984 20.003 19.8213 21.3931 19.9372C22.7831 20.0536 23.5225 19.1263 23.7449 17.7389C23.7445 17.7389 25.024 12.0698 21.854 6.86265ZM9.11828 11.1018H7.474V12.6865C7.474 12.6865 7.12581 12.9524 6.58697 12.9457C6.04902 12.9376 5.80555 12.6557 5.80555 12.6557V11.1022H4.25258C4.25258 11.1022 4.05879 10.9035 4.00687 10.3803C3.95585 9.85717 4.22125 9.43424 4.22125 9.43424H5.86597V7.78996C5.86597 7.78996 6.20432 7.60871 6.6908 7.62258C6.98245 7.63141 7.26935 7.69884 7.53442 7.82084L7.5277 9.43379H9.08068C9.08068 9.43379 9.35189 9.78198 9.37427 10.2027C9.39665 10.6238 9.11828 11.1018 9.11828 11.1018ZM16.6603 12.9081C16.4894 12.9082 16.3201 12.8746 16.1622 12.8092C16.0043 12.7439 15.8609 12.648 15.7401 12.5271C15.6193 12.4062 15.5235 12.2627 15.4582 12.1047C15.393 11.9468 15.3595 11.7775 15.3597 11.6066C15.3594 11.4357 15.3928 11.2664 15.458 11.1084C15.5232 10.9504 15.619 10.8068 15.7398 10.6859C15.8606 10.565 16.0041 10.4691 16.1621 10.4038C16.3201 10.3384 16.4894 10.3049 16.6603 10.3052C16.8341 10.3006 17.007 10.3309 17.1689 10.3942C17.3308 10.4576 17.4783 10.5527 17.6029 10.674C17.7274 10.7953 17.8264 10.9404 17.8939 11.1005C17.9615 11.2607 17.9963 11.4328 17.9963 11.6066C17.9963 11.7805 17.9615 11.9525 17.8939 12.1127C17.8264 12.2729 17.7274 12.4179 17.6029 12.5392C17.4783 12.6605 17.3308 12.7556 17.1689 12.819C17.007 12.8823 16.8341 12.9126 16.6603 12.9081ZM16.6603 9.32727C16.4894 9.32745 16.3202 9.29392 16.1623 9.22859C16.0044 9.16327 15.8609 9.06744 15.7401 8.94658C15.6193 8.82573 15.5235 8.68224 15.4582 8.52431C15.393 8.36639 15.3595 8.19714 15.3597 8.02626C15.3594 7.85533 15.3928 7.68601 15.458 7.52801C15.5232 7.37 15.619 7.22643 15.7398 7.10552C15.8606 6.98461 16.0041 6.88874 16.1621 6.82341C16.3201 6.75808 16.4894 6.72457 16.6603 6.72481C17.0055 6.72481 17.3366 6.86191 17.5807 7.10597C17.8249 7.35002 17.9621 7.68105 17.9622 8.02626C17.9618 8.37136 17.8245 8.70221 17.5804 8.94614C17.3363 9.19008 17.0054 9.32716 16.6603 9.32727ZM19.9014 11.2495C19.7305 11.2497 19.5612 11.2161 19.4033 11.1508C19.2454 11.0854 19.1019 10.9895 18.9811 10.8686C18.8602 10.7477 18.7645 10.6042 18.6992 10.4462C18.634 10.2882 18.6005 10.1189 18.6008 9.94802C18.6005 9.7771 18.634 9.60781 18.6992 9.44983C18.7645 9.29186 18.8602 9.14831 18.9811 9.02741C19.1019 8.90651 19.2454 8.81064 19.4033 8.74529C19.5612 8.67993 19.7305 8.64638 19.9014 8.64656C20.2466 8.64668 20.5776 8.78382 20.8217 9.02785C21.0658 9.27188 21.2031 9.60285 21.2033 9.94802C21.2031 10.2932 21.0658 10.6242 20.8217 10.8682C20.5776 11.1122 20.2466 11.2494 19.9014 11.2495Z" fill="white"/>
</g>
<defs>
<clipPath id="clip0_140_1720">
<rect width="24" height="24" fill="white"/>
</clipPath>
</defs>
</svg>
