<svg width="164" height="54" viewBox="0 0 164 54" fill="none" xmlns="http://www.w3.org/2000/svg">
<path d="M79.7819 0L138.724 2.63024C147.424 3.01849 151.774 3.21262 155.005 4.96118C158.436 6.8177 161.07 9.8636 162.413 13.5261C163.677 16.9756 163.242 21.3084 162.372 29.9738V29.9739C161.637 37.3008 161.269 40.9642 159.713 43.811C158.059 46.8376 155.471 49.2487 152.335 50.6849C149.386 52.0357 145.706 52.1439 138.345 52.3601L82.5309 54L24.4454 52.2934C18.4958 52.1186 15.521 52.0312 13.0429 51.1068C9.3459 49.7278 6.28883 47.0313 4.45903 43.5354C3.23252 41.1921 2.7744 38.2515 1.85815 32.3703C0.712161 25.0144 0.139167 21.3365 0.854987 18.2951C1.92384 13.7538 4.9216 9.90522 9.06316 7.75731C11.8368 6.31883 15.5431 5.97414 22.9557 5.28478L79.7819 0Z" fill="#FBCC58"/>
</svg>
