<svg width="13" height="13" viewBox="0 0 13 13" fill="none" xmlns="http://www.w3.org/2000/svg">
<path d="M7.38898 1.39771H6.38898V12.3977H7.38898C9.91678 12.3977 12.389 10.4352 12.389 7.39771C12.389 4.36024 9.91678 1.39771 7.38898 1.39771Z" fill="url(#paint0_linear_140_1776)"/>
<path d="M7.38898 0.647705H6.38898V11.6477H7.38898C9.91678 11.6477 12.389 9.68517 12.389 6.64771C12.389 3.61024 9.91678 0.647705 7.38898 0.647705Z" fill="url(#paint1_linear_140_1776)"/>
<path d="M6.38898 11.5227H7.38898C9.91679 11.5227 12.389 9.41927 12.389 6.52271C12.389 6.26624 12.42 5.76932 12.389 5.52271H6.38898V11.5227Z" fill="url(#paint2_linear_140_1776)"/>
<path d="M7.38898 11.5227C9.87426 11.5227 11.389 9.56027 11.389 6.52271C11.389 3.48514 9.87426 0.522705 7.38898 0.522705C4.9037 0.522705 2.38898 3.48514 2.38898 6.52271C2.38898 9.56027 4.9037 11.5227 7.38898 11.5227Z" fill="url(#paint3_linear_140_1776)"/>
<path d="M6.38895 6.46023H2.38895C2.38635 6.53974 2.38906 6.38067 2.38895 6.46023C2.38895 9.64217 3.9448 12.4602 6.38895 12.4602C7.85731 12.4602 9.58391 11.8935 10.3889 10.4602L6.38895 6.46023Z" fill="url(#paint4_linear_140_1776)"/>
<path d="M2.38898 6.49161C2.38898 9.61906 4.9037 12.4916 7.38898 12.4916C9.87426 12.4916 11.389 9.61906 11.389 6.49161C11.389 6.37835 11.3942 6.60323 11.389 6.49161H2.38898C2.38898 6.37835 2.38375 6.60323 2.38898 6.49161Z" fill="url(#paint5_linear_140_1776)"/>
<path d="M5.38899 6.50724H2.38899C2.38457 6.62138 2.38899 6.39143 2.38899 6.50724C2.38899 9.27681 3.67318 11.9367 5.38899 12.5072V6.50724Z" fill="url(#paint6_linear_140_1776)"/>
<path d="M7.38898 0.514956C7.15124 0.515049 6.62162 0.465328 6.38898 0.514956V11.515C6.62162 11.5646 7.15124 11.5149 7.38898 11.515C9.75968 11.515 11.389 9.55251 11.389 6.51496C11.389 3.4774 9.75968 0.514956 7.38898 0.514956Z" fill="url(#paint7_linear_140_1776)"/>
<path d="M6.38898 1.5C4.45607 1.5 3.38898 4.01485 3.38898 6.5C3.38898 8.98515 4.45607 10.5 6.38898 10.5C8.32188 10.5 10.389 8.98515 10.389 6.5C10.389 4.01485 8.32191 1.5 6.38898 1.5ZM6.38898 9.5C4.84254 9.5 4.38898 8.48817 4.38898 6.5C4.38898 4.51183 4.84254 2.5 6.38898 2.5C7.93541 2.5 9.38898 4.51181 9.38898 6.5C9.38898 8.48819 7.93541 9.5 6.38898 9.5Z" fill="url(#paint8_linear_140_1776)"/>
<path d="M6.38898 3.5C5.28429 3.5 4.38898 5.11928 4.38898 6.5C4.38898 7.88072 5.28429 8.5 6.38898 8.5C7.49367 8.5 8.38898 7.88072 8.38898 6.5C8.38898 5.11928 7.49367 3.5 6.38898 3.5ZM6.38898 7.5C5.72701 7.5 5.38898 7.32731 5.38898 6.5C5.38898 5.67269 5.72699 4.5 6.38898 4.5C7.05097 4.5 7.38898 5.67269 7.38898 6.5C7.38898 7.32731 7.05097 7.5 6.38898 7.5Z" fill="url(#paint9_linear_140_1776)"/>
<path d="M7.38898 7.50014C7.16122 7.98713 6.86878 8.50014 6.38898 8.50014C5.66646 8.50014 5.38898 7.41374 5.38898 6.50014C5.38015 6.57795 5.38898 6.41889 5.38898 6.50014H4.38898C4.38334 6.57893 4.38898 6.41963 4.38898 6.50014C4.38898 8.02518 5.18322 9.50014 6.38898 9.50014C7.14706 9.50014 7.99793 9.24167 8.38898 8.50014L7.38898 7.50014Z" fill="url(#paint10_linear_140_1776)"/>
<path d="M8.38895 8.49998C7.9102 9.48321 7.28683 10.5 6.38895 10.5C4.92649 10.5 4.38895 8.60287 4.38895 6.49998C4.38548 6.57943 4.38895 6.4193 4.38895 6.49998H3.38895C3.38613 6.57943 3.38895 6.41955 3.38895 6.49998C3.38895 9.12865 4.5611 11.5 6.38895 11.5C7.49727 11.5 8.78797 10.7025 9.38895 9.49998L8.38895 8.49998Z" fill="url(#paint11_linear_140_1776)"/>
<path d="M4.38898 6.5001H1.38898L0.388977 4.5001C0.225548 4.5001 0.29506 4.36553 0.388977 4.5001C0.507299 4.5001 1.32121 4.40257 1.38898 4.5001V5.5001V4.5001C1.30073 4.5001 1.36479 4.41484 1.38898 4.5001C1.37198 4.48437 1.41207 4.5001 1.38898 4.5001H2.38898C2.36924 4.49806 2.40358 4.51362 2.38898 4.5001C2.37194 4.51033 2.40871 4.50215 2.38898 4.5001C2.37296 4.50041 2.40274 4.49185 2.38898 4.5001C2.37492 4.49238 2.405 4.4998 2.38898 4.5001C2.36559 4.50378 2.40974 4.51152 2.38898 4.5001C2.37266 4.51735 2.41236 4.49643 2.38898 4.5001C2.26296 4.46558 2.47901 4.40494 2.38898 4.5001C2.64217 4.56944 3.23832 4.284 3.38898 4.5001L4.38898 6.5001Z" fill="url(#paint12_linear_140_1776)"/>
<path d="M2.29077 6.5H5.29077L4.29077 5.5H1.29077L2.29077 6.5Z" fill="url(#paint13_linear_140_1776)"/>
<path d="M3.29074 4.5001C3.15038 4.284 2.52661 4.56944 2.29074 4.5001C2.17334 4.46558 2.37461 4.40493 2.29074 4.5001C2.27554 4.51735 2.31252 4.49643 2.29074 4.5001C2.26895 4.50378 2.31008 4.51152 2.29074 4.5001C2.27764 4.49237 2.30566 4.4998 2.29074 4.5001C2.27581 4.5004 2.30356 4.49185 2.29074 4.5001C2.27486 4.51032 2.30912 4.50215 2.29074 4.5001C2.27235 4.49805 2.30434 4.5136 2.29074 4.5001C2.27491 4.48437 2.31225 4.5001 2.29074 4.5001H1.29074C1.20852 4.5001 1.2682 4.41484 1.29074 4.5001V5.5001L2.29074 6.5001H4.29074L3.29074 4.5001Z" fill="url(#paint14_linear_140_1776)"/>
<path d="M3.29078 4.5001C3.14822 4.284 2.53036 4.56945 2.29078 4.5001C2.17155 4.46558 2.37598 4.40494 2.29078 4.5001C2.27535 4.51735 2.31291 4.49643 2.29078 4.5001C2.26866 4.50378 2.31043 4.51152 2.29078 4.5001C2.27748 4.49237 2.30594 4.49981 2.29078 4.5001C2.27562 4.5004 2.30381 4.49185 2.29078 4.5001C2.27466 4.51032 2.30945 4.50215 2.29078 4.5001C2.27211 4.49806 2.3046 4.51361 2.29078 4.5001C2.2747 4.48437 2.31264 4.5001 2.29078 4.5001H1.29078C1.26219 4.50004 1.313 4.48097 1.29078 4.5001C1.27287 4.49491 1.30891 4.5021 1.29078 4.5001C1.53036 4.56944 2.14823 4.284 2.29078 4.5001L3.29078 6.5001H4.29078L3.29078 4.5001Z" fill="url(#paint15_linear_140_1776)"/>
<path d="M4.29076 4.50002C4.10551 4.28092 3.60207 4.57033 3.29076 4.50002C3.13582 4.46502 2.40146 4.40354 2.29076 4.50002C2.2707 4.51751 2.31951 4.4963 2.29076 4.50002C2.26201 4.50375 2.31629 4.5116 2.29076 4.50002C2.27347 4.49218 2.31045 4.49972 2.29076 4.50002C2.27106 4.50033 2.30768 4.49166 2.29076 4.50002C2.27689 4.50684 2.30679 4.49857 2.29076 4.50002C2.27473 4.50147 2.30607 4.50421 2.29076 4.50002C2.50808 4.58496 3.15282 4.33688 3.29076 4.50002L4.29076 6.50002H5.29076L4.29076 4.50002Z" fill="url(#paint16_linear_140_1776)"/>
<path d="M4.29076 4.50002C4.10551 4.28092 3.60207 4.57033 3.29076 4.50002C3.13582 4.46502 2.40146 4.40354 2.29076 4.50002C2.2707 4.51751 2.31951 4.4963 2.29076 4.50002C2.26201 4.50375 2.31629 4.5116 2.29076 4.50002C2.27347 4.49218 2.31045 4.49972 2.29076 4.50002C2.27106 4.50033 2.30768 4.49166 2.29076 4.50002C2.27689 4.50684 2.30679 4.49857 2.29076 4.50002C2.27473 4.50147 2.30607 4.50421 2.29076 4.50002C2.50808 4.58496 3.15282 4.33688 3.29076 4.50002L4.29076 6.50002H5.29076L4.29076 4.50002Z" fill="url(#paint17_linear_140_1776)"/>
<path d="M4.29077 6.5H1.29077L0.290771 8.5C0.127343 8.5 0.196854 8.63458 0.290771 8.5C0.409093 8.5 1.223 8.59753 1.29077 8.5V7.5V8.5C1.20252 8.5 1.26658 8.58526 1.29077 8.5C1.27377 8.51574 1.31387 8.5 1.29077 8.5H2.29077C2.27104 8.50205 2.30537 8.48649 2.29077 8.5C2.27373 8.48977 2.31051 8.49795 2.29077 8.5C2.27475 8.4997 2.30453 8.50825 2.29077 8.5C2.27671 8.50772 2.30679 8.5003 2.29077 8.5C2.26739 8.49633 2.31154 8.48858 2.29077 8.5C2.27446 8.48275 2.31415 8.50367 2.29077 8.5C2.16476 8.53452 2.38081 8.59517 2.29077 8.5C2.54397 8.43067 3.14011 8.71611 3.29077 8.5L4.29077 6.5Z" fill="url(#paint18_linear_140_1776)"/>
<path d="M1.19253 7.5L0.192534 8.5C-0.00283712 8.5 0.0802609 8.62664 0.192534 8.5C0.333983 8.5 1.11152 8.59179 1.19253 8.5V7.5V8.5C1.08703 8.5 1.16362 8.58024 1.19253 8.5H2.19253C2.17222 8.51481 2.22015 8.5 2.19253 8.5C2.16894 8.50193 2.20999 8.48728 2.19253 8.5C2.17217 8.49038 2.21613 8.49807 2.19253 8.5C2.17338 8.49971 2.20899 8.50776 2.19253 8.5C2.17572 8.50727 2.21168 8.50029 2.19253 8.5C2.16458 8.49654 2.21736 8.48925 2.19253 8.5C2.17303 8.48377 2.22049 8.50346 2.19253 8.5C2.30017 8.58956 3.04189 8.53249 3.19253 8.5C3.49522 8.43475 4.01243 8.70337 4.19253 8.5V7.5H1.19253Z" fill="url(#paint19_linear_140_1776)"/>
<path d="M3.07516 8.5C2.9348 8.7161 2.31103 8.43066 2.07516 8.5C1.95777 8.53452 2.15904 8.59517 2.07516 8.5C2.05996 8.48275 2.09694 8.50367 2.07516 8.5C2.05338 8.49633 2.09451 8.48858 2.07516 8.5C2.06206 8.50773 2.09008 8.5003 2.07516 8.5C2.06024 8.4997 2.08798 8.50825 2.07516 8.5C2.05929 8.48978 2.09354 8.49795 2.07516 8.5C2.05678 8.50205 2.08877 8.4865 2.07516 8.5C2.05933 8.51573 2.09668 8.5 2.07516 8.5H1.07516C0.992947 8.5 1.05263 8.58526 1.07516 8.5V7.5L2.07516 6.5H4.07516L3.07516 8.5Z" fill="url(#paint20_linear_140_1776)"/>
<path d="M3.07515 8.5C2.93258 8.7161 2.31472 8.43066 2.07515 8.5C1.95591 8.53452 2.16034 8.59517 2.07515 8.5C2.05971 8.48275 2.09727 8.50367 2.07515 8.5C2.05302 8.49633 2.0948 8.48858 2.07515 8.5C2.06184 8.50773 2.0903 8.5003 2.07515 8.5C2.05999 8.4997 2.08817 8.50825 2.07515 8.5C2.05902 8.48978 2.09382 8.49795 2.07515 8.5C2.05648 8.50205 2.08897 8.4865 2.07515 8.5C2.05907 8.51573 2.097 8.5 2.07515 8.5H1.07515C1.04655 8.50007 1.09736 8.51914 1.07515 8.5C1.0574 8.50508 1.09343 8.49805 1.07515 8.5C1.31473 8.43067 1.93259 8.71611 2.07515 8.5L3.07515 6.5H4.07515L3.07515 8.5Z" fill="url(#paint21_linear_140_1776)"/>
<path d="M4.07518 8.5C3.88993 8.7191 3.38649 8.4297 3.07518 8.5C2.92024 8.535 2.18589 8.59649 2.07518 8.5C2.05512 8.48251 2.10393 8.50373 2.07518 8.5C2.04643 8.49627 2.10071 8.48842 2.07518 8.5C2.0579 8.50784 2.09488 8.5003 2.07518 8.5C2.05548 8.4997 2.0921 8.50837 2.07518 8.5C2.06131 8.49318 2.09121 8.50145 2.07518 8.5C2.05915 8.49855 2.0905 8.49582 2.07518 8.5C2.2925 8.41506 2.93725 8.66315 3.07518 8.5L4.07518 6.5H5.07518L4.07518 8.5Z" fill="url(#paint22_linear_140_1776)"/>
<path d="M4.07518 8.5C3.88993 8.7191 3.38649 8.4297 3.07518 8.5C2.92024 8.535 2.18589 8.59649 2.07518 8.5C2.05512 8.48251 2.10393 8.50373 2.07518 8.5C2.04643 8.49627 2.10071 8.48842 2.07518 8.5C2.0579 8.50784 2.09488 8.5003 2.07518 8.5C2.05548 8.4997 2.0921 8.50837 2.07518 8.5C2.06131 8.49318 2.09121 8.50145 2.07518 8.5C2.05915 8.49855 2.0905 8.49582 2.07518 8.5C2.2925 8.41506 2.93725 8.66315 3.07518 8.5L4.07518 6.5H5.07518L4.07518 8.5Z" fill="url(#paint23_linear_140_1776)"/>
<path d="M6.07515 7.49992C6.07502 7.77329 6.24256 7.49992 6.07515 7.49992H0.0751527C-0.0939409 7.49992 0.0751527 7.77608 0.0751527 7.49992C0.0751527 7.22379 -0.0939409 6.49992 0.0751527 6.49992H6.07515C6.075 6.22654 6.24256 6.49992 6.07515 6.49992V7.49992Z" fill="url(#paint24_linear_140_1776)"/>
<defs>
<linearGradient id="paint0_linear_140_1776" x1="9.38898" y1="1.83457" x2="9.38898" y2="12.5537" gradientUnits="userSpaceOnUse">
<stop stop-color="#FFA1AE"/>
<stop offset="1" stop-color="#FF4565"/>
</linearGradient>
<linearGradient id="paint1_linear_140_1776" x1="9.37233" y1="6.93223" x2="12.1047" y2="8.18892" gradientUnits="userSpaceOnUse">
<stop stop-color="#FE0364" stop-opacity="0"/>
<stop offset="0.234" stop-color="#F90362" stop-opacity="0.234"/>
<stop offset="0.517" stop-color="#EA035B" stop-opacity="0.517"/>
<stop offset="0.824" stop-color="#D20250" stop-opacity="0.824"/>
<stop offset="1" stop-color="#C00148"/>
</linearGradient>
<linearGradient id="paint2_linear_140_1776" x1="9.39589" y1="6.56932" x2="9.39589" y2="11.207" gradientUnits="userSpaceOnUse">
<stop stop-color="#FE0364" stop-opacity="0"/>
<stop offset="0.234" stop-color="#F90362" stop-opacity="0.234"/>
<stop offset="0.517" stop-color="#EA035B" stop-opacity="0.517"/>
<stop offset="0.824" stop-color="#D20250" stop-opacity="0.824"/>
<stop offset="1" stop-color="#C00148"/>
</linearGradient>
<linearGradient id="paint3_linear_140_1776" x1="3.63713" y1="4.21262" x2="10.5763" y2="8.33823" gradientUnits="userSpaceOnUse">
<stop stop-color="#FFA1AE"/>
<stop offset="1" stop-color="#FF4565"/>
</linearGradient>
<linearGradient id="paint4_linear_140_1776" x1="6.37975" y1="8.88228" x2="5.69359" y2="6.66539" gradientUnits="userSpaceOnUse">
<stop stop-color="#FE0364" stop-opacity="0"/>
<stop offset="0.234" stop-color="#F90362" stop-opacity="0.234"/>
<stop offset="0.517" stop-color="#EA035B" stop-opacity="0.517"/>
<stop offset="0.824" stop-color="#D20250" stop-opacity="0.824"/>
<stop offset="1" stop-color="#C00148"/>
</linearGradient>
<linearGradient id="paint5_linear_140_1776" x1="6.88898" y1="9.65102" x2="6.88898" y2="12.908" gradientUnits="userSpaceOnUse">
<stop stop-color="#FE0364" stop-opacity="0"/>
<stop offset="0.234" stop-color="#F90362" stop-opacity="0.234"/>
<stop offset="0.517" stop-color="#EA035B" stop-opacity="0.517"/>
<stop offset="0.824" stop-color="#D20250" stop-opacity="0.824"/>
<stop offset="1" stop-color="#C00148"/>
</linearGradient>
<linearGradient id="paint6_linear_140_1776" x1="4.28126" y1="8.56454" x2="3.5741" y2="8.02488" gradientUnits="userSpaceOnUse">
<stop stop-color="#FE0364" stop-opacity="0"/>
<stop offset="0.234" stop-color="#F90362" stop-opacity="0.234"/>
<stop offset="0.517" stop-color="#EA035B" stop-opacity="0.517"/>
<stop offset="0.824" stop-color="#D20250" stop-opacity="0.824"/>
<stop offset="1" stop-color="#C00148"/>
</linearGradient>
<linearGradient id="paint7_linear_140_1776" x1="8.65225" y1="7.06707" x2="10.9397" y2="8.98846" gradientUnits="userSpaceOnUse">
<stop stop-color="#FE0364" stop-opacity="0"/>
<stop offset="0.234" stop-color="#F90362" stop-opacity="0.234"/>
<stop offset="0.517" stop-color="#EA035B" stop-opacity="0.517"/>
<stop offset="0.824" stop-color="#D20250" stop-opacity="0.824"/>
<stop offset="1" stop-color="#C00148"/>
</linearGradient>
<linearGradient id="paint8_linear_140_1776" x1="4.35976" y1="4.51906" x2="9.89613" y2="7.64812" gradientUnits="userSpaceOnUse">
<stop stop-color="#F5FBFF"/>
<stop offset="1" stop-color="#DBD5EF"/>
</linearGradient>
<linearGradient id="paint9_linear_140_1776" x1="4.94366" y1="5.17725" x2="8.06359" y2="6.99101" gradientUnits="userSpaceOnUse">
<stop stop-color="#F5FBFF"/>
<stop offset="1" stop-color="#DBD5EF"/>
</linearGradient>
<linearGradient id="paint10_linear_140_1776" x1="6.37252" y1="7.71893" x2="5.97003" y2="6.49809" gradientUnits="userSpaceOnUse">
<stop stop-color="#DBD5EF" stop-opacity="0"/>
<stop offset="0.285" stop-color="#D9D2EE" stop-opacity="0.285"/>
<stop offset="0.474" stop-color="#D4C9E9" stop-opacity="0.474"/>
<stop offset="0.635" stop-color="#CBBAE2" stop-opacity="0.635"/>
<stop offset="0.779" stop-color="#BFA5D7" stop-opacity="0.78"/>
<stop offset="0.913" stop-color="#AF8ACA" stop-opacity="0.913"/>
<stop offset="1" stop-color="#A274BF"/>
</linearGradient>
<linearGradient id="paint11_linear_140_1776" x1="5.13748" y1="8.21177" x2="4.37677" y2="7.6756" gradientUnits="userSpaceOnUse">
<stop stop-color="#DBD5EF" stop-opacity="0"/>
<stop offset="0.285" stop-color="#D9D2EE" stop-opacity="0.285"/>
<stop offset="0.474" stop-color="#D4C9E9" stop-opacity="0.474"/>
<stop offset="0.635" stop-color="#CBBAE2" stop-opacity="0.635"/>
<stop offset="0.779" stop-color="#BFA5D7" stop-opacity="0.78"/>
<stop offset="0.913" stop-color="#AF8ACA" stop-opacity="0.913"/>
<stop offset="1" stop-color="#A274BF"/>
</linearGradient>
<linearGradient id="paint12_linear_140_1776" x1="2.33986" y1="4.67119" x2="2.33986" y2="5.95442" gradientUnits="userSpaceOnUse">
<stop stop-color="#B3DAFE"/>
<stop offset="1" stop-color="#0182FC"/>
</linearGradient>
<linearGradient id="paint13_linear_140_1776" x1="3.29076" y1="5.92103" x2="3.29076" y2="6.3817" gradientUnits="userSpaceOnUse">
<stop stop-color="#314DC9" stop-opacity="0"/>
<stop offset="0.276" stop-color="#304BC4" stop-opacity="0.276"/>
<stop offset="0.563" stop-color="#2B45B8" stop-opacity="0.563"/>
<stop offset="0.854" stop-color="#243BA3" stop-opacity="0.854"/>
<stop offset="1" stop-color="#1F3596"/>
</linearGradient>
<linearGradient id="paint14_linear_140_1776" x1="2.47524" y1="5.80017" x2="1.93743" y2="6.24908" gradientUnits="userSpaceOnUse">
<stop stop-color="#314DC9" stop-opacity="0"/>
<stop offset="0.276" stop-color="#304BC4" stop-opacity="0.276"/>
<stop offset="0.563" stop-color="#2B45B8" stop-opacity="0.563"/>
<stop offset="0.854" stop-color="#243BA3" stop-opacity="0.854"/>
<stop offset="1" stop-color="#1F3596"/>
</linearGradient>
<linearGradient id="paint15_linear_140_1776" x1="2.72934" y1="5.55914" x2="2.25431" y2="6.14066" gradientUnits="userSpaceOnUse">
<stop stop-color="#314DC9" stop-opacity="0"/>
<stop offset="0.276" stop-color="#304BC4" stop-opacity="0.276"/>
<stop offset="0.563" stop-color="#2B45B8" stop-opacity="0.563"/>
<stop offset="0.854" stop-color="#243BA3" stop-opacity="0.854"/>
<stop offset="1" stop-color="#1F3596"/>
</linearGradient>
<linearGradient id="paint16_linear_140_1776" x1="3.53336" y1="5.5887" x2="2.64719" y2="6.00225" gradientUnits="userSpaceOnUse">
<stop stop-color="#314DC9" stop-opacity="0"/>
<stop offset="0.276" stop-color="#304BC4" stop-opacity="0.276"/>
<stop offset="0.563" stop-color="#2B45B8" stop-opacity="0.563"/>
<stop offset="0.854" stop-color="#243BA3" stop-opacity="0.854"/>
<stop offset="1" stop-color="#1F3596"/>
</linearGradient>
<linearGradient id="paint17_linear_140_1776" x1="3.85303" y1="5.46955" x2="4.3051" y2="5.18145" gradientUnits="userSpaceOnUse">
<stop stop-color="#314DC9" stop-opacity="0"/>
<stop offset="0.276" stop-color="#304BC4" stop-opacity="0.276"/>
<stop offset="0.563" stop-color="#2B45B8" stop-opacity="0.563"/>
<stop offset="0.854" stop-color="#243BA3" stop-opacity="0.854"/>
<stop offset="1" stop-color="#1F3596"/>
</linearGradient>
<linearGradient id="paint18_linear_140_1776" x1="1.79184" y1="6.73804" x2="2.63741" y2="8.04714" gradientUnits="userSpaceOnUse">
<stop stop-color="#B3DAFE"/>
<stop offset="1" stop-color="#0182FC"/>
</linearGradient>
<linearGradient id="paint19_linear_140_1776" x1="2.13383" y1="8.03078" x2="2.13383" y2="8.64327" gradientUnits="userSpaceOnUse">
<stop stop-color="#314DC9" stop-opacity="0"/>
<stop offset="0.276" stop-color="#304BC4" stop-opacity="0.276"/>
<stop offset="0.563" stop-color="#2B45B8" stop-opacity="0.563"/>
<stop offset="0.854" stop-color="#243BA3" stop-opacity="0.854"/>
<stop offset="1" stop-color="#1F3596"/>
</linearGradient>
<linearGradient id="paint20_linear_140_1776" x1="2.25967" y1="7.19993" x2="1.72185" y2="6.75102" gradientUnits="userSpaceOnUse">
<stop stop-color="#314DC9" stop-opacity="0"/>
<stop offset="0.276" stop-color="#304BC4" stop-opacity="0.276"/>
<stop offset="0.563" stop-color="#2B45B8" stop-opacity="0.563"/>
<stop offset="0.854" stop-color="#243BA3" stop-opacity="0.854"/>
<stop offset="1" stop-color="#1F3596"/>
</linearGradient>
<linearGradient id="paint21_linear_140_1776" x1="2.5137" y1="7.44096" x2="2.03868" y2="6.85947" gradientUnits="userSpaceOnUse">
<stop stop-color="#314DC9" stop-opacity="0"/>
<stop offset="0.276" stop-color="#304BC4" stop-opacity="0.276"/>
<stop offset="0.563" stop-color="#2B45B8" stop-opacity="0.563"/>
<stop offset="0.854" stop-color="#243BA3" stop-opacity="0.854"/>
<stop offset="1" stop-color="#1F3596"/>
</linearGradient>
<linearGradient id="paint22_linear_140_1776" x1="3.31779" y1="7.41132" x2="2.43161" y2="6.99777" gradientUnits="userSpaceOnUse">
<stop stop-color="#314DC9" stop-opacity="0"/>
<stop offset="0.276" stop-color="#304BC4" stop-opacity="0.276"/>
<stop offset="0.563" stop-color="#2B45B8" stop-opacity="0.563"/>
<stop offset="0.854" stop-color="#243BA3" stop-opacity="0.854"/>
<stop offset="1" stop-color="#1F3596"/>
</linearGradient>
<linearGradient id="paint23_linear_140_1776" x1="3.63745" y1="7.53049" x2="4.08953" y2="7.81857" gradientUnits="userSpaceOnUse">
<stop stop-color="#314DC9" stop-opacity="0"/>
<stop offset="0.276" stop-color="#304BC4" stop-opacity="0.276"/>
<stop offset="0.563" stop-color="#2B45B8" stop-opacity="0.563"/>
<stop offset="0.854" stop-color="#243BA3" stop-opacity="0.854"/>
<stop offset="1" stop-color="#1F3596"/>
</linearGradient>
<linearGradient id="paint24_linear_140_1776" x1="3.07476" y1="6.52988" x2="3.07476" y2="7.29661" gradientUnits="userSpaceOnUse">
<stop stop-color="#5A5A5A"/>
<stop offset="1" stop-color="#444444"/>
</linearGradient>
</defs>
</svg>
