<svg width="44" height="61" viewBox="0 0 44 61" fill="none" xmlns="http://www.w3.org/2000/svg">
<path d="M34.5968 33.121C36.3601 30.3673 36.5699 27.3146 36.5038 23.8074C36.4261 19.9972 36.1387 16.222 35.6338 12.4624C35.3192 10.1242 33.8705 6.24031 32.3131 4.64401C30.9886 3.28851 28.802 1.84757 27.128 1.38538C26.1065 1.10574 25.2715 0.903773 24.4675 0.763951C22.9916 0.336718 18.8591 0.367789 16.9366 0.787254C16.1714 0.927076 15.3752 1.12128 14.412 1.38538C12.7341 1.84369 10.5514 3.28851 9.22693 4.64401C7.66947 6.24031 6.21688 10.1242 5.90616 12.4624C4.75652 21.0575 3.69232 30.8023 9.59979 37.0594C12.035 39.6422 15.146 41.1297 18.3115 41.5336C24.2733 42.2988 30.4371 39.1373 34.3754 33.4551C34.4531 33.3424 34.5269 33.2337 34.5968 33.121Z" fill="#3A1D16"/>
<path d="M11.2465 42.3456C12.501 42.1514 15.3052 40.7765 16.0781 39.7123C16.9481 38.652 17.8181 29.7889 17.8181 29.7889C19.8455 30.1734 23.613 30.3676 25.5433 29.4976C25.7375 32.2008 25.5433 34.7137 26.122 37.3198C26.3162 38.6714 26.5104 39.6385 27.5707 40.4114C28.5339 41.1843 30.0797 41.5688 31.1439 42.1514C29.7923 44.276 34.4453 46.6918 32.6082 48.3347C30.9652 49.8805 23.2246 51.2321 21.8691 52.875L12.8933 48.4823L11.2426 42.3495L11.2465 42.3456Z" fill="#E5BC85"/>
<path d="M17.0106 30.9188C17.0844 33.0821 19.2478 37.5875 21.4111 38.407C23.7959 39.2265 26.0369 32.2937 26.0369 30.6547H25.5864L17.0106 30.9188Z" fill="#C69B67"/>
<path d="M1.54086 54.067C3.44399 53.7291 6.79972 58.988 9.03298 58.8753C9.367 61.2251 9.25825 66.2587 9.25825 66.2587C7.0211 66.7053 3.66537 66.4801 1.31559 66.3713C1.17965 66.3208 1.54086 54.0709 1.54086 54.0709V54.067Z" fill="#E5BC85"/>
<path d="M41.9724 53.8417C40.0692 53.5038 36.7135 58.9879 34.4802 58.8753C34.1462 61.225 34.255 66.2586 34.255 66.2586C36.4921 66.7053 39.8478 66.48 42.1976 66.3712C42.3336 66.3208 41.9724 53.8455 41.9724 53.8455V53.8417Z" fill="#E5BC85"/>
<path d="M31.0981 43.433L30.1853 67.4008C28.1618 67.3813 25.7887 67.3658 23.7963 67.3658V67.3736C23.7963 67.3736 22.9884 67.3736 21.7572 67.3697C20.526 67.3697 19.7181 67.3736 19.7181 67.3736V67.3658C17.7179 67.3658 15.3215 67.3891 13.2902 67.4163L12.3775 43.7631C12.3775 43.7631 22.1767 49.6007 31.0981 43.433Z" fill="#E4ECF9"/>
<path d="M31.6456 47.282H29.9134C29.2698 47.282 28.7482 47.8037 28.7482 48.4472V63.2333C28.7482 63.8768 29.2698 64.3985 29.9134 64.3985H31.6456C32.2891 64.3985 32.8108 63.8768 32.8108 63.2333V48.4472C32.8108 47.8037 32.2891 47.282 31.6456 47.282Z" fill="#534772"/>
<path d="M13.2516 46.7577H11.5193C10.8758 46.7577 10.3542 47.2794 10.3542 47.9229V62.709C10.3542 63.3525 10.8758 63.8742 11.5193 63.8742H13.2516C13.8951 63.8742 14.4168 63.3525 14.4168 62.709V47.9229C14.4168 47.2794 13.8951 46.7577 13.2516 46.7577Z" fill="#534772"/>
<path d="M5.40197 44.7847C4.05425 45.4566 2.88519 45.845 2.21326 47.2432C1.70835 48.3074 0.0304871 54.2887 0.0304871 54.2887C0.174193 54.4324 2.83081 57.8814 6.7264 58.6814C6.52443 59.2835 6.3885 59.8932 6.34966 60.4952C6.18265 62.678 6.96332 66.1425 8.86645 67.4863C8.86645 67.4863 10.8045 67.4475 13.2864 67.4164L12.8086 41.2426C12.1717 41.5416 7.87993 43.5419 5.39809 44.7847H5.40197Z" fill="#6E5E91"/>
<path d="M43.4801 54.7351C43.4801 54.7351 41.8023 48.3033 41.2974 47.243C40.6254 45.8448 39.4564 45.4564 38.1086 44.7845C35.5685 43.5144 31.1331 41.4482 30.6592 41.2268L30.1815 67.4007C32.675 67.4278 34.6286 67.4628 34.6403 67.4861C36.5395 66.1423 37.6892 62.6778 37.5222 60.495C37.4833 59.8775 37.3435 59.2522 37.1299 58.6346C40.8313 57.8112 43.3325 54.875 43.4724 54.7351H43.4801Z" fill="#6E5E91"/>
<path d="M11.7206 20.013C10.1553 19.3993 7.97256 20.0674 7.69292 21.9705C7.30064 24.5417 9.25814 27.5634 12.0002 27.2255C12.9518 27.1128 13.6237 26.6118 14.4626 26.2195L11.7244 20.013H11.7206Z" fill="#C69B67"/>
<path d="M30.0644 20.013C31.6297 19.3993 33.8124 20.0674 34.0921 21.9705C34.4844 24.5417 32.5269 27.5634 29.7848 27.2255C28.8332 27.1128 28.1613 26.6118 27.3224 26.2195L30.0606 20.013H30.0644Z" fill="#C69B67"/>
<path d="M22.0678 34.9777C20.2035 34.8301 17.5897 33.1678 15.9545 31.9211C14.3893 30.7287 13.7912 30.4296 13.3445 28.3439C12.9716 26.4059 9.91499 14.7735 10.8821 11.1964C11.4025 9.33207 11.7754 7.99211 12.8202 6.50068C14.164 4.63639 16.2497 3.66929 18.413 3.29643C22.2154 2.62451 26.3906 3.37022 29.222 6.05402C32.2049 8.73782 31.3077 14.6298 30.9387 18.2807C30.6397 21.4111 28.8492 29.9131 27.8083 31.0316C27.0626 31.9249 22.0678 34.9816 22.0678 34.9816V34.9777Z" fill="#E5BC85"/>
<path d="M32.2159 10.3226C31.2178 5.69294 25.8113 0.034039 20.8205 2.71007C20.8205 2.71007 20.8205 2.71008 20.8205 2.71396C15.8801 0.274847 10.5707 5.74732 9.58422 10.3226C8.88511 13.5618 9.23856 16.5602 10.0153 19.7411C10.2057 20.5257 11.0096 21.7841 12.5011 22.9687C11.9068 21.4695 11.4213 20.1373 11.4213 18.475C11.4213 17.7409 11.3514 17.0535 11.4757 16.3427C11.6427 15.3795 12.035 15.43 12.672 14.8435C13.7245 13.8725 14.913 13.2627 15.9422 12.2413C18.0745 10.1245 20.4554 7.2504 20.9253 3.9607C21.4225 7.23098 23.7567 10.1478 25.8657 12.2413C26.8949 13.2627 28.0834 13.8725 29.136 14.8435C29.7729 15.43 30.1652 15.3795 30.3322 16.3427C30.4565 17.0573 30.5264 17.7215 30.5264 18.4556C30.5264 20.114 30.2041 21.5044 29.6098 22.9998C31.0935 21.9628 31.4586 20.3665 31.6489 19.5858C32.4257 16.4048 32.9228 13.5657 32.2237 10.3265L32.2159 10.3226Z" fill="#3A1D16"/>
<g style="mix-blend-mode:multiply" opacity="0.2">
<path d="M16.8627 24.0095C16.8627 24.425 16.0626 24.763 15.0722 24.763C14.0818 24.763 13.2817 24.425 13.2817 24.0095C13.2817 23.5939 14.0818 23.256 15.0722 23.256C16.0626 23.256 16.8627 23.5939 16.8627 24.0095Z" fill="#E5BC85"/>
</g>
<g style="mix-blend-mode:multiply" opacity="0.2">
<path d="M29.222 24.0095C29.222 24.425 28.4219 24.763 27.4315 24.763C26.4411 24.763 25.641 24.425 25.641 24.0095C25.641 23.5939 26.4411 23.256 27.4315 23.256C28.4219 23.256 29.222 23.5939 29.222 24.0095Z" fill="#E5BC85"/>
</g>
<path d="M17.1427 19.9548C17.1427 20.7899 16.8048 21.4657 16.3892 21.4657C15.9736 21.4657 15.6357 20.7899 15.6357 19.9548C15.6357 19.1198 15.9736 18.444 16.3892 18.444C16.8048 18.444 17.1427 19.1198 17.1427 19.9548Z" fill="black"/>
<path d="M26.9259 19.9549C26.9259 20.79 26.588 21.4658 26.1724 21.4658C25.7568 21.4658 25.415 20.79 25.415 19.9549C25.415 19.1199 25.7529 18.4441 26.1724 18.4441C26.5918 18.4441 26.9259 19.1199 26.9259 19.9549Z" fill="black"/>
<path d="M14.3533 26.2507C17.5709 26.2507 20.1793 23.6423 20.1793 20.4248C20.1793 17.2072 17.5709 14.5989 14.3533 14.5989C11.1358 14.5989 8.52744 17.2072 8.52744 20.4248C8.52744 23.6423 11.1358 26.2507 14.3533 26.2507Z" stroke="#4C5268" strokeWidth="0.75" stroke-miterlimit="10"/>
<path d="M27.9474 26.2507C31.165 26.2507 33.7733 23.6423 33.7733 20.4248C33.7733 17.2072 31.165 14.5989 27.9474 14.5989C24.7299 14.5989 22.1215 17.2072 22.1215 20.4248C22.1215 23.6423 24.7299 26.2507 27.9474 26.2507Z" stroke="#4C5268" strokeWidth="0.75" stroke-miterlimit="10"/>
<path d="M21.7605 20.1567C21.6401 20.7781 21.6285 21.3996 21.8421 21.92C21.9509 22.1802 22.0985 22.4172 22.2926 22.6152C22.4868 22.8211 22.7238 23.0231 22.9568 23.2561C23.1743 23.493 23.4423 23.7765 23.4967 24.2154C23.5161 24.4329 23.4578 24.6465 23.3646 24.8136C23.353 24.8407 23.3297 24.8796 23.2986 24.9301C23.2675 24.9728 23.2442 25.0116 23.2093 25.0505C23.1471 25.1204 23.0772 25.1864 23.0073 25.2408C22.7276 25.4661 22.4014 25.5865 22.0713 25.6447C21.745 25.6913 21.3799 25.668 21.1158 25.4777C21.4265 25.5437 21.7256 25.4777 21.9975 25.369C22.2694 25.2602 22.5179 25.0971 22.7043 24.9029C22.8791 24.7126 22.9879 24.4601 22.949 24.2776C22.9218 24.0834 22.751 23.862 22.5412 23.66C22.3393 23.4425 22.0985 23.2367 21.881 22.9765C21.6673 22.7085 21.4926 22.39 21.411 22.0521C21.2362 21.3724 21.4188 20.681 21.7605 20.1528V20.1567Z" fill="#C69B67"/>
<path d="M18.8824 28.8256C19.0533 29.6412 20.4709 30.6277 21.2438 30.8841C22.7896 31.354 23.648 30.2393 24.1179 28.9537L18.8824 28.8256Z" fill="white"/>
<path d="M14.9323 16.1642C14.7885 15.8691 14.7691 15.5234 14.8313 15.1971C14.8895 14.867 15.0449 14.5524 15.2624 14.2883C15.6896 13.7601 16.4586 13.4727 17.0762 13.7173C16.7732 13.8377 16.5208 13.9659 16.2955 14.1213C16.0741 14.2805 15.8799 14.4592 15.709 14.6611C15.3634 15.0728 15.1226 15.5506 14.9323 16.1642Z" fill="black"/>
<path d="M25.4929 13.1579C25.8385 13.0181 26.2502 13.022 26.6231 13.1657C26.9998 13.3055 27.3144 13.5813 27.5358 13.9036C27.7611 14.226 27.897 14.595 27.9514 14.9717C28.0096 15.3446 27.9863 15.7291 27.8543 16.0786C27.7417 15.7213 27.6407 15.3989 27.5125 15.0921C27.3804 14.7853 27.2367 14.4979 27.0581 14.2415C26.8794 13.9813 26.6697 13.7599 26.4134 13.5735C26.157 13.3909 25.8541 13.2628 25.4929 13.1618V13.1579Z" fill="black"/>
<path d="M20.1794 20.4248C20.1794 20.4248 21.1504 19.5509 22.1214 20.4248" stroke="#4C5268" strokeWidth="0.75" stroke-miterlimit="10"/>
<path d="M6.3496 61.7769C6.18259 60.2506 6.40009 58.6853 6.86228 57.2172C7.33224 55.7491 8.05464 54.3509 9.05282 53.1857C8.3071 54.5217 7.68567 55.8967 7.23125 57.3337C6.76906 58.7708 6.48942 60.2506 6.3496 61.7769Z" fill="#534772"/>
<path d="M6.74962 55.6636C6.59814 54.9645 6.59038 54.246 6.70301 53.5352C6.8273 52.8322 7.08752 52.1253 7.57301 51.5894C7.35939 52.2729 7.19626 52.9215 7.08363 53.6012C6.96323 54.2732 6.90109 54.9606 6.74573 55.6636H6.74962Z" fill="#534772"/>
<path d="M37.5067 61.5672C37.3513 60.1845 37.0212 58.8562 36.5046 57.59C35.9958 56.3239 35.3122 55.1354 34.4966 54.009C35.5453 54.9334 36.3337 56.1452 36.8658 57.4424C37.3863 58.7474 37.6581 60.1728 37.5067 61.5633V61.5672Z" fill="#534772"/>
<path d="M36.3609 55.2597C36.3026 54.5878 36.2599 53.9508 36.1511 53.3216C36.0463 52.6886 35.9026 52.0827 35.6151 51.4729C35.887 51.6787 36.089 51.97 36.2366 52.2808C36.388 52.5915 36.4774 52.9216 36.5356 53.2595C36.6366 53.9314 36.6055 54.6267 36.3609 55.2597Z" fill="#534772"/>
<path d="M16.3587 37.8946C15.8538 37.4402 15.2828 37.0168 14.6187 36.8692C13.7448 36.6712 12.3932 37.2848 11.7446 37.8752C11.0338 38.5277 10.6182 39.5569 10.393 40.4735C10.1405 41.5067 10.2415 42.3767 10.8746 43.2272C11.4843 44.0506 12.1407 44.6021 12.331 45.6547C12.4981 46.5868 12.0864 47.1927 11.5853 47.9579C11.0338 48.7968 10.6454 49.5891 10.5522 50.6028C10.3969 52.2574 10.8668 53.842 12.0359 55.0461C12.0164 55.0228 12.0087 54.9956 12.0087 54.9645C12.5757 55.8695 13.3719 56.5103 14.2653 57.0696C14.2769 56.6967 14.2031 56.254 14.1953 55.85C14.3119 56.4093 14.7507 56.957 14.9216 57.524C15.8149 55.0655 19.1241 52.8011 18.6619 49.9969C18.557 49.36 18.4211 48.657 18.7551 48.1016C19.0891 48.7463 19.2017 49.5037 19.0697 50.2222C19.6251 49.0959 19.8698 47.787 19.5746 46.5674C19.4115 45.8877 19.093 45.2585 18.8755 44.5944C18.491 43.4059 18.8095 42.1708 18.4677 41.0367C18.0948 39.8055 17.2986 38.7491 16.3548 37.8946H16.3587Z" fill="#3A1D16"/>
</svg>
