<svg width="24" height="24" viewBox="0 0 24 24" fill="none" xmlns="http://www.w3.org/2000/svg">
<path fill-rule="evenodd" clip-rule="evenodd" d="M3.5683 3.13345H4.59242V20.1634C4.59242 20.9129 5.20231 21.5228 5.95175 21.5228H18.7513V22.5469C18.7513 22.9342 18.4354 23.25 18.0481 23.25H3.5683C3.18102 23.25 2.86517 22.9342 2.86517 22.5469V3.83658C2.86522 3.44934 3.18106 3.13345 3.5683 3.13345ZM5.9518 0.75C5.56452 0.75 5.24867 1.06584 5.24867 1.45312V20.1634C5.24867 20.5507 5.56452 20.8665 5.9518 20.8665H20.4317C20.819 20.8665 21.1348 20.5507 21.1348 20.1634V4.67723H18.5669C17.8175 4.67723 17.2076 4.06734 17.2076 3.31786V0.75H5.9518ZM7.9183 5.19497H13.9652C14.0522 5.19497 14.1357 5.1604 14.1972 5.09886C14.2587 5.03733 14.2933 4.95387 14.2933 4.86684C14.2933 4.77982 14.2587 4.69636 14.1972 4.63482C14.1357 4.57329 14.0522 4.53872 13.9652 4.53872H7.9183C7.83127 4.53872 7.74782 4.57329 7.68628 4.63482C7.62474 4.69636 7.59017 4.77982 7.59017 4.86684C7.59017 4.95387 7.62474 5.03733 7.68628 5.09886C7.74782 5.1604 7.83127 5.19497 7.9183 5.19497ZM7.9183 6.777H11.3636C11.4506 6.777 11.5341 6.74243 11.5956 6.68089C11.6572 6.61936 11.6917 6.5359 11.6917 6.44888C11.6917 6.36185 11.6572 6.27839 11.5956 6.21686C11.5341 6.15532 11.4506 6.12075 11.3636 6.12075H7.9183C7.83127 6.12075 7.74782 6.15532 7.68628 6.21686C7.62474 6.27839 7.59017 6.36185 7.59017 6.44888C7.59017 6.5359 7.62474 6.61936 7.68628 6.68089C7.74782 6.74243 7.83127 6.777 7.9183 6.777ZM17.8638 3.31791C17.8638 3.70519 18.1796 4.02103 18.5669 4.02103H21.0738C21.0397 3.94636 20.9914 3.87759 20.9288 3.81506L18.0697 0.955969C18.0072 0.893437 17.9385 0.845063 17.8638 0.810984V3.31791H17.8638ZM8.15267 14.3111C8.09055 14.3112 8.03101 14.3359 7.98708 14.3799C7.94316 14.4238 7.91842 14.4833 7.9183 14.5455V17.4896C7.9183 17.6187 8.02358 17.724 8.15267 17.724H9.32933C9.45842 17.724 9.56371 17.6187 9.56371 17.4896V14.5455C9.56371 14.4164 9.45842 14.3111 9.32933 14.3111H8.15267ZM11.1198 12.8263C11.0577 12.8264 10.9981 12.8512 10.9542 12.8951C10.9103 12.939 10.8856 12.9986 10.8854 13.0607V17.4896C10.8854 17.6187 10.9907 17.724 11.1198 17.724H12.2965C12.4256 17.724 12.5308 17.6187 12.5308 17.4896V13.0607C12.5308 12.9316 12.4256 12.8263 12.2965 12.8263H11.1198ZM14.087 11.3415C14.0249 11.3416 13.9653 11.3664 13.9214 11.4103C13.8775 11.4542 13.8528 11.5138 13.8526 11.5759V17.4895C13.8526 17.6186 13.9579 17.7239 14.087 17.7239H15.2637C15.3928 17.7239 15.498 17.6186 15.498 17.4895V11.5759C15.498 11.4468 15.3928 11.3415 15.2637 11.3415H14.087ZM17.0542 9.85673C16.9921 9.85686 16.9325 9.88159 16.8886 9.92552C16.8447 9.96945 16.8199 10.029 16.8198 10.0911V17.4895C16.8198 17.6186 16.9251 17.7239 17.0542 17.7239H18.2308C18.3599 17.7239 18.4652 17.6186 18.4652 17.4895V10.0911C18.4652 9.96202 18.3599 9.85673 18.2308 9.85673H17.0542ZM15.1776 7.36228L15.6854 7.23052C15.0119 8.23931 14.0702 9.14147 12.928 9.86737C11.5741 10.7278 9.94231 11.339 8.14442 11.5864C8.05842 11.598 7.98053 11.6432 7.92789 11.7122C7.87525 11.7812 7.85217 11.8683 7.86374 11.9543C7.8753 12.0403 7.92055 12.1182 7.98954 12.1708C8.05853 12.2235 8.14561 12.2465 8.23161 12.235C10.1288 11.9739 11.8507 11.3289 13.2792 10.4211C14.4515 9.67603 15.4287 8.75273 16.1462 7.7175L16.1713 8.09944C16.1826 8.27995 16.3382 8.41711 16.5187 8.40577C16.6992 8.39442 16.8364 8.23894 16.825 8.05842L16.7341 6.6847C16.7179 6.43955 16.4627 6.35302 16.2303 6.41334L15.0136 6.72909C14.9301 6.7512 14.8586 6.80549 14.815 6.88011C14.7713 6.95472 14.759 7.04359 14.7806 7.12728C14.8023 7.21097 14.8563 7.28267 14.9307 7.3267C15.005 7.37074 15.0938 7.38353 15.1776 7.36228Z" fill="white"/>
</svg>
