<svg width="24" height="24" viewBox="0 0 24 24" fill="none" xmlns="http://www.w3.org/2000/svg">
<mask id="path-1-inside-1_2079_77" fill="white">
<path d="M19.4063 1.31508H16.766C16.0693 0.510422 15.0426 0 13.8984 0H10.1016C8.95744 0 7.93069 0.510422 7.23398 1.31508H4.59375C3.43064 1.31508 2.48438 2.26322 2.48438 3.42858V21.8865C2.48438 23.0519 3.43064 24 4.59375 24H19.4063C20.5694 24 21.5156 23.0519 21.5156 21.8865V3.42858C21.5156 2.26317 20.5694 1.31508 19.4063 1.31508ZM10.1016 1.40902H13.8984C14.9849 1.40902 15.8871 2.13628 16.1836 3.0998H7.81641C8.11238 2.13797 9.01345 1.40902 10.1016 1.40902ZM20.1094 21.8865C20.1094 22.275 19.794 22.591 19.4063 22.591H4.59375C4.20605 22.591 3.89063 22.275 3.89063 21.8865V3.42858C3.89063 3.04013 4.20605 2.72409 4.59375 2.72409H6.46153C6.3575 3.07474 6.30468 3.43858 6.30469 3.80433C6.30469 4.19339 6.6195 4.50881 7.00781 4.50881H16.9922C17.3805 4.50881 17.6953 4.19339 17.6953 3.80433C17.6953 3.43858 17.6425 3.07474 17.5385 2.72409H19.4063C19.794 2.72409 20.1094 3.04013 20.1094 3.42858V21.8865Z"/>
</mask>
<path d="M19.4063 1.31508H16.766C16.0693 0.510422 15.0426 0 13.8984 0H10.1016C8.95744 0 7.93069 0.510422 7.23398 1.31508H4.59375C3.43064 1.31508 2.48438 2.26322 2.48438 3.42858V21.8865C2.48438 23.0519 3.43064 24 4.59375 24H19.4063C20.5694 24 21.5156 23.0519 21.5156 21.8865V3.42858C21.5156 2.26317 20.5694 1.31508 19.4063 1.31508ZM10.1016 1.40902H13.8984C14.9849 1.40902 15.8871 2.13628 16.1836 3.0998H7.81641C8.11238 2.13797 9.01345 1.40902 10.1016 1.40902ZM20.1094 21.8865C20.1094 22.275 19.794 22.591 19.4063 22.591H4.59375C4.20605 22.591 3.89063 22.275 3.89063 21.8865V3.42858C3.89063 3.04013 4.20605 2.72409 4.59375 2.72409H6.46153C6.3575 3.07474 6.30468 3.43858 6.30469 3.80433C6.30469 4.19339 6.6195 4.50881 7.00781 4.50881H16.9922C17.3805 4.50881 17.6953 4.19339 17.6953 3.80433C17.6953 3.43858 17.6425 3.07474 17.5385 2.72409H19.4063C19.794 2.72409 20.1094 3.04013 20.1094 3.42858V21.8865Z" fill="black"/>
<path d="M16.766 1.31508L14.498 3.2788L15.3953 4.31508H16.766V1.31508ZM7.23398 1.31508V4.31508H8.60473L9.50198 3.2788L7.23398 1.31508ZM16.1836 3.0998V6.0998H20.2455L19.0509 2.21749L16.1836 3.0998ZM7.81641 3.0998L4.94909 2.21748L3.75444 6.0998H7.81641V3.0998ZM6.46153 2.72409L9.33763 3.57735L10.4808 -0.275906H6.46153V2.72409ZM6.30469 3.80433L9.30469 3.80433L9.30469 3.80425L6.30469 3.80433ZM17.6953 3.80433L14.6953 3.80425V3.80433H17.6953ZM17.5385 2.72409V-0.275906H13.5192L14.6624 3.57735L17.5385 2.72409ZM19.4063 -1.68492H16.766V4.31508H19.4063V-1.68492ZM19.034 -0.648642C17.7959 -2.07865 15.9555 -3 13.8984 -3V3C14.1296 3 14.3428 3.0995 14.498 3.2788L19.034 -0.648642ZM13.8984 -3H10.1016V3H13.8984V-3ZM10.1016 -3C8.04445 -3 6.20415 -2.07865 4.96599 -0.648642L9.50198 3.2788C9.65723 3.0995 9.87042 3 10.1016 3V-3ZM7.23398 -1.68492H4.59375V4.31508H7.23398V-1.68492ZM4.59375 -1.68492C1.76824 -1.68492 -0.515625 0.611915 -0.515625 3.42858H5.48438C5.48438 3.91452 5.09304 4.31508 4.59375 4.31508V-1.68492ZM-0.515625 3.42858V21.8865H5.48438V3.42858H-0.515625ZM-0.515625 21.8865C-0.515625 24.7032 1.76824 27 4.59375 27V21C5.09304 21 5.48438 21.4006 5.48438 21.8865H-0.515625ZM4.59375 27H19.4063V21H4.59375V27ZM19.4063 27C22.2318 27 24.5156 24.7032 24.5156 21.8865H18.5156C18.5156 21.4006 18.907 21 19.4063 21V27ZM24.5156 21.8865V3.42858H18.5156V21.8865H24.5156ZM24.5156 3.42858C24.5156 0.611825 22.2317 -1.68492 19.4063 -1.68492V4.31508C18.907 4.31508 18.5156 3.91452 18.5156 3.42858H24.5156ZM10.1016 4.40902H13.8984V-1.59098H10.1016V4.40902ZM13.8984 4.40902C13.6045 4.40902 13.3882 4.2157 13.3163 3.9821L19.0509 2.21749C18.3861 0.0568669 16.3652 -1.59098 13.8984 -1.59098V4.40902ZM16.1836 0.0997968H7.81641V6.0998H16.1836V0.0997968ZM10.6837 3.98211C10.6121 4.2149 10.3963 4.40902 10.1016 4.40902V-1.59098C7.63057 -1.59098 5.61266 0.0610394 4.94909 2.21748L10.6837 3.98211ZM17.1094 21.8865C17.1094 20.6236 18.1316 19.591 19.4063 19.591V25.591C21.4563 25.591 23.1094 23.9263 23.1094 21.8865H17.1094ZM19.4063 19.591H4.59375V25.591H19.4063V19.591ZM4.59375 19.591C5.86837 19.591 6.89063 20.6236 6.89063 21.8865H0.890625C0.890625 23.9263 2.54373 25.591 4.59375 25.591V19.591ZM6.89063 21.8865V3.42858H0.890625V21.8865H6.89063ZM6.89063 3.42858C6.89063 4.69152 5.86836 5.72409 4.59375 5.72409V-0.275906C2.54373 -0.275906 0.890625 1.38874 0.890625 3.42858H6.89063ZM4.59375 5.72409H6.46153V-0.275906H4.59375V5.72409ZM3.58543 1.87084C3.39923 2.49848 3.30467 3.14973 3.30469 3.80441L9.30469 3.80425C9.30469 3.72742 9.31578 3.651 9.33763 3.57735L3.58543 1.87084ZM3.30469 3.80433C3.30469 5.84478 4.95718 7.50881 7.00781 7.50881V1.50881C8.28182 1.50881 9.30469 2.54201 9.30469 3.80433H3.30469ZM7.00781 7.50881H16.9922V1.50881H7.00781V7.50881ZM16.9922 7.50881C19.0428 7.50881 20.6953 5.84478 20.6953 3.80433H14.6953C14.6953 2.54201 15.7182 1.50881 16.9922 1.50881V7.50881ZM20.6953 3.80441C20.6953 3.14973 20.6008 2.49848 20.4146 1.87084L14.6624 3.57735C14.6842 3.651 14.6953 3.72743 14.6953 3.80425L20.6953 3.80441ZM17.5385 5.72409H19.4063V-0.275906H17.5385V5.72409ZM19.4063 5.72409C18.1316 5.72409 17.1094 4.69152 17.1094 3.42858H23.1094C23.1094 1.38874 21.4563 -0.275906 19.4063 -0.275906V5.72409ZM17.1094 3.42858V21.8865H23.1094V3.42858H17.1094Z" fill="#F8FAFC" mask="url(#path-1-inside-1_2079_77)"/>
<mask id="path-3-inside-2_2079_77" fill="white">
<path d="M8.53409 13.9989L7.50002 15.035L7.24718 14.7817C6.97263 14.5065 6.52741 14.5065 6.25282 14.7817C5.97823 15.0568 5.97823 15.5028 6.25282 15.7779L7.00282 16.5294C7.27737 16.8045 7.72259 16.8045 7.99718 16.5294L9.5284 14.9952C9.80299 14.7201 9.80299 14.274 9.5284 13.9989C9.25385 13.7238 8.80863 13.7238 8.53409 13.9989ZM17.2031 14.5597H11.5313C11.143 14.5597 10.8281 14.8751 10.8281 15.2642C10.8281 15.6532 11.143 15.9687 11.5313 15.9687H17.2031C17.5915 15.9687 17.9063 15.6532 17.9063 15.2642C17.9063 14.8751 17.5915 14.5597 17.2031 14.5597ZM8.53409 18.0381L7.50002 19.0741L7.24718 18.8208C6.97263 18.5456 6.52741 18.5456 6.25282 18.8208C5.97823 19.0959 5.97823 19.542 6.25282 19.8171L7.00282 20.5685C7.27737 20.8436 7.72259 20.8437 7.99718 20.5685L9.5284 19.0343C9.80299 18.7592 9.80299 18.3131 9.5284 18.038C9.25385 17.7629 8.80863 17.7629 8.53409 18.0381ZM17.2031 18.5988H11.5313C11.143 18.5988 10.8281 18.9142 10.8281 19.3033C10.8281 19.6924 11.143 20.0078 11.5313 20.0078H17.2031C17.5915 20.0078 17.9063 19.6924 17.9063 19.3033C17.9063 18.9142 17.5915 18.5988 17.2031 18.5988ZM13.3409 11.3005L15.5156 9.12154V9.2055C15.5156 9.59456 15.8305 9.90998 16.2188 9.90998C16.6071 9.90998 16.9219 9.59456 16.9219 9.2055C16.9219 7.2127 16.9252 7.39823 16.9138 7.31953C16.8641 6.97486 16.5692 6.71615 16.2185 6.71625H14.4375C14.0492 6.71625 13.7344 7.03167 13.7344 7.42073C13.7344 7.80979 14.0492 8.12522 14.4375 8.12522H14.5213L12.8438 9.80601L10.7159 7.67404C10.4414 7.39889 9.99616 7.39889 9.72157 7.67404L7.19032 10.2103C6.91573 10.4854 6.91573 10.9314 7.19032 11.2065C7.46487 11.4817 7.91009 11.4817 8.18468 11.2065L10.2188 9.16851L12.3466 11.3005C12.6211 11.5756 13.0664 11.5756 13.3409 11.3005Z"/>
</mask>
<path d="M8.53409 13.9989L7.50002 15.035L7.24718 14.7817C6.97263 14.5065 6.52741 14.5065 6.25282 14.7817C5.97823 15.0568 5.97823 15.5028 6.25282 15.7779L7.00282 16.5294C7.27737 16.8045 7.72259 16.8045 7.99718 16.5294L9.5284 14.9952C9.80299 14.7201 9.80299 14.274 9.5284 13.9989C9.25385 13.7238 8.80863 13.7238 8.53409 13.9989ZM17.2031 14.5597H11.5313C11.143 14.5597 10.8281 14.8751 10.8281 15.2642C10.8281 15.6532 11.143 15.9687 11.5313 15.9687H17.2031C17.5915 15.9687 17.9063 15.6532 17.9063 15.2642C17.9063 14.8751 17.5915 14.5597 17.2031 14.5597ZM8.53409 18.0381L7.50002 19.0741L7.24718 18.8208C6.97263 18.5456 6.52741 18.5456 6.25282 18.8208C5.97823 19.0959 5.97823 19.542 6.25282 19.8171L7.00282 20.5685C7.27737 20.8436 7.72259 20.8437 7.99718 20.5685L9.5284 19.0343C9.80299 18.7592 9.80299 18.3131 9.5284 18.038C9.25385 17.7629 8.80863 17.7629 8.53409 18.0381ZM17.2031 18.5988H11.5313C11.143 18.5988 10.8281 18.9142 10.8281 19.3033C10.8281 19.6924 11.143 20.0078 11.5313 20.0078H17.2031C17.5915 20.0078 17.9063 19.6924 17.9063 19.3033C17.9063 18.9142 17.5915 18.5988 17.2031 18.5988ZM13.3409 11.3005L15.5156 9.12154V9.2055C15.5156 9.59456 15.8305 9.90998 16.2188 9.90998C16.6071 9.90998 16.9219 9.59456 16.9219 9.2055C16.9219 7.2127 16.9252 7.39823 16.9138 7.31953C16.8641 6.97486 16.5692 6.71615 16.2185 6.71625H14.4375C14.0492 6.71625 13.7344 7.03167 13.7344 7.42073C13.7344 7.80979 14.0492 8.12522 14.4375 8.12522H14.5213L12.8438 9.80601L10.7159 7.67404C10.4414 7.39889 9.99616 7.39889 9.72157 7.67404L7.19032 10.2103C6.91573 10.4854 6.91573 10.9314 7.19032 11.2065C7.46487 11.4817 7.91009 11.4817 8.18468 11.2065L10.2188 9.16851L12.3466 11.3005C12.6211 11.5756 13.0664 11.5756 13.3409 11.3005Z" fill="white"/>
<path d="M8.53409 13.9989L10.6574 16.1182L10.6578 16.1179L8.53409 13.9989ZM7.50002 15.035L5.37674 17.1543L7.50008 19.2816L9.62336 17.1543L7.50002 15.035ZM7.24718 14.7817L5.12351 16.9006L5.1239 16.901L7.24718 14.7817ZM6.25282 14.7817L8.37613 16.901L8.37631 16.9008L6.25282 14.7817ZM6.25282 15.7779L8.37619 13.6587L8.37613 13.6586L6.25282 15.7779ZM7.00282 16.5294L9.12631 14.4102L9.12619 14.4101L7.00282 16.5294ZM7.99718 16.5294L5.87378 14.4101L5.87369 14.4102L7.99718 16.5294ZM9.5284 14.9952L7.40509 12.8758L7.405 12.8759L9.5284 14.9952ZM9.5284 13.9989L7.40491 16.118L7.40509 16.1182L9.5284 13.9989ZM8.53409 18.0381L10.6574 20.1574L10.6578 20.157L8.53409 18.0381ZM7.50002 19.0741L5.37674 21.1934L7.50008 23.3207L9.62336 21.1934L7.50002 19.0741ZM7.24718 18.8208L5.12351 20.9397L5.1239 20.9401L7.24718 18.8208ZM6.25282 18.8208L8.37613 20.9401L8.37631 20.9399L6.25282 18.8208ZM6.25282 19.8171L8.37619 17.6978L8.37613 17.6977L6.25282 19.8171ZM7.00282 20.5685L9.12631 18.4494L9.12619 18.4492L7.00282 20.5685ZM7.99718 20.5685L5.87378 18.4493L5.87369 18.4494L7.99718 20.5685ZM9.5284 19.0343L7.40509 16.915L7.405 16.9151L9.5284 19.0343ZM9.5284 18.038L7.40491 20.1572L7.40509 20.1573L9.5284 18.038ZM13.3409 11.3005L11.2176 9.18122L11.2173 9.18151L13.3409 11.3005ZM15.5156 9.12154H18.5156V1.86897L13.3923 7.00228L15.5156 9.12154ZM16.9138 7.31953L19.8832 6.89155L19.8831 6.89108L16.9138 7.31953ZM16.2185 6.71625L16.2185 9.71625L16.2193 9.71625L16.2185 6.71625ZM14.5213 8.12522L16.6447 10.2445L21.7539 5.12522H14.5213V8.12522ZM12.8438 9.80601L10.7204 11.9253L12.8438 14.0528L14.9672 11.9253L12.8438 9.80601ZM10.7159 7.67404L8.59226 9.79301L8.59256 9.79331L10.7159 7.67404ZM9.72157 7.67404L11.845 9.79328L11.8451 9.79319L9.72157 7.67404ZM7.19032 10.2103L9.31363 12.3296L9.31372 12.3295L7.19032 10.2103ZM7.19032 11.2065L9.31399 9.08758L9.31363 9.08721L7.19032 11.2065ZM8.18468 11.2065L6.06131 9.08728L6.06119 9.0874L8.18468 11.2065ZM10.2188 9.16851L12.3421 7.04925L10.2188 4.92176L8.0954 7.04924L10.2188 9.16851ZM12.3466 11.3005L14.4703 9.18151L14.47 9.18122L12.3466 11.3005ZM6.41075 11.8796L5.37669 12.9157L9.62336 17.1543L10.6574 16.1182L6.41075 11.8796ZM9.62331 12.9156L9.37046 12.6623L5.1239 16.901L5.37674 17.1543L9.62331 12.9156ZM9.37085 12.6627C7.92409 11.2127 5.57589 11.213 4.12933 12.6625L8.37631 16.9008C7.47894 17.8 6.02117 17.8003 5.12351 16.9006L9.37085 12.6627ZM4.12951 12.6623C2.686 14.1085 2.686 16.451 4.12951 17.8973L8.37613 13.6586C9.27046 14.5546 9.27046 16.005 8.37613 16.901L4.12951 12.6623ZM4.12945 17.8972L4.87945 18.6487L9.12619 14.4101L8.37619 13.6587L4.12945 17.8972ZM4.87933 18.6485C6.32581 20.098 8.67388 20.0983 10.1207 18.6485L5.87369 14.4102C6.77129 13.5108 8.22892 13.511 9.12631 14.4102L4.87933 18.6485ZM10.1206 18.6486L11.6518 17.1144L7.405 12.8759L5.87378 14.4101L10.1206 18.6486ZM11.6517 17.1145C13.0952 15.6683 13.0952 13.3258 11.6517 11.8796L7.40509 16.1182C6.51076 15.2222 6.51076 13.7718 7.40509 12.8758L11.6517 17.1145ZM11.6519 11.8797C10.2052 10.4301 7.85704 10.4301 6.41042 11.88L10.6578 16.1179C9.76023 17.0174 8.30246 17.0174 7.40491 16.118L11.6519 11.8797ZM17.2031 11.5597H11.5313V17.5597H17.2031V11.5597ZM11.5313 11.5597C9.48065 11.5597 7.82815 13.2237 7.82815 15.2642H13.8281C13.8281 16.5265 12.8053 17.5597 11.5313 17.5597V11.5597ZM7.82815 15.2642C7.82815 17.3046 9.48064 18.9687 11.5313 18.9687V12.9687C12.8053 12.9687 13.8281 14.0019 13.8281 15.2642H7.82815ZM11.5313 18.9687H17.2031V12.9687H11.5313V18.9687ZM17.2031 18.9687C19.2538 18.9687 20.9063 17.3046 20.9063 15.2642H14.9063C14.9063 14.0019 15.9291 12.9687 17.2031 12.9687V18.9687ZM20.9063 15.2642C20.9063 13.2237 19.2538 11.5597 17.2031 11.5597V17.5597C15.9291 17.5597 14.9063 16.5265 14.9063 15.2642H20.9063ZM6.41075 15.9188L5.37669 16.9548L9.62336 21.1934L10.6574 20.1574L6.41075 15.9188ZM9.62331 16.9547L9.37046 16.7014L5.1239 20.9401L5.37674 21.1934L9.62331 16.9547ZM9.37085 16.7018C7.92409 15.2518 5.57589 15.2521 4.12933 16.7016L8.37631 20.9399C7.47894 21.8391 6.02117 21.8394 5.12351 20.9397L9.37085 16.7018ZM4.12951 16.7014C2.686 18.1477 2.686 20.4902 4.12951 21.9364L8.37613 17.6977C9.27046 18.5937 9.27046 20.0441 8.37613 20.9401L4.12951 16.7014ZM4.12945 21.9363L4.87945 22.6878L9.12619 18.4492L8.37619 17.6978L4.12945 21.9363ZM4.87933 22.6877C6.32581 24.1371 8.67388 24.1374 10.1207 22.6877L5.87369 18.4494C6.77129 17.5499 8.22892 17.5501 9.12631 18.4494L4.87933 22.6877ZM10.1206 22.6878L11.6518 21.1535L7.405 16.9151L5.87378 18.4493L10.1206 22.6878ZM11.6517 21.1536C13.0952 19.7074 13.0952 17.3649 11.6517 15.9187L7.40509 20.1573C6.51076 19.2613 6.51076 17.811 7.40509 16.915L11.6517 21.1536ZM11.6519 15.9189C10.2052 14.4693 7.85704 14.4693 6.41042 15.9191L10.6578 20.157C9.76023 21.0565 8.30246 21.0566 7.40491 20.1572L11.6519 15.9189ZM17.2031 15.5988H11.5313V21.5988H17.2031V15.5988ZM11.5313 15.5988C9.48065 15.5988 7.82815 17.2629 7.82815 19.3033H13.8281C13.8281 20.5656 12.8053 21.5988 11.5313 21.5988V15.5988ZM7.82815 19.3033C7.82815 21.3438 9.48064 23.0078 11.5313 23.0078V17.0078C12.8053 17.0078 13.8281 18.041 13.8281 19.3033H7.82815ZM11.5313 23.0078H17.2031V17.0078H11.5313V23.0078ZM17.2031 23.0078C19.2538 23.0078 20.9063 21.3438 20.9063 19.3033H14.9063C14.9063 18.041 15.9291 17.0078 17.2031 17.0078V23.0078ZM20.9063 19.3033C20.9063 17.2629 19.2538 15.5988 17.2031 15.5988V21.5988C15.9291 21.5988 14.9063 20.5656 14.9063 19.3033H20.9063ZM15.4643 13.4197L17.639 11.2408L13.3923 7.00228L11.2176 9.18122L15.4643 13.4197ZM12.5156 9.12154V9.2055H18.5156V9.12154H12.5156ZM12.5156 9.2055C12.5156 11.2459 14.1681 12.91 16.2188 12.91V6.90998C17.4928 6.90998 18.5156 7.94317 18.5156 9.2055H12.5156ZM16.2188 12.91C18.2694 12.91 19.9219 11.2459 19.9219 9.2055H13.9219C13.9219 7.94317 14.9448 6.90998 16.2188 6.90998V12.91ZM19.9219 9.2055C19.9219 8.21902 19.9227 7.75412 19.9221 7.53629C19.9219 7.45561 19.9218 7.32616 19.9159 7.2117C19.9054 7.01114 19.8448 6.62561 19.8832 6.89155L13.9445 7.74751C13.9508 7.79113 13.9567 7.82563 13.96 7.84492C13.9654 7.87612 13.9582 7.83522 13.9537 7.80617C13.9357 7.69147 13.9276 7.59317 13.9239 7.52265C13.9205 7.45782 13.9218 7.42129 13.9221 7.55316C13.9227 7.76044 13.9219 8.19918 13.9219 9.2055H19.9219ZM19.8831 6.89108C19.6223 5.08398 18.074 3.71575 16.2177 3.71625L16.2193 9.71625C15.0643 9.71656 14.1059 8.86574 13.9446 7.74798L19.8831 6.89108ZM16.2185 3.71625H14.4375V9.71625H16.2185V3.71625ZM14.4375 3.71625C12.3869 3.71625 10.7344 5.38028 10.7344 7.42073H16.7344C16.7344 8.68305 15.7115 9.71625 14.4375 9.71625V3.71625ZM10.7344 7.42073C10.7344 9.46118 12.3869 11.1252 14.4375 11.1252V5.12522C15.7115 5.12522 16.7344 6.15841 16.7344 7.42073H10.7344ZM14.4375 11.1252H14.5213V5.12522H14.4375V11.1252ZM12.3979 6.00597L10.7204 7.68677L14.9672 11.9253L16.6447 10.2445L12.3979 6.00597ZM14.9671 7.68675L12.8393 5.55478L8.59256 9.79331L10.7204 11.9253L14.9671 7.68675ZM12.8396 5.55508C11.3928 4.10511 9.04464 4.10537 7.59808 5.5549L11.8451 9.79319C10.9477 10.6924 9.48992 10.6927 8.59226 9.79301L12.8396 5.55508ZM7.59817 5.5548L5.06692 8.09102L9.31372 12.3295L11.845 9.79328L7.59817 5.5548ZM5.06701 8.09093C3.6235 9.53716 3.6235 11.8796 5.06701 13.3259L9.31363 9.08721C10.208 9.98322 10.208 11.4336 9.31363 12.3296L5.06701 8.09093ZM5.06665 13.3255C6.51341 14.7755 8.86161 14.7752 10.3082 13.3257L6.06119 9.0874C6.95856 8.18818 8.41633 8.18792 9.31399 9.08758L5.06665 13.3255ZM10.3081 13.3258L12.3421 11.2878L8.0954 7.04924L6.06131 9.08728L10.3081 13.3258ZM8.0954 11.2878L10.2232 13.4197L14.47 9.18122L12.3421 7.04925L8.0954 11.2878ZM10.2229 13.4194C11.6694 14.8691 14.0178 14.8694 15.4646 13.4194L11.2173 9.18151C12.115 8.28183 13.5728 8.28204 14.4703 9.18151L10.2229 13.4194Z" fill="#F8FAFC" mask="url(#path-3-inside-2_2079_77)"/>
</svg>
