<svg width="43" height="65" viewBox="0 0 43 65" fill="none" xmlns="http://www.w3.org/2000/svg">
<path d="M11.155 45.9494C12.3779 45.7601 15.1113 44.4198 15.8647 43.3825C16.7128 42.3489 17.5608 33.7095 17.5608 33.7095C19.5371 34.0881 23.2094 34.2736 25.091 33.4255C25.2803 36.0605 25.091 38.51 25.6551 41.0542C25.8444 42.3717 26.0299 43.3144 27.0672 44.0678C28.0099 44.8211 29.5129 45.196 30.5503 45.7638C29.2328 47.8347 28.1008 50.1896 26.3138 51.791C24.7124 53.2978 22.827 54.6153 21.5133 56.2168L11.155 45.9531V45.9494Z" fill="#FCD0BE"/>
<path d="M17.2842 35.1366C17.3561 37.2454 18.9576 41.3152 21.0625 42.1141C23.3871 42.9129 25.1324 36.155 25.1324 34.5574L17.2842 35.1404V35.1366Z" fill="#EAB19D"/>
<path d="M11.5073 23.3094C9.98155 22.7112 7.85386 23.3624 7.58127 25.2175C7.1989 27.7238 9.107 30.6692 11.7799 30.3399C12.7074 30.2301 13.3624 29.7417 14.1763 29.3593L11.5073 23.3094Z" fill="#EAB19D"/>
<path d="M29.392 23.3094C30.9177 22.7112 33.0454 23.3624 33.318 25.2175C33.7004 27.7238 31.7923 30.6692 29.1194 30.3399C28.1918 30.2301 27.5407 29.7417 26.7229 29.3593L29.392 23.3094Z" fill="#EAB19D"/>
<path d="M21.5927 37.9002C19.7755 37.7563 17.2276 36.136 15.6337 34.9207C14.108 33.7584 13.5249 33.4669 13.0896 31.4339C12.7261 29.5447 9.7466 18.2059 10.6931 14.719C11.2042 12.9018 11.5638 11.5919 12.5823 10.1419C13.8922 8.32461 15.9252 7.38192 18.034 7.01847C21.7404 6.36351 25.8102 7.0904 28.574 9.70647C31.4816 12.3225 30.607 18.0658 30.2473 21.6245C29.9558 24.676 28.2143 32.9634 27.1959 34.0537C26.469 34.9245 21.6003 37.9078 21.6003 37.9078L21.5927 37.9002Z" fill="#FCD0BE"/>
<path d="M17.9919 32.138C18.4046 32.6416 18.8021 33.1564 19.3132 33.448C19.5669 33.5918 19.8395 33.694 20.131 33.7395L20.3506 33.7736C20.4339 33.7849 20.5172 33.7963 20.5853 33.8038C20.7292 33.819 20.8806 33.8228 21.0283 33.819C21.6189 33.819 22.2019 33.6562 22.6978 33.3306C23.1938 33.005 23.5875 32.5053 23.8828 31.926C23.8147 32.5734 23.5005 33.2284 22.9666 33.6827C22.4404 34.1484 21.7286 34.3793 21.0358 34.3869C20.8617 34.3869 20.6913 34.3755 20.5172 34.3528C20.4263 34.3414 20.3544 34.3263 20.2749 34.3149C20.1878 34.3036 20.1045 34.2884 20.0174 34.2657C19.6805 34.1786 19.3435 34.0348 19.0671 33.8152C18.4993 33.376 18.204 32.7514 17.9957 32.1418L17.9919 32.138Z" fill="#C69383"/>
<path d="M16.3035 22.8172C16.3035 23.6312 15.9742 24.2899 15.5691 24.2899C15.164 24.2899 14.8308 23.6312 14.8308 22.8172C14.8308 22.0032 15.1602 21.3445 15.5691 21.3445C15.9779 21.3445 16.3035 22.0032 16.3035 22.8172Z" fill="black"/>
<path d="M26.3325 22.8172C26.3325 23.6312 26.0031 24.2899 25.598 24.2899C25.1929 24.2899 24.8635 23.6312 24.8635 22.8172C24.8635 22.0032 25.1929 21.3445 25.598 21.3445C26.0031 21.3445 26.3325 22.0032 26.3325 22.8172Z" fill="black"/>
<path d="M22.3004 20.3828C21.8271 20.644 21.4978 21.087 21.3804 21.5716C21.2517 22.0524 21.3539 22.5711 21.653 22.9156C22.3307 23.7182 23.1106 24.4186 23.9132 25.1341C24.11 25.3197 24.3145 25.5089 24.5 25.7437C24.6779 25.9746 24.8559 26.2623 24.8824 26.6144C24.9089 26.9627 24.7574 27.2997 24.5871 27.5231C24.4091 27.7729 24.2009 27.966 23.97 28.1402C23.5119 28.4847 22.9818 28.7005 22.4367 28.8103C21.8953 28.9087 21.3198 28.9049 20.8125 28.7005C21.3463 28.78 21.8763 28.7005 22.3647 28.5377C22.8569 28.3749 23.3112 28.1212 23.6898 27.7956C23.8753 27.6328 24.0419 27.4398 24.1706 27.2467C24.3107 27.0422 24.3675 26.8492 24.3448 26.6561C24.3031 26.2699 23.9169 25.8989 23.5308 25.5506C22.7471 24.8313 21.9407 24.0779 21.3085 23.1844C20.9374 22.6809 20.9034 22.0108 21.1192 21.4807C21.3312 20.9469 21.7817 20.5229 22.3042 20.3752L22.3004 20.3828Z" fill="#C69383"/>
<path d="M15.0693 17.657C14.596 17.9486 13.7593 17.9107 14.2704 17.074C14.5241 16.6386 15.3949 16.2373 15.906 16.2752C16.3792 16.313 16.7048 16.8923 16.1596 17.1119L15.0693 17.657Z" fill="#5B362A"/>
<path d="M25.6056 16.7142C24.6629 16.0971 25.4239 15.48 26.2947 15.8435C26.8398 16.0252 27.3131 16.3886 27.4948 16.9717C27.6765 17.5168 27.4229 17.9181 26.8058 17.5547L25.6056 16.718V16.7142Z" fill="#5B362A"/>
<path d="M32.4052 15.8854C32.5945 12.3569 31.1824 9.37358 28.3127 7.44655C28.3922 7.34812 28.748 7.15125 28.854 7.06039C28.6458 7.09825 28.4792 7.02631 27.9681 6.9506C27.351 6.84459 27.4684 6.93545 27.192 6.79159C28.2067 6.22749 29.1531 5.59524 29.8005 4.49354C27.8281 5.46273 26.2228 4.98192 24.2504 4.67905C25.2839 4.00137 26.2304 3.18739 26.9838 2.15762C25.7042 2.54757 24.4321 3.12303 23.0767 3.24797C22.0053 3.31233 20.7143 2.99431 19.7073 3.5622C20.3736 2.67251 21.5169 1.69574 21.6987 0.495605C19.3855 2.39614 16.7656 3.05489 15.6525 5.77696C15.5693 5.80346 15.486 5.83754 15.3989 5.86782C15.433 5.31129 15.4519 4.73962 15.38 4.18309C14.937 5.12578 14.2707 5.81103 13.7747 6.56065C13.0478 6.93924 12.3626 7.38219 11.7379 7.916C9.38686 9.91497 8.55774 11.9821 8.42144 14.8594C8.28894 17.7215 10.322 24.3658 11.8553 26.2398C11.3328 20.561 12.2566 17.8162 12.2339 17.2483C12.1581 15.4992 10.958 14.7496 12.4421 13.3602C13.3734 12.4894 19.3968 14.3445 20.7976 14.0757C21.4147 14.0038 27.0444 12.7506 27.0444 12.7506C29.6945 12.2282 28.5663 14.8329 28.6534 16.9606C28.6875 17.7442 29.456 22.0261 29.7892 25.0549C29.7892 25.0549 31.3414 20.8411 31.4815 20.3149C31.9206 18.6529 32.3068 17.6761 32.4014 15.8816L32.4052 15.8854Z" fill="#5B362A"/>
<path d="M1.58778 61.9522C3.43909 61.6267 6.71013 62.1718 8.89082 62.062C9.21641 64.3525 9.1104 69.2553 9.1104 69.2553C6.92971 69.6907 3.65868 69.4749 1.3682 69.3651C1.23569 69.3159 1.58778 61.9522 1.58778 61.9522Z" fill="#FCD0BE"/>
<path d="M40.9954 61.9522C39.1441 61.6267 35.873 62.1718 33.6923 62.062C33.3668 64.3525 33.4766 69.2553 33.4766 69.2553C35.6572 69.6907 38.9283 69.4749 41.215 69.3651C41.3475 69.3159 40.9954 61.9522 40.9954 61.9522Z" fill="#FCD0BE"/>
<path d="M40.3444 50.7268C39.6894 49.3639 38.5499 48.9853 37.2362 48.3303C34.6201 47.0204 29.9331 44.8435 29.9331 44.8435C28.555 45.7332 23.7356 49.0497 21.2937 50.8025C18.8517 49.0459 14.0323 45.7294 12.6542 44.8435C12.6542 44.8435 7.96723 47.0242 5.35116 48.3303C4.03745 48.9853 2.89788 49.3639 2.24292 50.7268C1.75075 51.7642 0.115234 62.7736 0.115234 62.7736C0.278029 62.9364 3.76865 63.4286 8.61841 63.156C8.7282 65.5563 8.72819 70.459 8.72819 70.459C8.65626 70.353 14.9674 70.3379 19.3023 70.3417V70.3492C19.3023 70.3492 20.0897 70.3492 21.2899 70.3454C22.49 70.3454 23.2813 70.3492 23.2813 70.3492V70.3417C27.6161 70.3417 33.9273 70.353 33.8553 70.459C33.8553 70.459 33.8553 65.5525 33.9651 63.156C38.8149 63.4286 42.3055 62.9364 42.4683 62.7736C42.4683 62.7736 40.8328 51.7642 40.3406 50.7268H40.3444Z" fill="#D14A5A"/>
<mask id="mask0_142_1771" style="mask-type:luminance" maskUnits="userSpaceOnUse" x="0" y="45" width="43" height="26">
<path d="M40.3444 50.7269C39.6894 49.364 38.5499 48.9854 37.2362 48.3304C35.665 47.5468 33.3518 46.445 31.7504 45.6917L21.43 53.1802L10.6401 45.7825C9.05 46.5321 6.85795 47.5733 5.35116 48.3267C4.03745 48.9816 2.89788 49.3602 2.24292 50.7231C1.75075 51.7605 0.115234 62.7699 0.115234 62.7699C0.278029 62.9327 3.76865 63.4249 8.61841 63.1523C8.7282 65.5526 8.72819 70.4553 8.72819 70.4553C8.65626 70.3493 14.9674 70.3342 19.3023 70.338V70.3455C19.3023 70.3455 20.0897 70.3455 21.2899 70.3418C22.49 70.3418 23.2813 70.3455 23.2813 70.3455V70.338C27.6161 70.338 33.9273 70.3493 33.8553 70.4553C33.8553 70.4553 33.8553 65.5488 33.9651 63.1523C38.8149 63.4249 42.3055 62.9327 42.4683 62.7699C42.4683 62.7699 40.8328 51.7605 40.3406 50.7231L40.3444 50.7269Z" fill="white"/>
</mask>
<g mask="url(#mask0_142_1771)">
<path d="M45.0765 46.6836H-1.01709V51.416H45.0765V46.6836Z" fill="#A83F50"/>
<path d="M45.0762 54.634H-1.01733V59.3664H45.0762V54.634Z" fill="#A83F50"/>
<path d="M45.0762 62.5845H-1.01733V67.3169H45.0762V62.5845Z" fill="#A83F50"/>
</g>
<mask id="mask1_142_1771" style="mask-type:luminance" maskUnits="userSpaceOnUse" x="0" y="44" width="43" height="27">
<path d="M40.3444 50.7268C39.6894 49.3639 38.5499 48.9853 37.2362 48.3303C34.6201 47.0204 29.9331 44.8435 29.9331 44.8435C28.555 45.7332 23.7356 49.0497 21.2937 50.8025C18.8517 49.0459 14.0323 45.7294 12.6542 44.8435C12.6542 44.8435 7.96723 47.0242 5.35116 48.3303C4.03745 48.9853 2.89788 49.3639 2.24292 50.7268C1.75075 51.7642 0.115234 62.7736 0.115234 62.7736C0.278029 62.9364 3.76865 63.4286 8.61841 63.156C8.7282 65.5563 8.72819 70.459 8.72819 70.459C8.65626 70.353 14.9674 70.3379 19.3023 70.3417V70.3492C19.3023 70.3492 20.0897 70.3492 21.2899 70.3454C22.49 70.3454 23.2813 70.3492 23.2813 70.3492V70.3417C27.6161 70.3417 33.9273 70.353 33.8553 70.459C33.8553 70.459 33.8553 65.5525 33.9651 63.156C38.8149 63.4286 42.3055 62.9364 42.4683 62.7736C42.4683 62.7736 40.8328 51.7642 40.3406 50.7268H40.3444Z" fill="white"/>
</mask>
<g mask="url(#mask1_142_1771)">
<path d="M9.81909 45.2223L21.4267 53.1803L32.5497 45.1125" stroke="#A83F50" stroke-miterlimit="10"/>
<path d="M-0.266602 61.1384C-0.266602 61.1384 4.91254 62.3916 8.50916 61.5738" stroke="#A83F50" stroke-miterlimit="10"/>
<path d="M42.9608 61.1384C42.9608 61.1384 37.7817 62.3916 34.1851 61.5738" stroke="#A83F50" stroke-miterlimit="10"/>
</g>
<path d="M8.69422 66.0827C8.59958 65.2461 8.52765 64.4094 8.46329 63.5765C8.38757 62.7398 8.33835 61.9031 8.2702 61.074C8.18313 60.2449 8.13013 59.3968 8.12256 58.5563C8.12256 57.7159 8.14906 56.8716 8.23613 56.0349C8.32321 56.8716 8.36864 57.7121 8.44057 58.545C8.49358 59.3817 8.57308 60.2032 8.64123 61.0475C8.7018 61.8879 8.7283 62.7284 8.73209 63.5689C8.74344 64.4094 8.73208 65.2498 8.69422 66.0903V66.0827Z" fill="#A83F50"/>
<path d="M7.43732 59.1204C6.87322 58.6396 6.57413 57.89 6.50977 57.1517C6.44919 56.4135 6.61577 55.6298 7.07387 55.0505C6.89214 55.7547 6.82778 56.4362 6.88457 57.1214C6.94136 57.8067 7.11931 58.4654 7.43732 59.1204Z" fill="#A83F50"/>
<path d="M33.8856 66.0825C33.844 65.242 33.8364 64.4015 33.8478 63.5611C33.8478 62.7206 33.8781 61.8839 33.9386 61.0397C34.0068 60.1992 34.0825 59.3738 34.1393 58.5372C34.2074 57.7043 34.2529 56.8676 34.3437 56.0271C34.4308 56.8676 34.4535 57.708 34.4573 58.5485C34.4497 59.389 34.3967 60.237 34.3135 61.0662C34.2453 61.8991 34.1961 62.7357 34.1204 63.5686C34.056 64.4053 33.9841 65.242 33.8894 66.0749L33.8856 66.0825Z" fill="#A83F50"/>
<path d="M35.1387 59.1204C35.4529 58.4654 35.6346 57.8067 35.6914 57.1214C35.752 56.4362 35.6838 55.7547 35.5021 55.0505C35.9602 55.6298 36.1268 56.4135 36.0662 57.1517C36.0019 57.89 35.7028 58.6396 35.1387 59.1204Z" fill="#A83F50"/>
</svg>
