<svg width="45" height="63" viewBox="0 0 45 63" fill="none" xmlns="http://www.w3.org/2000/svg">
<path d="M9.38452 44.186C9.38452 43.6811 9.38452 42.9198 10.0176 42.4149C11.4119 41.2769 16.5931 41.0633 18.3681 41.0244C31.2822 40.7409 32.8086 41.071 34.6923 44.4423C30.1364 43.6849 26.2136 44.1898 22.1666 43.8092C17.9913 43.4286 13.9443 43.8092 9.76903 44.3141L9.3884 44.186H9.38452Z" fill="#7A7F7F"/>
<path d="M11.9092 44.3451C13.1638 44.151 15.968 42.776 16.737 41.7118C17.607 40.6515 18.477 31.7884 18.477 31.7884C20.5044 32.1768 24.2718 32.3671 26.2021 31.4971C26.3963 34.2003 26.2021 36.7132 26.7809 39.3232C26.975 40.6748 27.1654 41.6419 28.2296 42.4148C29.1967 43.1877 30.7425 43.5722 31.8028 44.1548C31.6202 46.7765 29.2899 48.6952 27.4567 50.3381C25.8138 51.8839 23.8834 53.2355 22.5318 54.8784L11.9054 44.349L11.9092 44.3451Z" fill="#E5BC85"/>
<path d="M18.1974 33.2524C18.2712 35.4158 19.9102 39.591 22.0735 40.4106C24.4583 41.2301 26.2488 34.2972 26.2488 32.6582L18.1974 33.2563V33.2524Z" fill="#C69B67"/>
<path d="M12.2704 21.1153C10.7052 20.5016 8.52243 21.1697 8.24278 23.0728C7.85051 25.644 9.80801 28.6657 12.5501 28.3317C13.5016 28.219 14.1697 27.718 15.0086 27.3257L12.2704 21.1192V21.1153Z" fill="#C69B67"/>
<path d="M30.6181 21.1153C32.1834 20.5016 34.3661 21.1697 34.6458 23.0728C35.038 25.644 33.0805 28.6657 30.3385 28.3317C29.3869 28.219 28.7189 27.718 27.8799 27.3257L30.6181 21.1192V21.1153Z" fill="#C69B67"/>
<path d="M22.6173 36.084C20.753 35.9364 18.1391 34.2741 16.5039 33.0274C14.9387 31.835 14.3406 31.5359 13.8939 29.4503C13.5211 27.5122 10.4644 15.8798 11.4354 12.3027C11.9559 10.4384 12.3287 9.09453 13.3735 7.60698C14.7173 5.74269 16.803 4.77171 18.9664 4.39885C22.7687 3.72693 26.944 4.47264 29.7793 7.15644C32.7621 9.84024 31.8649 15.7322 31.4921 19.3831C31.193 22.5135 29.4025 31.0155 28.3616 32.1341C27.6159 33.0274 22.6212 36.0879 22.6212 36.0879L22.6173 36.084Z" fill="#E5BC85"/>
<path d="M10.6431 7.36614C10.1498 9.39355 6.21536 10.3179 8.24666 13.025C7.13974 13.9494 6.27751 15.9768 7.81555 17.0216C6.52219 18.6218 7.93983 19.2355 9.2293 19.9113C10.2741 20.4045 11.3344 21.3211 12.2588 21.9387C12.752 20.8318 12.5501 18.6218 12.5501 17.3906C12.4879 16.2837 12.5501 16.1594 13.1637 15.3593C13.657 14.6835 14.1503 13.7591 13.657 12.9007C15.0086 13.2076 16.6709 11.1802 15.564 10.0111C16.2398 9.76641 17.7157 9.02846 18.4537 9.39744C18.6983 9.52172 18.8848 10.0732 19.1916 10.2597C19.5606 10.5665 20.1781 10.6908 20.6675 10.7529C20.5432 10.3218 20.3607 9.82855 20.2364 9.40132C20.85 10.2636 22.0191 10.6325 23.0678 10.6325C22.7609 10.081 22.3298 9.58775 22.023 9.03234C23.0678 9.70815 24.6058 8.78766 25.6506 9.46346C26.3264 9.89458 26.0817 11.9259 27.1265 10.8151C27.0643 11.6773 27.9266 11.6152 28.5402 11.3705C28.416 12.4153 29.7093 12.3531 30.4473 12.4153C30.5715 14.567 30.6298 16.7225 30.6298 18.8742C30.6298 20.3501 31.0143 21.9154 31.158 21.8066C31.7328 21.3755 33.166 20.0045 34.3817 19.4879C35.1041 19.1811 35.1196 18.1363 35.0575 17.3984C34.9954 16.7847 34.506 16.105 34.5642 15.6778C34.6885 14.9398 35.4847 14.4466 35.4265 13.5882C35.3643 12.7881 34.5642 12.5434 34.44 11.8676C34.3778 11.4365 34.8711 10.5743 34.8089 10.0228C34.7468 9.2848 34.44 8.36042 33.9467 7.87104C33.6399 7.56421 33.2709 7.37779 32.7776 7.31953C33.333 7.19524 33.5777 6.64372 33.5156 6.15046C33.1466 6.76412 32.0397 6.51943 31.6707 5.90577C31.1774 5.04354 31.6707 4.30559 30.5638 3.56764C29.6394 2.89183 28.4121 3.07438 27.5498 2.70541C26.7498 2.39858 25.5846 0.984824 24.5359 1.84318C23.3668 0.180849 20.7219 0.429419 19.3081 1.59848C18.7527 2.0296 18.7527 2.39858 18.0148 2.39858C17.4594 2.39858 16.9078 1.96746 16.3524 1.96746C16.3524 2.09174 16.2903 2.21215 16.2903 2.33643C15.4902 2.15389 14.9387 1.90532 14.2007 2.39858C14.0182 2.52286 14.0182 2.89184 13.8318 3.01224C13.5249 3.13652 13.0938 3.01224 12.7248 3.07438C10.8178 3.25693 10.2663 4.42599 10.2663 6.15046L10.6353 7.38167L10.6431 7.36614Z" fill="#35231E"/>
<path d="M19.1487 30.0056C19.6187 30.662 20.0925 31.1747 21.2383 31.3417C22.7336 31.5941 24.0619 31.1747 24.5707 30.1532L19.1487 30.0056Z" fill="white"/>
<path d="M23.0909 32.0992H20.9392V34.0723H23.0909V32.0992Z" fill="#35231E"/>
<path d="M19.0751 30.0482C19.0751 29.6715 19.145 31.5397 18.3799 31.8232C17.0477 32.464 17.5487 29.4462 17.8478 28.8753C18.543 27.5547 22.5357 27.7217 24.2951 27.881C25.7865 28.0402 26.3031 29.252 26.5167 30.6891C26.6255 31.5397 26.1633 32.231 25.3632 31.5397C24.9903 31.2212 24.7767 30.4716 24.668 30.1026L19.0712 30.0482H19.0751Z" fill="#35231E"/>
<path d="M15.0779 15.9809C14.9575 15.5925 15.1517 15.1497 15.4702 14.8778C15.7848 14.5982 16.1926 14.4622 16.5771 14.4389C16.9655 14.4156 17.35 14.5011 17.684 14.6797C18.0103 14.8623 18.3171 15.1497 18.4142 15.542C18.0181 15.5303 17.7268 15.5497 17.4394 15.5614L16.647 15.6002C16.3985 15.6158 16.1654 15.6313 15.9246 15.6663C15.6838 15.7051 15.4236 15.7634 15.0818 15.977L15.0779 15.9809Z" fill="#35231E"/>
<path d="M28.2522 15.9808C27.9104 15.7711 27.6501 15.709 27.4093 15.6701C27.1685 15.6313 26.9355 15.6196 26.6869 15.6041L25.8946 15.5653C25.6072 15.5536 25.3198 15.5381 24.9197 15.5458C25.0168 15.1497 25.3237 14.8623 25.6499 14.6836C25.9839 14.5049 26.3646 14.4156 26.7568 14.4428C27.1414 14.4661 27.5453 14.602 27.8638 14.8817C28.1784 15.1536 28.3726 15.5963 28.256 15.9847L28.2522 15.9808Z" fill="#35231E"/>
<path d="M17.1874 20.6143C17.1874 21.4493 16.8495 22.1251 16.43 22.1251C16.0105 22.1251 15.6765 21.4493 15.6765 20.6143C15.6765 19.7792 16.0144 19.1034 16.43 19.1034C16.8456 19.1034 17.1874 19.7792 17.1874 20.6143Z" fill="black"/>
<path d="M27.4761 20.6141C27.4761 21.4492 27.1381 22.125 26.7226 22.125C26.307 22.125 25.9691 21.4492 25.9691 20.6141C25.9691 19.7791 26.307 19.1033 26.7226 19.1033C27.1381 19.1033 27.4761 19.7791 27.4761 20.6141Z" fill="black"/>
<path d="M22.547 18.2762C22.3489 18.4898 22.2091 18.7423 22.1392 19.0103C22.0732 19.2822 22.0771 19.5618 22.1198 19.8337C22.2052 20.3774 22.446 20.894 22.7451 21.3562C23.0442 21.8184 23.4442 22.1912 23.8753 22.5874C24.2987 22.9836 24.7415 23.4535 24.99 24.0478C25.0522 24.2031 25.0988 24.3313 25.1454 24.5022C25.1881 24.6808 25.1959 24.8595 25.1726 25.042C25.1221 25.4032 24.9318 25.7256 24.691 25.9548C24.4463 26.1878 24.155 26.3509 23.8443 26.4519C23.5413 26.5568 23.1762 26.5762 22.8577 26.4908C22.5315 26.4092 22.2441 26.2189 22.0266 25.9936C21.8052 25.7683 21.6421 25.512 21.4945 25.2518C21.2148 24.7274 21.009 24.1915 20.7255 23.6827C21.1177 24.1177 21.3857 24.6498 21.7353 25.1003C22.0615 25.5586 22.4694 25.9664 22.9548 26.048C23.4248 26.1334 23.9686 25.9159 24.3026 25.5664C24.4696 25.3916 24.5861 25.1819 24.6094 24.9682C24.6211 24.8595 24.6172 24.7469 24.59 24.642C24.5628 24.5332 24.5084 24.3895 24.4618 24.2769C24.089 23.2943 22.9587 22.6961 22.3645 21.5892C22.0732 21.0571 21.8712 20.4706 21.844 19.857C21.8402 19.5501 21.8829 19.2433 21.9994 18.9598C22.1159 18.6763 22.314 18.4393 22.5548 18.2723L22.547 18.2762Z" fill="#C69B67"/>
<path d="M2.09045 60.7627C3.9897 60.4248 7.34542 60.988 9.58257 60.8754C9.91659 63.2251 9.80784 68.2587 9.80784 68.2587C7.57069 68.7054 4.21497 68.4801 1.86518 68.3714C1.72925 68.3209 2.09045 60.7666 2.09045 60.7666V60.7627Z" fill="#E5BC85"/>
<path d="M42.522 60.7627C40.6228 60.4248 37.2671 60.988 35.0299 60.8754C34.6959 63.2251 34.8085 68.2587 34.8085 68.2587C37.0457 68.7054 40.4014 68.4801 42.7473 68.3714C42.8832 68.3209 42.522 60.7666 42.522 60.7666V60.7627Z" fill="#E5BC85"/>
<path d="M31.5573 45.5342C31.4718 45.4953 30.8115 46.0274 30.7222 46.0857C30.3105 46.3614 29.9027 46.6372 29.491 46.9169C27.1645 48.4976 23.7 48.6258 20.9696 48.4549C20.0919 48.4005 19.2024 48.2995 18.3324 48.1519C17.311 47.9772 16.0642 47.5655 15.2136 46.9868C14.7864 46.6955 14.3592 46.4042 13.9319 46.1168C13.8387 46.0546 13.1435 45.4914 13.0503 45.5342C13.0503 45.5342 12.4793 45.7983 11.6249 46.2022L11.6598 69.3971C13.9319 69.366 17.4896 69.3621 20.2589 69.3738C20.2589 69.3738 21.0667 69.3738 22.3018 69.3699C23.533 69.3699 24.3448 69.3738 24.3409 69.3699C26.7023 69.3699 29.6347 69.3699 31.8563 69.3893L32.5982 46.0274C31.9573 45.7284 31.5534 45.538 31.5534 45.538L31.5573 45.5342Z" fill="#EEF5FF"/>
<path d="M11.0423 45.8253C11.7336 46.54 12.5182 47.1459 13.3532 47.6663C14.1844 48.1945 15.066 48.6373 15.9865 48.9868C17.8197 49.6859 19.785 50.0316 21.7425 50.0006C23.7039 49.9539 25.6731 49.6704 27.5568 49.115C28.4967 48.8354 29.4172 48.4703 30.26 47.9692C31.1106 47.4799 31.8796 46.8313 32.4505 46.0195C31.9495 46.8817 31.1921 47.577 30.361 48.1285C29.5182 48.6722 28.5938 49.0801 27.6461 49.3985C26.6984 49.7209 25.7158 49.9306 24.7332 50.0938C23.7466 50.253 22.7523 50.354 21.7503 50.3851C19.7423 50.3851 17.7304 50.0355 15.8778 49.2626C14.0368 48.4858 12.324 47.3517 11.0423 45.8253Z" fill="#BACADD"/>
<path d="M5.9501 46.7847C4.60238 47.4567 3.43331 47.8451 2.76139 49.2433C2.26036 50.3075 0.578613 61.602 0.578613 61.602C0.745623 61.769 4.32661 62.2739 9.30194 61.9942C9.41457 64.4567 9.41457 69.4864 9.41457 69.4864C9.38739 69.4436 12.0673 69.3465 13.4422 69.3271L12.4557 43.864C10.8244 44.6291 7.70953 45.9031 5.94622 46.7809L5.9501 46.7847Z" fill="#BABEBF"/>
<path d="M41.8496 49.2434C41.1776 47.8451 40.0086 47.4567 38.6609 46.7848C36.7538 45.8333 33.1301 44.5283 31.561 43.7942L31.4134 69.401C33.3748 69.4165 35.2275 69.436 35.1925 69.4864C35.1925 69.4864 35.1925 64.4529 35.3051 61.9943C40.2805 62.274 43.8614 61.7729 44.0285 61.6021C44.0285 61.6021 42.3506 50.3076 41.8457 49.2434H41.8496Z" fill="#BABEBF"/>
<path d="M9.38042 65.0005C9.28332 64.1421 9.20953 63.2838 9.1435 62.4254C9.06582 61.5671 9.01533 60.7087 8.94542 59.8581C8.85609 59.0075 8.80171 58.1375 8.79395 57.2753C8.79395 56.4092 8.82113 55.5469 8.91046 54.6886C8.99979 55.5469 9.0464 56.4092 9.1202 57.2637C9.17457 58.122 9.25613 58.9648 9.32604 59.8309C9.38819 60.6932 9.41538 61.5554 9.41926 62.4176C9.43091 63.2799 9.41926 64.1421 9.38042 65.0043V65.0005Z" fill="#9D9E9E"/>
<path d="M8.09461 57.8539C7.5159 57.3607 7.20907 56.5917 7.14304 55.8343C7.0809 55.0769 7.25179 54.273 7.72175 53.6787C7.53532 54.4011 7.4693 55.1002 7.53144 55.8032C7.5897 56.5062 7.77224 57.182 8.09849 57.8539H8.09461Z" fill="#9D9E9E"/>
<path d="M35.2241 65.0003C35.1814 64.1381 35.1736 63.2758 35.1852 62.4136C35.1852 61.5514 35.2163 60.6891 35.2785 59.8269C35.3484 58.9647 35.4299 58.118 35.4843 57.2596C35.5542 56.4052 35.6008 55.5468 35.694 54.6846C35.7834 55.5468 35.8067 56.409 35.8106 57.2713C35.8028 58.1335 35.7484 59.0035 35.6591 59.8541C35.5892 60.7086 35.5387 61.5669 35.461 62.4214C35.395 63.2797 35.3212 64.1381 35.2241 64.9964V65.0003Z" fill="#9D9E9E"/>
<path d="M36.5137 57.8538C36.836 57.1819 37.0225 56.5061 37.0807 55.8031C37.1429 55.1001 37.073 54.401 36.8904 53.6786C37.3604 54.2728 37.5313 55.0768 37.4691 55.8342C37.4031 56.5915 37.0924 57.3606 36.5176 57.8538H36.5137Z" fill="#9D9E9E"/>
<path d="M9.40048 44.186C9.40048 43.6811 9.40048 42.9199 10.0336 42.415C10.6628 41.9023 12.061 41.5683 13.5718 41.3585C13.5718 41.3585 12.8766 54.7542 12.8766 54.7659C12.9465 53.4181 11.7347 51.282 11.3153 50.0158C10.7171 48.202 9.40437 46.1047 9.40048 44.186Z" fill="#CECECE"/>
<path d="M11.1637 60.747H11.1598C11.0006 60.747 10.8724 60.615 10.8724 60.4519C10.8957 58.8167 10.9656 56.9874 11.0355 55.2202C11.1171 53.1501 11.2025 51.0061 11.2103 49.0875C11.2103 48.9282 11.3424 48.8 11.5016 48.8C11.6608 48.8 11.7929 48.9321 11.789 49.0913C11.7774 51.0217 11.6958 53.1695 11.6142 55.2435C11.5443 57.0068 11.4744 58.8323 11.4511 60.4635C11.4511 60.6228 11.3191 60.7509 11.1598 60.7509L11.1637 60.747Z" fill="white"/>
<path d="M34.9952 44.1859C34.9952 43.681 34.9952 42.9197 34.3621 42.4148C33.7329 41.9022 32.3347 41.5681 30.8239 41.3584C30.8239 41.3584 31.5191 54.7541 31.5191 54.7658C31.4492 53.418 32.661 51.2819 33.0804 50.0157C33.6785 48.2019 34.9913 46.1046 34.9952 44.1859Z" fill="#CECECE"/>
<path d="M33.232 60.747C33.0728 60.747 32.9446 60.6189 32.9407 60.4596C32.9174 58.8284 32.8475 57.0068 32.7776 55.2396C32.6961 53.1656 32.6106 51.0178 32.6028 49.0874C32.6028 48.9282 32.731 48.7961 32.8903 48.7961C33.0495 48.7961 33.1816 48.9243 33.1816 49.0836C33.1932 51.0022 33.2748 53.1462 33.3563 55.2163C33.4262 56.9835 33.4962 58.8128 33.5195 60.448C33.5195 60.6072 33.3952 60.7393 33.232 60.7431H33.2282L33.232 60.747Z" fill="white"/>
</svg>
